<svg width="182" height="31" viewBox="0 0 182 31" fill="none" xmlns="http://www.w3.org/2000/svg">
<g clip-path="url(#clip0_6348_10204)">
<path d="M143.137 13.0105V18.3165H126.549V25.2943H143.717V31H120.79C120.826 25.0398 120.826 19.0797 120.826 13.0105H143.137ZM19.703 0.0726846C20.0291 0.0726846 20.2102 0.145369 20.355 0.472451C24.81 10.5029 29.3011 20.5335 33.7561 30.5276C33.7923 30.6365 33.8284 30.7456 33.9009 30.9273H31.6191C30.4602 30.9273 29.3373 30.891 28.1784 30.9273C27.7437 30.9273 27.5264 30.8183 27.3453 30.3822C24.7013 24.313 22.0573 18.2075 19.4134 12.1383C18.6164 10.3212 17.8197 8.46776 16.9866 6.54162C16.878 6.79602 16.8055 6.94138 16.697 7.12309C13.2923 14.864 9.92398 22.6049 6.55562 30.3459C6.37453 30.7456 6.19343 30.891 5.72259 30.891C4.18691 30.8619 2.6744 30.8794 1.14799 30.8503L0 30.8183C0.108657 30.6365 0.217314 30.4549 0.32597 30.2732C4.74468 20.3881 9.16338 10.5029 13.5821 0.617819C13.7632 0.218054 13.9443 0.0726846 14.4151 0.0726846C16.1898 0.109027 17.9646 0.109027 19.703 0.0726846ZM46.5775 0.181711C46.9397 0.181711 47.1207 0.290738 47.302 0.581478C50.2718 4.68816 53.2418 8.75849 56.2118 12.8652C56.3204 13.0105 56.4291 13.1923 56.6102 13.374C56.755 13.1923 56.8637 13.0469 56.9723 12.9015C59.9423 8.79484 62.9123 4.72451 65.8821 0.617819C66.1357 0.290738 66.353 0.181711 66.7514 0.181711C68.5623 0.218054 70.4096 0.181711 72.2205 0.181711H72.8V30.9273H67.0773V8.83119C67.0412 8.79484 67.005 8.79484 66.9688 8.75849C66.8602 8.90387 66.7514 9.04924 66.6428 9.1946C63.5641 13.3013 60.4855 17.4079 57.407 21.5146C56.8637 22.2416 56.0668 22.2416 55.5598 21.4783C52.5898 17.3716 49.5837 13.3013 46.6137 9.1946C46.505 9.04924 46.3964 8.86752 46.2516 8.72216C46.2154 8.75849 46.1791 8.75849 46.1429 8.79484V30.9273H40.3841V0.218054C40.5289 0.218054 40.71 0.181711 40.855 0.181711H46.5775ZM169.576 0C171.351 0 173.054 0.363424 174.648 1.12661C178.306 2.8347 180.515 6.54162 180.297 10.6483C180.225 11.9566 180.044 13.2286 179.574 14.4279C178.414 17.3354 176.205 19.007 173.272 19.8065C173.054 19.8429 172.872 19.9156 172.584 19.9883C172.872 20.3154 173.09 20.6062 173.344 20.8605C176.096 23.9495 178.813 27.0387 181.565 30.1641C181.71 30.3459 181.82 30.6003 182 30.891H175.408C175.155 30.891 174.865 30.7456 174.685 30.5638C171.931 27.4021 169.178 24.2767 166.462 21.0786C166.137 20.7151 165.81 20.5697 165.339 20.5697C163.746 20.6062 162.116 20.5697 160.485 20.5697V30.8546C158.494 30.8183 156.611 30.8183 154.655 30.8183V15.2638H155.306C159.835 15.2638 164.361 15.3001 168.925 15.3001C169.721 15.3001 170.556 15.2274 171.316 15.0094C173.525 14.3552 174.755 12.2474 174.503 9.66706C174.285 7.48652 172.584 5.74208 170.338 5.4877C169.866 5.415 169.36 5.415 168.888 5.415H154.691V0.0363424C154.8 0.0363424 154.945 0 155.053 0H169.576ZM98.8052 0C100.652 0 102.463 0.327081 104.166 1.09027C107.099 2.43494 108.621 4.76084 108.91 7.95897C109.2 11.1208 108.005 13.4467 105.071 14.864C105.144 14.9367 105.216 14.973 105.252 15.0094C108.439 16.136 110.069 19.7702 109.888 22.3505C109.671 25.9121 108.113 28.4924 104.745 29.8008C103.767 30.1641 102.717 30.4549 101.703 30.6003C100.58 30.7819 99.4209 30.8546 98.298 30.8546H83.8468V12.5744H84.4987C89.3882 12.5018 94.2778 12.4654 99.1311 12.3564C99.8193 12.3201 100.544 12.1747 101.196 11.9203C103.043 11.2298 103.731 9.41265 102.862 7.63189C102.21 6.28722 101.014 5.63306 99.602 5.37867C99.1311 5.30598 98.6241 5.26964 98.1532 5.26964C93.5896 5.2333 89.0623 5.2333 84.4987 5.19695H83.8468V0.0363424C83.9916 0.0363424 84.1003 0 84.2452 0H98.8052ZM98.4068 17.517H90.0402C89.8591 17.517 89.7143 17.5533 89.5332 17.5533V25.4033C92.8291 25.4033 96.0163 25.4397 99.2398 25.4033C100.326 25.4033 101.341 25.1125 102.318 24.6038C103.151 24.1676 103.767 23.5498 104.021 22.6413C104.419 21.2603 103.912 19.9156 102.644 18.9343C101.413 17.9895 99.9641 17.517 98.4068 17.517ZM143.753 0.181711V5.74208H120.826V0.181711H143.753Z" fill="white"/>
</g>
<defs>
<clipPath id="clip0_6348_10204">
<rect width="182" height="31" fill="white"/>
</clipPath>
</defs>
</svg>
