<svg width="259" height="61" viewBox="0 0 259 61" fill="none" xmlns="http://www.w3.org/2000/svg">
<g clip-path="url(#clip0_6348_10206)">
<path d="M197.83 20.31H192.48C192.171 20.3097 191.866 20.2435 191.585 20.1159C191.304 19.9883 191.053 19.8022 190.85 19.57L188.68 17.12C188.52 16.9405 188.323 16.797 188.103 16.6986C187.884 16.6003 187.646 16.5495 187.405 16.5495C187.164 16.5495 186.926 16.6003 186.707 16.6986C186.487 16.797 186.29 16.9405 186.13 17.12L184.27 19.22C183.97 19.5617 183.601 19.8357 183.187 20.0236C182.774 20.2116 182.324 20.3092 181.87 20.31H152.59C151.746 22.7295 151.212 25.2462 151 27.8H178.64C178.879 27.7997 179.116 27.7508 179.336 27.6562C179.556 27.5617 179.755 27.4235 179.92 27.25L182.5 24.56C182.66 24.3953 182.851 24.2643 183.062 24.175C183.273 24.0856 183.501 24.0397 183.73 24.04H183.83C184.071 24.0411 184.31 24.0923 184.53 24.1905C184.75 24.2886 184.948 24.4315 185.11 24.61L187.28 27.06C187.483 27.2927 187.734 27.4792 188.015 27.6068C188.296 27.7345 188.601 27.8003 188.91 27.8H211.46C211.253 25.2455 210.719 22.7282 209.87 20.31H197.87H197.83ZM167.72 43.55C167.959 43.5485 168.196 43.4991 168.416 43.4046C168.636 43.3102 168.834 43.1726 169 43L171.57 40.31C171.731 40.1466 171.922 40.0166 172.133 39.9273C172.344 39.8381 172.571 39.7914 172.8 39.79H172.91C173.151 39.7911 173.39 39.8424 173.61 39.9405C173.83 40.0386 174.028 40.1815 174.19 40.36L176.35 42.81C176.554 43.0412 176.805 43.2266 177.086 43.3542C177.367 43.4817 177.672 43.5484 177.98 43.55H208.55C209.715 41.1554 210.555 38.6165 211.05 36H181.7C181.394 35.9989 181.091 35.9333 180.812 35.8076C180.533 35.6818 180.284 35.4986 180.08 35.27L177.91 32.82C177.75 32.6382 177.553 32.4924 177.332 32.3924C177.112 32.2925 176.872 32.2405 176.63 32.24C176.389 32.2393 176.151 32.2908 175.931 32.3909C175.712 32.491 175.517 32.6374 175.36 32.82L173.5 34.92C173.197 35.2602 172.826 35.5323 172.411 35.7185C171.995 35.9046 171.545 36.0006 171.09 36H151.41C151.9 38.6228 152.737 41.1686 153.9 43.57L167.72 43.55ZM189.41 12.12C189.651 12.1199 189.889 12.0711 190.111 11.9766C190.333 11.8821 190.533 11.7438 190.7 11.57L193.27 8.89001C193.428 8.72299 193.619 8.58988 193.831 8.49878C194.042 8.40767 194.27 8.36046 194.5 8.36001H194.61C194.851 8.35932 195.089 8.41081 195.309 8.51092C195.528 8.61104 195.723 8.75742 195.88 8.94001L198.05 11.39C198.256 11.6184 198.507 11.8013 198.788 11.927C199.069 12.0527 199.372 12.1184 199.68 12.12H205.49C202.663 8.35647 199 5.30215 194.79 3.19861C190.579 1.09507 185.937 0 181.23 0C176.523 0 171.881 1.09507 167.67 3.19861C163.46 5.30215 159.797 8.35647 156.97 12.12H189.41ZM177.73 51.05H169.78C169.473 51.0496 169.169 50.9833 168.89 50.8556C168.61 50.728 168.361 50.5419 168.16 50.31L166 47.86C165.839 47.6803 165.641 47.5366 165.421 47.4382C165.2 47.3398 164.961 47.2889 164.72 47.2889C164.479 47.2889 164.24 47.3398 164.019 47.4382C163.799 47.5366 163.601 47.6803 163.44 47.86L161.57 50C161.271 50.3422 160.902 50.6165 160.488 50.8045C160.074 50.9925 159.625 51.0898 159.17 51.09H159.05C161.888 54.1343 165.322 56.5619 169.139 58.2218C172.956 59.8817 177.073 60.7383 181.235 60.7383C185.397 60.7383 189.514 59.8817 193.331 58.2218C197.148 56.5619 200.582 54.1343 203.42 51.09L177.73 51.05ZM47.07 58.74L40.9 43.74H13.31L7.14 58.74H0L27.06 2.00001L54.21 58.74H47.07ZM15.64 38.05H38.49L27 13.86L15.64 38.05ZM64.07 58.74V2.00001H79.87C92.22 2.00001 98.71 7.65001 98.71 18.32C98.71 28.58 91.82 34.52 79.79 34.52H70.73V58.74H64.07ZM70.73 28.58H78.27C87.81 28.58 92 25.46 92 18.32C92 10.94 87.75 7.89001 78.29 7.89001H70.73V28.58ZM122.89 8.05001H103.32V1.96001H149.11V8.05001H129.54V58.74H122.89V8.05001ZM220.84 48.39L226.57 44.5L227.01 45.42C230.54 51.84 234.39 54.42 240.24 54.42C246.74 54.42 251.31 49.93 251.31 44.47C251.31 39.34 248.74 35.89 238.48 31.64C226.69 26.75 222.68 21.7 222.68 14.48C222.68 6.62001 228.86 0.480011 239.52 0.480011C247.38 0.480011 252.75 3.84001 255.8 9.30001L251.15 12.51L249.79 12.18C247.38 8.42001 244.41 6.25001 239.36 6.25001C233.19 6.25001 229.58 9.70001 229.58 14.35C229.58 18.68 231.9 21.17 241.93 25.74C255 31.67 258.21 36.56 258.21 44.42C258.21 53 250.83 60.3 240.32 60.3C231.5 60.3 225.41 56.93 220.84 48.43" fill="white"/>
</g>
<defs>
<clipPath id="clip0_6348_10206">
<rect width="258.21" height="60.7" fill="white"/>
</clipPath>
</defs>
</svg>
