<svg width="227" height="83" viewBox="0 0 227 83" fill="none" xmlns="http://www.w3.org/2000/svg">
<g clip-path="url(#clip0_6348_10258)">
<path fill-rule="evenodd" clip-rule="evenodd" d="M77.6464 0.0485014C76.6319 0.181082 75.8065 0.606172 75.0646 1.37819C74.2636 2.2118 73.9554 2.98888 73.9554 4.17526C73.9554 5.46573 74.2828 6.29368 75.1405 7.17276C75.5873 7.63063 75.8602 7.81717 76.4542 8.0706C77.3608 8.45739 77.4258 8.4688 78.7253 8.46839C80.032 8.46803 80.2208 8.43812 80.8918 8.12552C81.408 7.88502 81.7289 7.66218 82.1721 7.23636C82.5966 6.82866 82.8369 6.4994 83.0659 6.01213C83.3387 5.43159 83.3817 5.19035 83.3808 4.24571C83.3801 3.51295 83.3667 3.3548 83.2799 3.05152C83.0103 2.10994 82.5543 1.48128 81.6843 0.851793C81.1029 0.430995 80.5662 0.198203 79.8683 0.0639783C79.5033 -0.00628411 78.1382 -0.0157346 77.6464 0.0485014ZM153.464 5.21587C153.438 5.24728 153.221 6.81378 152.98 8.69703C152.739 10.5803 152.531 12.1783 152.517 12.2482C152.503 12.3181 152.447 12.4033 152.393 12.4375C152.326 12.4796 151.666 12.5513 150.344 12.6602C148.64 12.8005 148.385 12.8311 148.333 12.902C148.287 12.9666 148.274 13.5732 148.274 15.8684C148.274 18.6438 148.278 18.7578 148.361 18.8615L148.449 18.9693H150.197C151.159 18.9693 151.963 18.9864 151.984 19.0073C152.005 19.0282 152.034 21.8737 152.048 25.3305C152.075 31.8536 152.075 31.8695 152.277 33.0994C152.813 36.3667 154.351 38.6304 156.837 39.8137C158.701 40.7006 161.178 40.972 163.901 40.5878C164.871 40.4512 167.447 39.848 167.564 39.7303C167.598 39.6956 167.626 39.6289 167.626 39.5822C167.626 39.3586 166.396 33.8157 166.331 33.7463C166.323 33.738 166.065 33.8136 165.756 33.9144C165.448 34.0151 164.981 34.142 164.719 34.1963C163.803 34.3861 162.773 34.2714 162.039 33.8979C160.965 33.3517 160.388 32.2854 160.265 30.6163C160.191 29.6154 160.226 19.1066 160.304 19.0287C160.351 18.9813 161.004 18.9669 163.529 18.9574C166.434 18.9465 166.7 18.9392 166.752 18.8688C166.796 18.8092 166.809 18.1026 166.809 15.7019C166.809 12.8834 166.802 12.6062 166.734 12.549C166.672 12.4975 166.094 12.4842 163.484 12.474L160.31 12.4617L160.266 12.3455C160.239 12.2743 160.222 10.8716 160.222 8.72177C160.222 5.56544 160.215 5.21144 160.15 5.18651C160.11 5.17126 158.6 5.1588 156.794 5.1588C154.221 5.1588 153.5 5.17117 153.464 5.21587ZM11.3794 11.8537C9.20111 12.0294 6.88727 12.6168 4.73906 13.5397C3.55418 14.0487 1.86297 14.923 1.23566 15.3509L1.04046 15.484L1.23185 15.8342C1.33715 16.0268 1.87678 17.037 2.43104 18.079C3.71136 20.4863 3.91951 20.8622 3.97216 20.8632C3.99569 20.8636 4.31254 20.702 4.67628 20.5041C7.75593 18.8279 9.97909 18.2084 12.0608 18.4461C13.0809 18.5625 13.6972 18.8099 14.2425 19.3217C14.9427 19.9789 15.3826 20.8972 15.472 21.8885C15.4993 22.1918 15.4937 22.2287 15.4138 22.2717C15.3651 22.2979 14.8361 22.3829 14.2382 22.4607C10.3288 22.9693 7.72313 23.6187 5.45309 24.65C1.75653 26.3293 -0.123383 29.2701 0.136461 32.9669C0.252664 34.6205 0.614129 35.8172 1.36477 37.0335C2.32147 38.5837 3.56558 39.6126 5.24671 40.2437C6.1479 40.582 7.0464 40.7237 8.29034 40.7237C9.98836 40.7237 11.1888 40.4443 12.6968 39.698C13.5734 39.2642 14.6652 38.559 15.5587 37.8497C16.2076 37.3345 16.331 37.2586 16.4025 37.3304C16.428 37.3561 16.5603 37.9259 16.6965 38.5967C16.9358 39.7754 16.9918 39.9779 17.0987 40.0496C17.1262 40.0681 18.6129 40.0834 20.4025 40.0839C23.1395 40.0844 23.6647 40.0744 23.7092 40.0205C23.7491 39.9721 23.7581 37.8568 23.746 31.3804C23.7315 23.6644 23.7221 22.7333 23.6522 22.0968C23.4937 20.6537 23.301 19.6248 23.0051 18.6417C21.9482 15.1307 19.4765 12.8644 15.9221 12.1474C14.7718 11.9154 14.2165 11.8611 12.8558 11.8477C12.1687 11.8409 11.5043 11.8437 11.3794 11.8537ZM45.2227 11.853C43.6267 12.0292 42.2242 12.6284 40.8617 13.7164C39.8554 14.5199 39.1197 15.398 38.4114 16.6409C38.2682 16.892 38.1027 17.1475 38.0434 17.2085L37.9357 17.3196L37.8868 17.1904C37.8599 17.1193 37.726 16.0627 37.5892 14.8423C37.3608 12.8048 37.3327 12.6167 37.2445 12.5431C37.1547 12.4681 36.9415 12.4637 33.8945 12.4746L30.6405 12.4864L30.6291 26.2341C30.6196 37.6706 30.6279 39.9904 30.6785 40.0326C30.7218 40.0687 31.8787 40.0868 34.6972 40.0954C38.2476 40.1061 38.6625 40.1 38.7266 40.0355C38.7912 39.9707 38.7991 39.1782 38.8078 32.0003L38.8175 24.037L38.9814 23.6717C39.7093 22.0507 40.3944 21.096 41.3503 20.3707C42.665 19.373 43.9685 18.9648 45.4543 19.0853C46.0681 19.135 46.6525 19.2289 47.1609 19.3593C47.6143 19.4757 47.7264 19.4733 47.8059 19.346C47.8412 19.2894 47.9248 18.9453 47.9916 18.5812C48.0585 18.2171 48.3378 16.7296 48.6123 15.2756C48.8868 13.8217 49.1052 12.5797 49.0977 12.5158C49.0582 12.1805 47.7622 11.8799 46.2241 11.8492C45.7733 11.8403 45.3226 11.8419 45.2227 11.853ZM67.1438 11.8735C64.5837 12.164 62.3147 13.6685 60.7112 16.1387C60.532 16.4149 60.3335 16.7436 60.2703 16.8692C60.2071 16.9947 60.1117 17.1372 60.0582 17.1857C59.8773 17.35 59.8239 17.2165 59.7552 16.4282C59.7216 16.043 59.6135 15.0318 59.5148 14.1811C59.377 12.9922 59.3185 12.6172 59.2619 12.5603C59.1955 12.4935 58.8712 12.4864 55.9079 12.4864H52.6273L52.6157 26.2284C52.6048 39.1079 52.6089 39.974 52.6812 40.0275C52.7415 40.0721 53.6223 40.0845 56.7212 40.0845C60.2633 40.0845 60.6918 40.0769 60.7556 40.0128C60.8199 39.9481 60.827 39.1695 60.8272 32.126C60.8274 27.273 60.8443 24.208 60.8717 24.0393C60.9303 23.68 61.5819 22.3501 61.9689 21.8001C62.1279 21.5742 62.4828 21.1618 62.7576 20.8836C64.4185 19.2025 66.4976 18.7071 69.1566 19.359C69.478 19.4378 69.7564 19.4851 69.7751 19.4641C69.8319 19.4004 69.8846 19.1355 70.5033 15.8005C70.8314 14.0325 71.0878 12.5383 71.0733 12.48C71.0587 12.4216 70.9877 12.3431 70.9154 12.3056C70.6965 12.1918 70.0375 12.0162 69.5409 11.9391C68.9669 11.8501 67.6641 11.8145 67.1438 11.8735ZM105.346 11.8516C103.924 11.9487 102.747 12.2506 101.643 12.8013C100.666 13.289 99.0227 14.4244 97.9524 15.3514C97.3788 15.8481 97.2149 15.9789 97.1662 15.9789C97.0949 15.9789 97.0295 15.6563 96.8052 14.1984C96.6797 13.3823 96.5652 12.6775 96.5509 12.6321C96.5367 12.5868 96.4743 12.5302 96.4124 12.5066C96.2879 12.459 90.3064 12.4461 90.0253 12.4928L89.855 12.5211V26.2751C89.855 38.7748 89.8615 40.0316 89.9268 40.0568C89.9664 40.0721 91.7845 40.0845 93.9672 40.0845C97.0921 40.0845 97.9435 40.0724 97.9724 40.0275C97.9926 39.9961 98.0194 35.8166 98.0319 30.7398L98.0546 21.5091L98.1909 21.3647C98.3818 21.1625 99.6086 20.1312 100.046 19.805C100.511 19.459 101.143 19.1542 101.703 19.0059C102.233 18.8657 103.346 18.8086 103.814 18.8976C104.934 19.1105 105.66 19.7133 106.008 20.7203C106.144 21.1138 106.281 21.9917 106.343 22.8728C106.372 23.2852 106.391 26.6243 106.393 31.7298C106.395 36.237 106.413 39.9658 106.432 40.0161C106.467 40.1066 106.503 40.1072 110.484 40.0919C114.15 40.0779 114.504 40.07 114.558 40.0012C114.605 39.9403 114.613 38.1402 114.6 30.5889C114.582 20.4955 114.595 21.0328 114.342 19.4709C114.125 18.13 113.77 16.9883 113.242 15.9333C112.801 15.0526 112.41 14.4966 111.796 13.8775C110.688 12.7588 109.35 12.1445 107.526 11.9176C107.106 11.8654 105.747 11.8242 105.346 11.8516ZM130.785 11.8727C126.441 12.2198 123.32 14.0198 121.567 17.1888C120.95 18.3047 120.642 19.4238 120.514 21.0238C120.378 22.7285 120.659 24.1989 121.405 25.6889C121.926 26.7291 122.619 27.6305 123.455 28.3565C124.209 29.0118 124.206 29.0085 124.176 29.0875C124.16 29.1282 123.977 29.308 123.77 29.4871C122.496 30.5857 121.678 31.7009 121.342 32.7957C121.1 33.5828 121.03 34.6908 121.176 35.4543C121.424 36.7611 121.996 37.6754 123.194 38.6789C123.409 38.8589 123.612 39.0299 123.644 39.0591C123.692 39.1011 123.602 39.1775 123.213 39.4263C122.44 39.921 121.897 40.3539 121.38 40.8898C120.618 41.6781 120.099 42.5613 119.849 43.496C119.741 43.8984 119.729 44.0233 119.728 44.7641C119.726 45.51 119.737 45.6315 119.85 46.0798C120.347 48.0699 121.357 49.2597 123.403 50.2666C124.974 51.0396 126.574 51.4439 129.036 51.6894C129.825 51.7681 132.731 51.7678 133.601 51.6889C135.695 51.4993 137.419 51.1526 139.03 50.5973C143.211 49.1562 145.816 46.6212 146.466 43.3605C146.553 42.9245 146.569 42.6979 146.57 41.8651C146.571 40.6044 146.466 39.9821 146.093 39.0462C145.841 38.4122 145.533 37.9315 145.062 37.4355C144.529 36.8744 144.01 36.5036 143.209 36.1113C142.293 35.6624 141.505 35.4165 140.234 35.1823C138.61 34.8831 137.758 34.8348 134.101 34.834C132.415 34.8337 130.756 34.8132 130.415 34.7885C129.257 34.7046 128.539 34.4769 128.074 34.0459C127.825 33.8156 127.773 33.7159 127.679 33.2958C127.498 32.4894 127.657 31.7633 128.13 31.2345C128.467 30.8574 128.592 30.8421 129.536 31.0621C130.526 31.2931 130.822 31.3295 131.887 31.3528C132.975 31.3765 133.533 31.3389 134.487 31.1775C138.382 30.5187 140.981 28.6026 142.114 25.5553C142.494 24.532 142.647 23.5628 142.649 22.1651C142.65 20.8085 142.511 20.014 142.113 19.1063C141.902 18.6256 141.89 18.5793 141.965 18.5316C142 18.5095 142.928 18.4907 144.027 18.4899C145.211 18.4891 146.054 18.4708 146.094 18.4451C146.154 18.4071 146.16 18.0427 146.149 15.5353C146.143 13.9589 146.127 12.6352 146.114 12.594C146.101 12.5528 146.046 12.5068 145.99 12.4919C145.935 12.477 143.794 12.4641 141.233 12.4633C136.095 12.4616 136.155 12.4644 134.972 12.171C134.613 12.0821 134.092 11.9764 133.813 11.9359C133.206 11.848 131.531 11.813 130.785 11.8727ZM182.549 11.8555C180.477 11.989 178.26 12.6489 176.59 13.6298C174.356 14.9412 172.678 16.7654 171.509 19.1519C170.687 20.8294 170.27 22.2512 170.05 24.1283C169.95 24.9836 169.935 27.5033 170.025 28.2828C170.277 30.4525 170.861 32.3043 171.862 34.1038C172.866 35.9109 174.245 37.4104 175.917 38.5132C177.611 39.631 179.284 40.2685 181.39 40.5993C182.238 40.7326 184.4 40.743 185.23 40.6178C188.128 40.1806 190.675 38.9217 192.636 36.9572C194.892 34.6974 196.201 31.8447 196.618 28.2828C196.712 27.4807 196.698 24.8306 196.595 24.0598C196.212 21.1859 195.236 18.7624 193.646 16.7417C193.168 16.1335 192.072 15.0433 191.498 14.6042C190.29 13.6795 189.132 13.0551 187.733 12.5732C186.048 11.9928 184.26 11.7452 182.549 11.8555ZM217.369 11.8762C216.711 11.9364 215.787 12.1281 215.158 12.3346C213.783 12.7864 212.295 13.7233 210.313 15.3866C209.924 15.7124 209.587 15.9789 209.564 15.9789C209.461 15.9789 209.41 15.7219 209.079 13.5162C208.953 12.6788 208.926 12.5857 208.786 12.5102C208.692 12.4597 202.483 12.4426 202.299 12.4923L202.197 12.5198V26.3022V40.0845H206.233C210.085 40.0845 210.272 40.0808 210.344 40.001C210.413 39.9239 210.419 39.215 210.419 30.7288C210.419 22.3391 210.425 21.5295 210.493 21.4189C210.571 21.2901 212.121 20.001 212.549 19.7086C213.388 19.1362 214.348 18.8544 215.456 18.8559C216.122 18.8569 216.534 18.9323 216.955 19.1307C217.752 19.5054 218.232 20.1319 218.48 21.1232C218.766 22.2589 218.749 21.6868 218.776 31.2635C218.797 38.9586 218.808 40.0017 218.868 40.0398C218.977 40.1086 226.877 40.0987 226.945 40.0298C226.987 39.9876 227 38.1489 226.999 32.0288C226.999 22.4369 226.964 20.9621 226.7 19.403C226.463 18.0021 226.178 17.0733 225.652 15.9871C224.567 13.7477 222.988 12.5139 220.595 12.0348C219.618 11.8394 218.417 11.7804 217.369 11.8762ZM74.619 12.5814C74.5682 12.7145 74.5875 39.9005 74.6384 39.9962C74.6844 40.0825 74.7772 40.0845 78.6804 40.0845H82.6754L82.7332 39.9818C82.7798 39.8991 82.7885 37.2089 82.7782 26.1941L82.7653 12.5092H78.7059C75.0462 12.5092 74.6438 12.5163 74.619 12.5814ZM131.421 17.4215C130.415 17.6084 129.907 17.8367 129.367 18.3437C128.555 19.1065 128.151 20.2515 128.15 21.794C128.149 24.2017 129.125 25.7769 130.899 26.233C131.391 26.3597 132.421 26.3507 132.889 26.2156C134.398 25.7792 135.304 24.5723 135.559 22.6591C135.659 21.9044 135.536 20.6989 135.278 19.8999C134.894 18.7113 134.031 17.8613 132.873 17.5318C132.543 17.4378 131.684 17.3726 131.421 17.4215ZM182.77 18.5349C182.129 18.6261 181.478 18.847 180.995 19.1367C180.856 19.2204 180.585 19.437 180.392 19.6181C179.338 20.6095 178.634 22.4341 178.435 24.6929C178.363 25.5101 178.404 27.7844 178.504 28.4883C178.731 30.1026 179.202 31.4332 179.881 32.3822C180.712 33.5436 181.969 34.1096 183.571 34.0437C184.77 33.9943 185.601 33.6493 186.359 32.8856C186.671 32.5719 187.116 31.9494 187.324 31.537C187.958 30.2811 188.341 28.3731 188.341 26.4806C188.341 24.2713 188 22.4622 187.32 21.0635C186.683 19.7517 185.771 18.9739 184.485 18.6445C184.004 18.5214 183.218 18.4712 182.77 18.5349ZM14.9454 27.375C14.758 27.4095 14.2981 27.4914 13.9233 27.5568C12.5581 27.7953 11.1681 28.2001 10.3326 28.6025C8.94694 29.2699 8.09881 30.2805 7.9549 31.4356C7.85055 32.2732 8.094 33.0631 8.60669 33.5504C9.14251 34.0596 9.99686 34.331 11.0668 34.3317C11.9454 34.3323 12.6866 34.1531 13.3239 33.7859C14.0752 33.3532 15.3235 32.3248 15.4679 32.0196C15.5253 31.8984 15.5359 31.5534 15.5356 29.8282C15.5354 28.702 15.5223 27.6728 15.5065 27.541C15.4737 27.2663 15.4972 27.2732 14.9454 27.375ZM127.916 40.8745C127.794 40.9297 127.245 41.5674 126.974 41.9691C126.754 42.294 126.616 42.6404 126.53 43.0777C126.465 43.4102 126.462 43.5213 126.508 43.8174C126.724 45.2173 128.009 46.0754 130.467 46.4623C131.13 46.5667 133.551 46.5805 134.237 46.4837C135.994 46.2359 137.324 45.6432 138.172 44.7293C138.697 44.164 138.884 43.5046 138.729 42.769C138.619 42.2484 138.339 41.8922 137.847 41.6453C137.476 41.4597 137.193 41.3837 136.441 41.2679C135.863 41.1789 135.531 41.1666 132.806 41.1329C130.613 41.1058 129.668 41.0777 129.286 41.0282C128.793 40.9644 128.256 40.878 128.105 40.8379C128.067 40.828 127.982 40.8445 127.916 40.8745ZM11.0614 55.243C8.75242 55.3853 6.66095 56.2195 4.84795 57.7215C3.58893 58.7645 2.39951 60.2514 1.6804 61.6815C0.857755 63.3174 0.310857 65.3443 0.08581 67.5914C0.0135806 68.3128 0.0137169 70.3127 0.0860825 71.0612C0.251256 72.7699 0.559207 74.2285 1.02275 75.4976C1.11287 75.7443 1.36795 76.316 1.58954 76.768C2.9758 79.5953 5.01276 81.4308 7.87622 82.433C8.98914 82.8225 9.73415 82.9478 11.1523 82.9841C12.8064 83.0265 13.6248 82.9207 14.9 82.4997C16.5896 81.9419 18.0152 80.9845 19.2123 79.6036C19.7833 78.9449 19.7628 79.0518 19.403 78.6103C19.2321 78.4005 18.6104 77.5878 18.0215 76.8041C16.709 75.0576 16.347 74.5994 16.2797 74.5994C16.2511 74.5994 16.0355 74.7915 15.8007 75.0264C14.0301 76.7972 11.755 77.3162 9.88474 76.3761C8.40186 75.6307 7.4269 74.126 6.95864 71.8601C6.73813 70.7932 6.70324 70.4255 6.70742 69.2122C6.71451 67.1517 6.96386 65.9045 7.65222 64.4869C8.40195 62.943 9.36565 62.0329 10.7227 61.5872C11.7862 61.2379 12.7753 61.3104 13.787 61.8117C14.265 62.0486 15.327 62.761 15.7289 63.1143C15.8593 63.2289 15.9792 63.3227 15.9954 63.3227C16.0116 63.3227 16.7751 62.317 17.6921 61.0879C18.9802 59.3614 19.3529 58.8325 19.3309 58.7627C19.3152 58.713 19.0681 58.446 18.7819 58.1695C16.5771 56.0393 13.9987 55.0619 11.0614 55.243ZM42.2808 55.7555C42.2054 55.8132 41.8158 57.1882 39.8851 64.213C39.3813 66.046 38.4921 69.2612 37.909 71.3579C35.5014 80.0153 34.8331 82.4577 34.8635 82.4883C34.8811 82.506 36.351 82.526 38.1299 82.5327C40.6875 82.5425 41.3808 82.5329 41.4432 82.4871C41.5029 82.4432 41.6633 81.7672 42.1037 79.7043C42.4236 78.2057 42.7119 76.9473 42.7444 76.908C42.797 76.8443 43.1579 76.8365 46.0427 76.8365C49.5119 76.8365 49.3736 76.8277 49.4433 77.0536C49.4569 77.0974 49.6838 78.1604 49.9478 79.4159C50.3702 81.4254 50.4898 81.9852 50.5839 82.3949L50.6076 82.4976H54.0401H57.4726L57.4432 82.3493C57.3987 82.1244 54.644 72.1235 53.8749 69.3948C53.5034 68.0765 52.8727 65.7961 52.4736 64.3271C51.6705 61.3718 50.2781 56.3454 50.1686 56.0061C50.1301 55.8866 50.0607 55.7685 50.0145 55.7436C49.8799 55.6712 42.376 55.6827 42.2808 55.7555ZM74.3302 55.7272C74.285 55.7467 74.2734 58.4698 74.2734 69.1246V82.4976H77.5442H80.815V78.3229C80.815 75.0328 80.827 74.1406 80.8717 74.1123C80.903 74.0925 81.7053 74.0624 82.6548 74.0453C84.3673 74.0146 85.0103 73.9726 85.7622 73.8424C87.4065 73.5578 89.0654 72.7647 90.3092 71.6685C91.7354 70.4118 92.5891 68.7671 92.9968 66.4909C93.0905 65.9679 93.1022 65.762 93.1018 64.6467C93.1013 63.5606 93.0878 63.314 93.0017 62.8191C92.6288 60.676 91.9825 59.3226 90.7778 58.1619C89.4308 56.8641 87.6165 56.1032 85.1078 55.7836C84.6892 55.7303 74.4473 55.6767 74.3302 55.7272ZM112.012 55.7299C111.937 55.7497 111.933 56.4246 111.933 69.0961V82.4413L112.035 82.4732C112.184 82.5195 117.173 82.5612 117.852 82.5218L118.429 82.4884V69.1482C118.429 58.8334 118.416 55.7956 118.374 55.7532C118.333 55.7115 117.573 55.6997 115.206 55.7037C113.493 55.7066 112.056 55.7184 112.012 55.7299ZM136.944 55.7701C136.88 55.8339 136.872 56.1632 136.872 58.7061C136.872 60.9259 136.885 61.5877 136.929 61.6476C136.96 61.69 137.057 61.7327 137.145 61.7425C137.232 61.7522 138.658 61.7626 140.313 61.7653L143.323 61.7705V72.134V82.4976H146.571H149.819V72.1369V61.7761L152.974 61.7619C155.493 61.7505 156.141 61.7356 156.188 61.6881C156.274 61.6013 156.267 55.8735 156.181 55.769C156.128 55.7057 155.135 55.6984 146.569 55.6984C137.944 55.6984 137.008 55.7054 136.944 55.7701ZM179.061 55.7555C179.016 55.7893 178.927 56.0352 178.844 56.3604C178.716 56.858 176.738 64.0152 174.667 71.4721C174.221 73.0791 173.598 75.339 173.282 76.4941C172.966 77.6491 172.474 79.4157 172.188 80.4199C171.903 81.424 171.669 82.3126 171.669 82.3944V82.5433H174.914C178.389 82.5433 178.252 82.5521 178.32 82.3262C178.376 82.1402 179.438 77.0735 179.438 76.9921C179.438 76.9854 179.47 76.9477 179.509 76.9082C179.572 76.8443 179.938 76.8365 182.847 76.8365H186.114L186.182 76.9997C186.219 77.0895 186.374 77.7623 186.526 78.4949C187.313 82.2849 187.335 82.3798 187.437 82.4634C187.527 82.5378 187.755 82.5432 190.788 82.5426C192.578 82.5423 194.088 82.5296 194.145 82.5145C194.201 82.4994 194.247 82.4614 194.247 82.4302C194.247 82.3989 194.124 81.9339 193.974 81.3968C193.824 80.8598 193.219 78.6638 192.631 76.5169C192.042 74.37 191.195 71.3088 190.749 69.7144C189.767 66.2034 187.591 58.3512 187.207 56.9311C186.981 56.0942 186.908 55.8848 186.815 55.8011L186.701 55.6984H182.919C179.964 55.6984 179.12 55.7109 179.061 55.7555ZM211.157 55.7455L211.055 55.7868V69.1178C211.055 82.251 211.056 82.4495 211.143 82.496C211.202 82.5281 213.71 82.5433 218.93 82.5433C225.869 82.5433 226.637 82.5362 226.701 82.4716C226.765 82.4079 226.773 82.0796 226.773 79.5467C226.773 77.6672 226.757 76.6633 226.726 76.6052C226.68 76.5188 226.581 76.5169 222.186 76.5169H217.692L217.621 76.4142C217.556 76.3212 217.549 75.3363 217.553 66.0435C217.556 57.6273 217.546 55.7688 217.497 55.7377C217.416 55.6859 211.286 55.6935 211.157 55.7455ZM182.716 61.2755C182.69 61.3594 182.594 61.8389 182.503 62.3411C182.276 63.5916 181.562 67.1483 181.09 69.3774C180.875 70.391 180.711 71.2512 180.726 71.2891C180.749 71.349 181.019 71.3579 182.818 71.3579C185.14 71.3579 184.998 71.3812 184.929 71.0125C184.909 70.9033 184.543 69.1747 184.117 67.1711C183.69 65.1675 183.23 63.0063 183.095 62.3685C182.96 61.7307 182.83 61.1896 182.806 61.1659C182.78 61.139 182.746 61.18 182.716 61.2755ZM45.931 61.3482C45.9064 61.4423 45.7101 62.4331 45.4949 63.5499C45.2797 64.6667 44.8391 66.8224 44.5158 68.3402C44.1925 69.8581 43.928 71.1368 43.928 71.1817C43.928 71.2266 43.9687 71.2853 44.0184 71.312C44.1146 71.3638 48.1209 71.3596 48.1724 71.3077C48.1975 71.2825 46.1495 61.4286 46.083 61.2544C46.0353 61.1297 45.979 61.1644 45.931 61.3482ZM80.8156 64.814C80.8161 66.8899 80.8333 68.2575 80.8595 68.2991C80.8964 68.3577 81.0743 68.3655 82.0966 68.3536C83.9336 68.3321 84.4799 68.2619 85.0703 67.9714C86.2043 67.4135 86.8471 66.0533 86.7493 64.4184C86.6679 63.0575 86.2466 62.3308 85.2545 61.84C84.4847 61.4591 84.3442 61.4378 82.4617 61.4163L80.815 61.3974L80.8156 64.814Z" fill="#FFFCFC"/>
</g>
<defs>
<clipPath id="clip0_6348_10258">
<rect width="227" height="83" fill="white"/>
</clipPath>
</defs>
</svg>
