<svg width="200" height="52" viewBox="0 0 200 52" fill="none" xmlns="http://www.w3.org/2000/svg">
<g clip-path="url(#clip0_6348_10162)">
<path d="M104.453 51.1793C95.1783 51.1793 94.6025 45.7238 96.3161 39.5238H103.808C103.079 42.9462 102.615 45.8223 106.732 45.8223C109.263 45.8223 110.851 44.1874 111.368 41.7542C112.738 35.3073 97.7439 34.9113 100.013 24.2455C101.203 18.6415 104.832 14.1775 113.959 14.1775C121.251 14.1775 124.176 17.45 122.087 24.9422H114.794C115.364 22.2621 115.498 19.5341 112.473 19.5341C110.043 19.5341 108.32 20.8746 107.793 23.3525C106.346 30.1471 121.551 29.552 119.156 40.8133C117.183 50.0894 110.157 51.1793 104.453 51.1793ZM148.243 50.5844L155.861 14.7732H175.405L174.233 20.2793H162.18L160.302 29.1079H171.412L170.241 34.6135H159.129L156.906 45.0802H169.356L168.185 50.5844H148.243ZM140.956 29.1077L144.006 14.7725H151.496L143.878 50.5869H136.392L139.788 34.6137H131.206L127.809 50.5869H120.318L127.933 14.7725H135.425L132.377 29.1077H140.956ZM85.0852 24.9423L72.5286 50.587H64.9769L82.5134 14.7732H92.385L94.4915 50.587H86.5989L85.0852 24.9423ZM190.869 14.7703C200.69 14.7703 201.135 21.3184 198.76 32.4794C197.589 37.9882 195.753 50.5846 182.954 50.5846H170.754C173.292 38.6463 175.83 26.7072 178.369 14.7703H190.869ZM191.129 32.6785C192.53 26.0817 193.767 20.279 188.558 20.279H184.688C182.931 28.5452 181.172 36.8114 179.414 45.0803H183.035C187.599 45.0803 189.218 41.6562 191.129 32.6785ZM63.1934 50.587H55.7053L59.1012 34.6147H50.5191L47.1227 50.587H39.6305L47.2493 14.7736H54.7379L51.6896 29.1078H60.2722L63.3196 14.7736H70.8082L63.1934 50.587ZM24.728 29.1077L26.6045 20.279H18.026L16.1459 29.1077H24.728ZM41.5835 20.279H34.0958L32.2188 29.1077H39.7065L38.5352 34.6146H31.0484L27.6488 50.5869H20.1607L23.5566 34.6146H14.9759L11.579 50.5869H4.08996L7.48638 34.6146H3.05176e-05L1.1705 29.1077H8.65685L10.5334 20.279H3.04701L4.21793 14.7734H11.7047L14.7531 0.447266H22.2412L19.196 14.7734H27.7781L30.8242 0.447266H38.3137L35.2676 14.7734H42.7548L41.5835 20.279Z" fill="white"/>
</g>
<defs>
<clipPath id="clip0_6348_10162">
<rect width="200" height="52" fill="white"/>
</clipPath>
</defs>
</svg>
