<svg width="234" height="74" viewBox="0 0 234 74" fill="none" xmlns="http://www.w3.org/2000/svg">
<g clip-path="url(#clip0_6348_10164)">
<path d="M150.003 34.9818V30.5418H151.491V28.9272H146.622V30.5418H148.11V34.9818H150.003Z" fill="white"/>
<path d="M189.635 33.5018H190.04L190.852 34.9818H192.61L191.528 33.0982C191.799 32.9636 192.069 32.6945 192.205 32.2909C192.34 32.0218 192.475 31.6182 192.475 31.2145C192.475 30.8109 192.34 30.4072 192.205 30.0036C192.069 29.6 191.799 29.3309 191.393 29.1963C190.987 29.0618 190.581 28.9272 190.176 28.9272H187.741V34.9818H189.499L189.635 33.5018ZM189.635 30.5418H190.311C190.581 30.5418 190.717 30.5418 190.852 30.6763C190.987 30.8109 190.987 30.9454 190.987 31.2145C190.987 31.4836 190.987 31.6182 190.852 31.7527C190.717 31.8872 190.581 31.8872 190.311 31.8872H189.635V30.5418Z" fill="white"/>
<path d="M167.317 28.9272V32.1563C167.317 33.0982 167.587 33.7709 167.993 34.1745C168.399 34.7127 169.075 34.8472 169.751 34.8472C170.563 34.8472 171.104 34.5782 171.51 34.1745C171.916 33.6363 172.186 32.9636 172.186 32.1563V28.9272H170.563V32.1563C170.563 32.56 170.563 32.9636 170.428 33.0982C170.292 33.2327 170.157 33.3672 169.887 33.3672C169.616 33.3672 169.481 33.2327 169.346 33.0982C169.21 32.9636 169.21 32.56 169.21 32.1563V28.9272H167.317Z" fill="white"/>
<path d="M162.447 22.8728V10.7637H152.709C151.762 10.7637 150.95 11.1673 150.274 11.84C149.598 12.5128 149.192 13.32 149.192 14.2619V22.8728H152.032V14.2619C152.032 14.1273 152.168 13.8582 152.303 13.7237C152.438 13.5891 152.573 13.4546 152.844 13.4546H159.877V22.8728H162.447Z" fill="white"/>
<path d="M187.335 19.9128C187.2 20.0473 186.929 20.1819 186.794 20.1819H178.273V22.8728H187.065C188.012 22.8728 188.688 22.4691 189.364 21.7964C190.04 21.1237 190.311 20.3164 190.311 19.24V15.4728H180.708V14.2619C180.708 14.1273 180.843 13.8582 180.978 13.7237C181.113 13.5891 181.384 13.4546 181.519 13.4546H190.311V10.7637H181.519C180.572 10.7637 179.896 11.1673 179.22 11.84C178.543 12.5128 178.273 13.32 178.273 14.3964V18.1637H187.606V19.5091C187.606 19.6437 187.471 19.7782 187.335 19.9128Z" fill="white"/>
<path d="M234 15.607V10.8979H224.126C223.179 10.8979 222.368 11.3016 221.691 11.9743C221.015 12.647 220.609 13.4543 220.609 14.3961V22.8725H223.314V19.1052H228.995L231.024 22.8725H233.729L231.701 18.8361C232.106 18.7016 232.512 18.4325 232.918 18.0289C233.729 17.4907 234 16.5489 234 15.607ZM231.295 15.607C231.295 15.8761 231.295 16.0107 231.16 16.1452C231.024 16.2798 230.889 16.4143 230.618 16.4143H223.45V14.3961C223.45 14.2616 223.585 13.9925 223.72 13.8579C223.855 13.7234 223.991 13.5889 224.261 13.5889H231.43V15.607H231.295Z" fill="white"/>
<path d="M200.185 22.8725V13.5889H204.919V10.8979H192.746V13.5889H197.615V22.8725H200.185Z" fill="white"/>
<path d="M232.106 33.3675C231.971 33.3675 231.836 33.502 231.565 33.502C231.295 33.502 231.024 33.502 230.619 33.3675C230.348 33.2329 230.077 33.0984 229.807 32.9638L229.266 34.4438C229.536 34.5784 229.942 34.7129 230.348 34.8475C230.754 34.982 231.16 34.982 231.701 34.982C232.242 34.982 232.647 34.8475 233.053 34.7129C233.459 34.5784 233.729 34.3093 233.865 34.0402C234 33.7711 234.135 33.3675 234.135 33.0984C234.135 32.6947 234 32.2911 233.865 32.1566C233.594 31.8875 233.459 31.7529 233.188 31.6184C232.918 31.4838 232.512 31.3493 232.106 31.3493C231.836 31.3493 231.565 31.2147 231.43 31.2147C231.295 31.2147 231.16 31.0802 231.16 30.9456C231.16 30.6766 231.43 30.542 231.836 30.542C232.242 30.542 232.783 30.6766 233.324 30.9456L233.865 29.6002C233.594 29.4656 233.324 29.3311 232.918 29.1966C232.512 29.062 232.242 29.062 231.836 29.062C231.295 29.062 230.889 29.1966 230.483 29.3311C230.077 29.4656 229.807 29.7347 229.672 30.0038C229.536 30.2729 229.401 30.6766 229.401 30.9456C229.401 31.3493 229.536 31.7529 229.672 31.8875C229.942 32.1566 230.077 32.2911 230.348 32.4256C230.619 32.5602 231.024 32.6947 231.43 32.6947C231.701 32.8293 231.971 32.8293 232.106 32.8293C232.242 32.8293 232.377 32.9638 232.377 33.0984C232.242 33.2329 232.106 33.3675 232.106 33.3675Z" fill="white"/>
<path d="M218.175 10.8979H209.383C208.436 10.8979 207.76 11.3016 207.083 11.9743C206.407 12.647 206.136 13.4543 206.136 14.5307V22.8725H208.706V19.7779H215.605V22.8725H218.175V10.8979ZM208.706 17.087V14.2616C208.706 14.127 208.842 13.9925 208.842 13.7234C208.977 13.5889 209.112 13.5889 209.383 13.5889H215.605V17.087H208.706Z" fill="white"/>
<path d="M214.523 30.542V29.062H209.788V34.982H214.658V33.502H211.682V32.6947H214.117V31.2147H211.682V30.542H214.523Z" fill="white"/>
<path d="M175.838 16.9525H173.133V20.1816H166.235V14.3961C166.235 14.127 166.37 13.9925 166.505 13.8579C166.64 13.7234 166.776 13.5889 167.046 13.5889H175.297V10.8979H167.046C166.099 10.8979 165.288 11.3016 164.612 11.9743C163.935 12.647 163.665 13.4543 163.665 14.5307V22.8725H175.838V16.9525Z" fill="white"/>
<path d="M114.16 21.7961C114.836 21.1234 115.242 20.3161 115.242 19.2398V10.8979H105.368C104.421 10.8979 103.609 11.3016 102.933 11.9743C102.257 12.647 101.851 13.4543 101.851 14.5307V19.3743C101.851 20.3161 102.257 21.2579 102.933 21.9307C103.609 22.6034 104.421 23.007 105.368 23.007H111.725C112.672 22.8725 113.483 22.6034 114.16 21.7961ZM106.179 20.1816H105.368C105.097 20.1816 104.962 20.1816 104.827 20.047C104.691 19.9125 104.556 19.7779 104.556 19.5089V14.2616C104.556 14.127 104.691 13.9925 104.827 13.7234C104.962 13.5889 105.097 13.5889 105.368 13.5889H106.179H112.401V19.5089C112.401 19.6434 112.266 19.7779 112.131 20.047C111.995 20.1816 111.86 20.1816 111.59 20.1816H110.778H106.179Z" fill="white"/>
<path d="M147.975 10.8979H145.54V23.007H147.975V10.8979Z" fill="white"/>
<path d="M110.237 30.542V29.062H105.503V34.982H110.372V33.502H107.397V32.6947H109.831V31.2147H107.397V30.542H110.237Z" fill="white"/>
<path d="M86.7017 28.9272H84.8081L86.9723 34.9818H88.7306L90.8948 28.9272H89.2717L87.9191 32.4254L86.7017 28.9272Z" fill="white"/>
<path d="M100.634 22.8728V10.7637H88.3249C87.378 10.7637 86.5665 11.1673 85.8902 11.84C85.2139 12.5128 84.8081 13.32 84.8081 14.2619V22.8728H87.5133V14.2619C87.5133 14.1273 87.6486 13.8582 87.7838 13.7237C87.9191 13.5891 88.0543 13.4546 88.3249 13.4546H91.3006V22.8728H94.0058V13.5891H97.7931V22.8728H100.634Z" fill="white"/>
<path d="M127.686 32.2909L129.579 34.9818H130.932V28.9272H129.309V31.6182L127.415 28.9272H126.062V34.9818H127.686V32.2909Z" fill="white"/>
<path d="M144.323 22.8728V10.7637H134.584C133.637 10.7637 132.825 11.1673 132.149 11.84C131.473 12.5128 131.067 13.32 131.067 14.2619V22.8728H133.908V14.2619C133.908 14.1273 134.043 13.8582 134.178 13.7237C134.313 13.5891 134.449 13.4546 134.719 13.4546H141.753V22.8728H144.323Z" fill="white"/>
<path d="M129.714 15.607V10.8979H119.84C118.894 10.8979 118.082 11.3016 117.406 11.9743C116.729 12.647 116.324 13.4543 116.324 14.3961V22.8725H119.029V19.1052H124.71L126.739 22.8725H129.444L127.415 18.8361C127.821 18.7016 128.227 18.4325 128.632 18.0289C129.444 17.4907 129.714 16.5489 129.714 15.607ZM127.009 15.607C127.009 15.8761 127.009 16.0107 126.874 16.1452C126.739 16.2798 126.603 16.4143 126.333 16.4143H119.164V14.3961C119.164 14.2616 119.299 13.9925 119.435 13.8579C119.57 13.7234 119.705 13.5889 119.976 13.5889H127.145V15.607H127.009Z" fill="white"/>
<path d="M47.7468 28.9273L0 73.5964L44.9064 26.1018C47.2058 23.5455 47.341 19.7782 45.1769 17.2218L30.2983 0L47.7468 14.9345C50.3168 17.0873 53.9688 17.0873 56.5387 14.9345L73.9873 0L58.9734 17.3564C56.8092 19.9127 56.8092 23.5455 58.9734 26.1018L73.9873 43.4582L56.674 28.6582C54.104 26.5055 50.1815 26.5055 47.7468 28.9273Z" fill="white"/>
</g>
<defs>
<clipPath id="clip0_6348_10164">
<rect width="234" height="74" fill="white"/>
</clipPath>
</defs>
</svg>
