<svg width="32" height="32" viewBox="0 0 32 32" fill="none" xmlns="http://www.w3.org/2000/svg">
<path d="M24.7012 11.5202C25.4415 11.5212 26.1618 11.2798 26.7521 10.8329C27.3423 10.386 27.77 9.75817 27.9699 9.04531C28.1697 8.33244 28.1307 7.57376 27.8588 6.88516C27.5869 6.19656 27.097 5.6159 26.464 5.2319C25.831 4.84789 25.0898 4.68166 24.3534 4.75859C23.6171 4.83552 22.9262 5.15138 22.3863 5.65793C21.8463 6.16447 21.4871 6.83384 21.3634 7.56377C21.2396 8.29371 21.3583 9.04407 21.7012 9.70024L18.2012 13.2002H14.8112L11.3112 9.70024C11.6468 9.04943 11.7606 8.30682 11.6353 7.58538C11.51 6.86394 11.1525 6.20317 10.6171 5.70362C10.0817 5.20407 9.39784 4.89309 8.66946 4.81798C7.94109 4.74288 7.20812 4.90777 6.58208 5.28757C5.95604 5.66737 5.4712 6.24128 5.20135 6.92198C4.93149 7.60267 4.89138 8.35289 5.08713 9.05848C5.28287 9.76407 5.70376 10.3864 6.28574 10.8308C6.86772 11.2752 7.57893 11.5173 8.31116 11.5202C8.85868 11.5123 9.39659 11.3752 9.88116 11.1202L12.0012 13.2402H8.50116C7.97073 13.2402 7.46202 13.4509 7.08695 13.826C6.71187 14.2011 6.50116 14.7098 6.50116 15.2402V25.2402C6.50116 25.7707 6.71187 26.2794 7.08695 26.6544C7.46202 27.0295 7.97073 27.2402 8.50116 27.2402H24.5012C25.0316 27.2402 25.5403 27.0295 25.9154 26.6544C26.2904 26.2794 26.5012 25.7707 26.5012 25.2402V15.2402C26.5012 14.7098 26.2904 14.2011 25.9154 13.826C25.5403 13.4509 25.0316 13.2402 24.5012 13.2402H21.0012L23.1212 11.1202C23.6087 11.3768 24.1503 11.5139 24.7012 11.5202Z" fill="#C1FF72"/>
<path d="M13.2928 18.9999C13.45 18.8434 13.5572 18.6439 13.6009 18.4265C13.6446 18.2091 13.6227 17.9836 13.5381 17.7786C13.4535 17.5736 13.3099 17.3984 13.1256 17.2751C12.9413 17.1518 12.7246 17.0859 12.5028 17.0859C12.2811 17.0859 12.0643 17.1518 11.88 17.2751C11.6957 17.3984 11.5521 17.5736 11.4675 17.7786C11.3829 17.9836 11.3611 18.2091 11.4047 18.4265C11.4484 18.6439 11.5556 18.8434 11.7128 18.9999C11.8161 19.1045 11.9391 19.1875 12.0747 19.2442C12.2103 19.3009 12.3558 19.3301 12.5028 19.3301C12.6498 19.3301 12.7953 19.3009 12.9309 19.2442C13.0666 19.1875 13.1896 19.1045 13.2928 18.9999ZM19.2928 18.9999C19.45 18.8434 19.5572 18.6439 19.6009 18.4265C19.6445 18.2091 19.6227 17.9836 19.5381 17.7786C19.4535 17.5736 19.3099 17.3984 19.1256 17.2751C18.9413 17.1518 18.7246 17.0859 18.5028 17.0859C18.2811 17.0859 18.0643 17.1518 17.88 17.2751C17.6957 17.3984 17.5521 17.5736 17.4675 17.7786C17.3829 17.9836 17.3611 18.2091 17.4047 18.4265C17.4484 18.6439 17.5556 18.8434 17.7128 18.9999C17.8161 19.1045 17.9391 19.1875 18.0747 19.2442C18.2103 19.3009 18.3558 19.3301 18.5028 19.3301C18.6498 19.3301 18.7953 19.3009 18.9309 19.2442C19.0666 19.1875 19.1896 19.1045 19.2928 18.9999ZM13.0028 22.2399C13.0028 22.5051 13.1082 22.7594 13.2957 22.947C13.4832 23.1345 13.7376 23.2399 14.0028 23.2399H17.0028C17.268 23.2399 17.5224 23.1345 17.7099 22.947C17.8975 22.7594 18.0028 22.5051 18.0028 22.2399C18.0028 21.9746 17.8975 21.7203 17.7099 21.5327C17.5224 21.3452 17.268 21.2399 17.0028 21.2399H14.0028C13.7376 21.2399 13.4832 21.3452 13.2957 21.5327C13.1082 21.7203 13.0028 21.9746 13.0028 22.2399Z" fill="#231F20"/>
<path d="M23.7012 11.5202C24.4415 11.5212 25.1618 11.2798 25.7521 10.8329C26.3423 10.386 26.77 9.75817 26.9699 9.04531C27.1697 8.33244 27.1307 7.57376 26.8588 6.88516C26.5869 6.19656 26.097 5.6159 25.464 5.2319C24.831 4.84789 24.0898 4.68166 23.3534 4.75859C22.6171 4.83552 21.9262 5.15138 21.3863 5.65793C20.8463 6.16447 20.4871 6.83384 20.3634 7.56377C20.2396 8.29371 20.3583 9.04407 20.7012 9.70024L17.2012 13.2002H13.8112L10.3112 9.70024C10.6468 9.04943 10.7606 8.30682 10.6353 7.58538C10.51 6.86394 10.1525 6.20317 9.61712 5.70362C9.08174 5.20407 8.39784 4.89309 7.66947 4.81798C6.94109 4.74288 6.20812 4.90777 5.58208 5.28757C4.95604 5.66737 4.4712 6.24128 4.20135 6.92198C3.93149 7.60267 3.89138 8.35289 4.08713 9.05848C4.28287 9.76407 4.70376 10.3864 5.28574 10.8308C5.86772 11.2752 6.57893 11.5173 7.31116 11.5202C7.85868 11.5123 8.39659 11.3752 8.88116 11.1202L11.0012 13.2402H7.50116C6.97073 13.2402 6.46202 13.4509 6.08695 13.826C5.71187 14.2011 5.50116 14.7098 5.50116 15.2402V25.2402C5.50116 25.7707 5.71187 26.2794 6.08695 26.6544C6.46202 27.0295 6.97073 27.2402 7.50116 27.2402H23.5012C24.0316 27.2402 24.5403 27.0295 24.9154 26.6544C25.2904 26.2794 25.5012 25.7707 25.5012 25.2402V15.2402C25.5012 14.7098 25.2904 14.2011 24.9154 13.826C24.5403 13.4509 24.0316 13.2402 23.5012 13.2402H20.0012L22.1212 11.1202C22.6087 11.3768 23.1503 11.5139 23.7012 11.5202ZM6.33116 9.11024C6.07285 8.8515 5.92778 8.50084 5.92778 8.13524C5.92778 7.76963 6.07285 7.41897 6.33116 7.16024C6.57516 6.88839 6.91716 6.7246 7.28191 6.70491C7.64667 6.68522 8.00431 6.81124 8.27616 7.05524C8.54801 7.29923 8.71179 7.64123 8.73148 8.00599C8.75118 8.37075 8.62516 8.72839 8.38116 9.00024C8.33116 9.00024 8.27116 9.06024 8.23116 9.10024C8.1944 9.14786 8.16098 9.19798 8.13116 9.25024C7.86678 9.45324 7.53664 9.55125 7.20432 9.5254C6.87199 9.49955 6.56098 9.35167 6.33116 9.11024ZM23.5012 25.2402H7.50116V15.2402H23.5012V25.2402ZM22.7212 7.16024C22.9797 6.89502 23.3331 6.74339 23.7035 6.7387C24.0739 6.73401 24.4309 6.87665 24.6962 7.13524C24.9614 7.39382 25.113 7.74717 25.1177 8.11756C25.1224 8.48794 24.9797 8.84502 24.7212 9.11024C24.4862 9.34578 24.1725 9.48626 23.8403 9.50472C23.5081 9.52317 23.1808 9.4183 22.9212 9.21024L22.8212 9.06024C22.8212 9.06024 22.7212 9.00024 22.6712 8.96024C22.4606 8.70479 22.3497 8.38176 22.3589 8.05087C22.3681 7.71997 22.4968 7.4036 22.7212 7.16024Z" fill="#231F20"/>
</svg>
