<svg width="81" height="79" viewBox="0 0 81 79" fill="none" xmlns="http://www.w3.org/2000/svg">
<g clip-path="url(#clip0_2008_87)">
<path d="M69.3558 9.64797C70.9597 15.645 70.7299 22.0302 68.668 27.9179H68.6664L51.0859 10.3374V10.3358C56.9736 8.27392 63.3588 8.04412 69.3558 9.64797Z" fill="#C1FF72"/>
<path d="M20.2969 39.9548L34.1071 23.8815H34.1087L39.4511 17.6626C42.8474 14.2663 46.8364 11.8241 51.0853 10.3359V10.3375L68.6658 27.918H68.6674C67.1793 32.1669 64.737 36.156 61.3407 39.5522L55.1219 44.8947L39.047 58.7049L34.3606 54.0185L29.6727 49.3306L24.9848 44.6427L20.2969 39.9548ZM52.9285 37.652C56.1267 34.4554 56.1267 29.2699 52.9285 26.0733C49.7319 22.8751 44.5463 22.8751 41.3497 26.0733C38.1515 29.2699 38.1515 34.4554 41.3497 37.652C44.5463 40.8502 49.7319 40.8502 52.9285 37.652Z" fill="#C1FF72"/>
<path d="M55.1218 44.8945C55.3975 52.1213 52.7762 59.4401 47.2595 64.9569C45.5653 66.6495 43.7031 68.0711 41.7236 69.2185L39.0469 58.7047L55.1218 44.8945Z" fill="#C1FF72"/>
<path d="M52.9305 26.0725C56.1287 29.2691 56.1287 34.4546 52.9305 37.6512C49.7339 40.8494 44.5484 40.8494 41.3518 37.6512C38.1536 34.4546 38.1536 29.2691 41.3518 26.0725C44.5484 22.8743 49.7339 22.8743 52.9305 26.0725Z" fill="#CDAFEF"/>
<path d="M39.0492 58.7039L32.7194 61.0352C30.9793 61.6771 29.0252 61.2476 27.7145 59.9353L26.6289 58.8497L34.3629 54.0176L39.0492 58.7039Z" fill="#C1FF72"/>
<path d="M34.3624 54.018L26.6284 58.8501H26.6268L23.3906 55.6139L29.6745 49.3301L34.3624 54.018Z" fill="#C1FF72"/>
<path d="M34.1075 23.881L20.2973 39.9543L9.78516 37.2791C10.9326 35.2997 12.3542 33.4375 14.0468 31.7433C19.5635 26.2266 26.8791 23.6053 34.1075 23.881Z" fill="#C1FF72"/>
<path d="M29.6724 49.3305L23.3886 55.6143L20.1523 52.3765L24.9845 44.6426L29.6724 49.3305Z" fill="#C1FF72"/>
<path d="M24.9838 44.643L20.1516 52.377L19.0644 51.2914C17.7538 49.9791 17.3243 48.0266 17.9646 46.2865L20.2958 39.9551L24.9838 44.643Z" fill="#C1FF72"/>
<path d="M10.577 60.7999C10.1714 60.7999 9.7657 60.6451 9.45634 60.3357C8.83747 59.7168 8.83747 58.7133 9.45634 58.0943L12.7116 54.839C13.3305 54.2203 14.334 54.2203 14.953 54.839C15.5719 55.4579 15.5719 56.4614 14.953 57.0805L11.6978 60.3357C11.3882 60.6451 10.9827 60.7999 10.577 60.7999Z" fill="#2D2439"/>
<path d="M7.58487 72.9989C7.17915 72.9989 6.77359 72.844 6.46408 72.5345C5.8452 71.9156 5.84536 70.9121 6.46424 70.2932L17.3156 59.4435C17.9344 58.8248 18.9379 58.8248 19.5568 59.4437C20.1757 60.0625 20.1755 61.0661 19.5565 61.6849L8.70518 72.5347C8.39598 72.8442 7.99042 72.9989 7.58487 72.9989Z" fill="#2D2439"/>
<path d="M17.616 72.1783C17.2103 72.1783 16.8049 72.0234 16.4954 71.7141C15.8765 71.0952 15.8765 70.0917 16.4954 69.4727L21.9203 64.048C22.5391 63.4292 23.5427 63.4294 24.1615 64.048C24.7804 64.6668 24.7804 65.6704 24.1615 66.2894L18.7367 71.7141C18.4273 72.0234 18.0216 72.1783 17.616 72.1783Z" fill="#2D2439"/>
<path d="M39.0458 60.2889C38.6401 60.2889 38.2347 60.1341 37.9252 59.8247L19.1751 41.0746C18.5562 40.4557 18.5562 39.4522 19.1751 38.8332C19.794 38.2145 20.7975 38.2145 21.4165 38.8332L40.1666 57.5834C40.7855 58.2023 40.7855 59.2058 40.1666 59.8249C39.8571 60.1342 39.4514 60.2889 39.0458 60.2889Z" fill="#2D2439"/>
<path d="M47.1402 41.6339C44.5293 41.6339 42.0752 40.6171 40.2297 38.7707C38.384 36.9258 37.3672 34.4717 37.3672 31.8609C37.3672 29.25 38.384 26.7959 40.2302 24.9504C42.0751 23.1047 44.5292 22.0879 47.14 22.0879C49.7509 22.0879 52.205 23.1047 54.0505 24.9509C55.896 26.7958 56.9129 29.2499 56.9129 31.8607C56.9129 34.4713 55.8962 36.9252 54.0505 38.7706C54.0504 38.7709 54.0503 38.7707 54.0499 38.7712C52.2047 40.6172 49.7507 41.6339 47.1402 41.6339ZM47.1402 25.2579C45.3763 25.2579 43.7182 25.9447 42.4718 27.192C41.2239 28.4391 40.537 30.0971 40.537 31.861C40.537 33.625 41.2239 35.283 42.4711 36.5295C43.7182 37.7774 45.3763 38.4642 47.1402 38.4642C48.9041 38.4642 50.5621 37.7774 51.8086 36.5301C51.8089 36.53 51.8091 36.5298 51.8092 36.5295C53.0565 35.283 53.7434 33.625 53.7434 31.861C53.7434 30.0971 53.0565 28.4391 51.8092 27.1926C50.5621 25.9447 48.9041 25.2579 47.1402 25.2579Z" fill="#2D2439"/>
<path d="M20.15 53.9608C19.8632 53.9608 19.5728 53.8831 19.3117 53.7197C18.5693 53.256 18.3437 52.2782 18.8074 51.536L23.6395 43.802C24.1034 43.0597 25.0812 42.8337 25.8234 43.2977C26.5657 43.7615 26.7914 44.7393 26.3277 45.4815L21.4956 53.2154C21.1949 53.6966 20.6784 53.9608 20.15 53.9608Z" fill="#2D2439"/>
<path d="M23.3896 57.1976C22.984 57.1976 22.5784 57.0428 22.2689 56.7334C21.65 56.1146 21.6499 55.1111 22.2688 54.492L28.5526 48.2082C29.1715 47.5895 30.175 47.5895 30.7939 48.2082C31.4127 48.8271 31.4129 49.8306 30.794 50.4494L24.5102 56.7333C24.2008 57.043 23.7951 57.1976 23.3896 57.1976Z" fill="#2D2439"/>
<path d="M26.6294 60.4339C26.101 60.4339 25.5845 60.1699 25.2839 59.6887C24.8202 58.9464 25.046 57.9686 25.7882 57.505L33.5221 52.6729C34.2643 52.2087 35.2422 52.4347 35.706 53.1771C36.1698 53.9195 35.9439 54.8972 35.2017 55.3609L27.4678 60.193C27.2064 60.3563 26.9163 60.4339 26.6294 60.4339Z" fill="#2D2439"/>
<path d="M34.1076 25.4647C33.742 25.4647 33.3746 25.3389 33.0756 25.082C32.4117 24.5116 32.3358 23.5111 32.9061 22.8471L38.2486 16.6282C38.8188 15.9645 39.8193 15.8884 40.4835 16.459C41.1474 17.0293 41.2233 18.0298 40.6528 18.6937L35.3103 24.9126C34.997 25.2774 34.5536 25.4647 34.1076 25.4647Z" fill="#2D2439"/>
<path d="M31.0811 62.9104C29.4253 62.9104 27.7968 62.263 26.5897 61.0543L25.5465 60.0111C25.5318 59.9975 25.5174 59.9837 25.5033 59.9694L17.9446 52.4106C16.2026 50.6663 15.6271 48.0474 16.4772 45.737L18.8085 39.4053C18.8739 39.2278 18.9705 39.0635 19.0936 38.9202L32.9038 22.8469C33.4745 22.1832 34.4748 22.1073 35.1387 22.6776C35.8026 23.2482 35.8784 24.2487 35.308 24.9126L21.684 40.7688L19.4516 46.8318C19.0266 47.987 19.3147 49.2972 20.1857 50.1693L27.7029 57.6867C27.7174 57.7003 27.732 57.7141 27.7461 57.7283L28.8317 58.8139C29.7029 59.6862 31.0118 59.9737 32.1675 59.5477L38.2298 57.3149L60.3067 38.3484C60.9709 37.7779 61.9714 37.8541 62.5417 38.5177C63.1122 39.1816 63.0363 40.1822 62.3724 40.7526L40.0783 59.9051C39.935 60.0282 39.7709 60.1249 39.5935 60.1902L33.2635 62.5215C32.5537 62.7833 31.8145 62.9104 31.0811 62.9104Z" fill="#2D2439"/>
<path d="M61.3419 41.1358C60.9364 41.1358 60.5308 40.981 60.2213 40.6716C59.6024 40.0528 59.6024 39.0492 60.2213 38.4302C63.3727 35.2789 65.7115 31.5655 67.1728 27.3928C69.0328 22.0818 69.3323 16.4179 68.0502 10.9529C62.5857 9.67097 56.9214 9.97051 51.6103 11.8303C47.4376 13.2917 43.724 15.6306 40.5728 18.7818C39.9539 19.4005 38.9505 19.4007 38.3313 18.7818C37.7125 18.163 37.7125 17.1594 38.3313 16.5404C41.8219 13.05 45.9371 10.4586 50.5624 8.83878C56.7683 6.66582 63.4087 6.41558 69.7659 8.11594C70.3133 8.26238 70.7409 8.68996 70.8874 9.23736C72.5876 15.5947 72.3376 22.2352 70.1642 28.4407C68.5443 33.066 65.9532 37.1811 62.4626 40.6716C62.1532 40.981 61.7477 41.1358 61.3419 41.1358Z" fill="#2D2439"/>
<path d="M68.6653 29.5023C68.2596 29.5023 67.8542 29.3474 67.5447 29.0381L49.9642 11.4574C49.3453 10.8385 49.3453 9.83502 49.9642 9.21599C50.5835 8.59712 51.5867 8.59743 52.2056 9.21599L69.7861 26.7966C70.405 27.4155 70.405 28.419 69.7861 29.0381C69.4764 29.3474 69.0708 29.5023 68.6653 29.5023Z" fill="#2D2439"/>
<path d="M20.2978 41.538C20.1659 41.538 20.0331 41.5215 19.9052 41.4891L9.39307 38.8139C8.91176 38.6914 8.51555 38.3501 8.32315 37.8924C8.13059 37.4346 8.16388 36.9129 8.41285 36.4832C9.64553 34.3567 11.1633 32.3849 12.9244 30.6222C18.5158 25.0308 26.2558 21.9936 34.1592 22.296C35.0101 22.3239 35.6919 23.0223 35.6919 23.8799C35.6919 24.755 34.9831 25.4647 34.1078 25.4647H34.1062C34.0861 25.4647 34.066 25.4644 34.0459 25.4636C27.019 25.1943 20.1366 27.8923 15.1663 32.8628C14.107 33.9229 13.1469 35.068 12.2976 36.2823L20.6544 38.4089C21.3573 38.5712 21.8818 39.201 21.8818 39.953C21.8818 40.8283 21.1731 41.538 20.2978 41.538Z" fill="#2D2439"/>
<path d="M41.7231 70.8025C41.5147 70.8025 41.3058 70.7615 41.1088 70.6786C40.6508 70.486 40.3098 70.09 40.1873 69.6088L37.5103 59.0951C37.2943 58.2467 37.807 57.3841 38.6552 57.1682C39.5029 56.9517 40.366 57.4647 40.582 58.3129L42.7184 66.7043C43.9328 65.855 45.078 64.8946 46.1386 63.8351C51.1086 58.8651 53.8057 51.983 53.5372 44.9541C53.5039 44.0795 54.1859 43.3435 55.0604 43.31C55.9335 43.2731 56.6712 43.9587 56.7047 44.8332C57.0062 52.741 53.9719 60.4842 48.3792 66.0769C46.6163 67.8381 44.6443 69.356 42.5176 70.5889C42.2732 70.7307 41.9986 70.8025 41.7231 70.8025Z" fill="#2D2439"/>
</g>
<defs>
<clipPath id="clip0_2008_87">
<rect width="66" height="66" fill="white" transform="translate(6 7)"/>
</clipPath>
</defs>
</svg>
