<svg width="33" height="18" viewBox="0 0 33 18" fill="none" xmlns="http://www.w3.org/2000/svg">
<path d="M3.51023 16.4182L0.511883 2.3942C0.32462 1.51832 1.29477 0.856893 2.04168 1.35121L9.3973 6.21925C9.80424 6.48857 10.3461 6.42484 10.6795 6.06845L15.5623 0.848334C15.98 0.401741 16.6972 0.431342 17.0767 0.910841L21.1004 5.99464C21.4131 6.3896 21.9706 6.49041 22.4017 6.2299L30.7333 1.19545C31.483 0.742437 32.4115 1.40383 32.2284 2.2604L29.2014 16.4182C29.0042 17.3407 28.189 18 27.2456 18H5.46603C4.5226 18 3.70748 17.3407 3.51023 16.4182Z" fill="url(#paint0_linear_4393_308)"/>
<defs>
<linearGradient id="paint0_linear_4393_308" x1="16.3558" y1="0" x2="16.3558" y2="18" gradientUnits="userSpaceOnUse">
<stop stop-color="white"/>
<stop offset="1" stop-color="#767676"/>
</linearGradient>
</defs>
</svg>
