<svg width="112" height="113" viewBox="0 0 112 113" fill="none" xmlns="http://www.w3.org/2000/svg">
<path d="M90.6282 46.4572L41.5298 76.0645C40.6111 76.6162 39.4189 76.3183 38.872 75.3913L19.9501 43.4446C19.4032 42.5176 19.6986 41.3148 20.6173 40.763L69.7157 11.1557C70.6345 10.6039 71.8267 10.9019 72.3736 11.8288L91.2954 43.7756C91.8533 44.7026 91.547 45.9054 90.6282 46.4572Z" fill="#A8DF62"/>
<path d="M23.168 48.8649L75.6041 17.248L83.3752 30.3675L30.9393 61.9842L23.168 48.8649Z" fill="#C1FF72"/>
<path d="M94.3578 102.12H14.7656C12.6219 102.12 10.8828 100.365 10.8828 98.2021V40.4331C10.8828 38.2702 12.6219 36.5156 14.7656 36.5156H94.3469C96.4906 36.5156 98.2297 38.2702 98.2297 40.4331V98.2132C98.2406 100.376 96.5016 102.12 94.3578 102.12Z" fill="#CDAFEF"/>
<path d="M98.2414 98.2132V73.1523L66.1836 76.8933L84.8758 102.12H94.3477C96.5023 102.12 98.2414 100.376 98.2414 98.2132Z" fill="#2D2439"/>
<path d="M74.7359 80.7781H99.1703C100.242 80.7781 101.106 79.9063 101.106 78.8249V59.8224C101.106 58.7409 100.242 57.8691 99.1703 57.8691H74.7359C68.4687 57.8691 63.3828 63.0005 63.3828 69.3236C63.3828 75.6468 68.4687 80.7781 74.7359 80.7781Z" fill="#FFEBEE"/>
<path d="M69.1914 69.3222C69.1914 70.6187 69.7019 71.8621 70.6106 72.7789C71.5192 73.6957 72.7517 74.2107 74.0367 74.2107C75.3218 74.2107 76.5542 73.6957 77.4629 72.7789C78.3715 71.8621 78.882 70.6187 78.882 69.3222C78.882 68.0256 78.3715 66.7822 77.4629 65.8654C76.5542 64.9486 75.3218 64.4336 74.0367 64.4336C72.7517 64.4336 71.5192 64.9486 70.6106 65.8654C69.7019 66.7822 69.1914 68.0256 69.1914 69.3222Z" fill="#CDAFEF"/>
<path d="M14.7656 36.5156C12.6219 36.5156 10.8828 38.2702 10.8828 40.4331V98.2132C10.8828 100.376 12.6219 102.131 14.7656 102.131H27.0594V36.5156H14.7656Z" fill="#2D2439"/>
</svg>
