<svg xmlns="http://www.w3.org/2000/svg" xmlns:xlink="http://www.w3.org/1999/xlink" viewBox="0 0 1000 1000" width="1000" height="1000" preserveAspectRatio="xMidYMid meet" style="width: 100%; height: 100%; transform: translate3d(0px, 0px, 0px); content-visibility: visible;"><defs><clipPath id="__lottie_element_2"><rect width="1000" height="1000" x="0" y="0"></rect></clipPath><g id="__lottie_element_9"><g transform="matrix(1,0,0,1,500,492)" opacity="1" style="display: block;"><g opacity="1" transform="matrix(1,0,0,1,3.558000087738037,-433.8420104980469)"><path fill="rgb(26,45,96)" fill-opacity="1" d=" M127.55850219726562,-77.84149932861328 C127.55850219726562,-77.84149932861328 127.55850219726562,77.84149932861328 127.55850219726562,77.84149932861328 C127.55850219726562,77.84149932861328 -127.55850219726562,77.84149932861328 -127.55850219726562,77.84149932861328 C-127.55850219726562,77.84149932861328 -127.55850219726562,-77.84149932861328 -127.55850219726562,-77.84149932861328 C-127.55850219726562,-77.84149932861328 127.55850219726562,-77.84149932861328 127.55850219726562,-77.84149932861328z"></path></g></g></g><linearGradient id="__lottie_element_15" spreadMethod="pad" gradientUnits="userSpaceOnUse" x1="84.72200012207031" y1="-106.28800201416016" x2="-70.98600006103516" y2="92.18599700927734"><stop offset="0%" stop-color="rgb(222,251,210)"></stop><stop offset="25%" stop-color="rgb(124,247,207)"></stop><stop offset="100%" stop-color="rgb(27,242,203)"></stop></linearGradient><linearGradient id="__lottie_element_19" spreadMethod="pad" gradientUnits="userSpaceOnUse" x1="-309.1929931640625" y1="-413.25799560546875" x2="-522.6179809570312" y2="-5.199999809265137"><stop offset="0%" stop-color="rgb(222,251,210)"></stop><stop offset="30%" stop-color="rgb(225,252,177)"></stop><stop offset="100%" stop-color="rgb(228,253,145)"></stop></linearGradient><filter id="__lottie_element_23" filterUnits="objectBoundingBox" x="0%" y="0%" width="100%" height="100%"><feComponentTransfer in="SourceGraphic"><feFuncA type="table" tableValues="1.0 0.0"></feFuncA></feComponentTransfer></filter><mask id="__lottie_element_9_2" mask-type="alpha"><g filter="url(#__lottie_element_23)"><rect width="1000" height="1000" x="0" y="0" fill="#ffffff" opacity="0"></rect><use xlink:href="#__lottie_element_9"></use></g></mask></defs><g clip-path="url(#__lottie_element_2)"><g transform="matrix(1,0,0,1,481.6499938964844,654.8980102539062)" opacity="1" style="display: block;"><g opacity="1" transform="matrix(1,0,0,1,0,0)"><path fill="rgb(149,126,242)" fill-opacity="1" d=" M243.381591796875,172.68092346191406 C243.381591796875,172.68092346191406 -224.03700256347656,225.9759979248047 -224.03700256347656,225.9759979248047 C-240.15199279785156,228.65199279785156 -254.81500244140625,216.22300720214844 -254.81500244140625,199.88800048828125 C-254.81500244140625,199.88800048828125 -254.81500244140625,-146.46099853515625 -254.81500244140625,-146.46099853515625 C-254.81500244140625,-146.46099853515625 234.71759033203125,-203.42807006835938 234.71759033203125,-203.42807006835938 C250.8325958251953,-206.10406494140625 265.49560546875,-193.67506408691406 265.49560546875,-177.34007263183594 C265.49560546875,-177.34007263183594 265.49560546875,146.59292602539062 265.49560546875,146.59292602539062 C265.49560546875,159.5259246826172 256.1405944824219,170.5619354248047 243.381591796875,172.68092346191406z"></path><path stroke-linecap="butt" stroke-linejoin="miter" fill-opacity="0" stroke-miterlimit="10" stroke="rgb(32,15,81)" stroke-opacity="1" stroke-width="2.883" d=" M243.381591796875,172.68092346191406 C243.381591796875,172.68092346191406 -224.03700256347656,225.9759979248047 -224.03700256347656,225.9759979248047 C-240.15199279785156,228.65199279785156 -254.81500244140625,216.22300720214844 -254.81500244140625,199.88800048828125 C-254.81500244140625,199.88800048828125 -254.81500244140625,-146.46099853515625 -254.81500244140625,-146.46099853515625 C-254.81500244140625,-146.46099853515625 234.71759033203125,-203.42807006835938 234.71759033203125,-203.42807006835938 C250.8325958251953,-206.10406494140625 265.49560546875,-193.67506408691406 265.49560546875,-177.34007263183594 C265.49560546875,-177.34007263183594 265.49560546875,146.59292602539062 265.49560546875,146.59292602539062 C265.49560546875,159.5259246826172 256.1405944824219,170.5619354248047 243.381591796875,172.68092346191406z"></path></g></g><g mask="url(#__lottie_element_9_2)" style="display: block;"><g transform="matrix(1,0,0,1,-0.165008544921875,-348.157470703125)" opacity="1"><g opacity="1" transform="matrix(1,0,0,1,498.64898681640625,444.5769958496094)"><path fill="rgb(27,242,203)" fill-opacity="1" d=" M116.49800109863281,0 C116.49800109863281,62.62300109863281 64.33999633789062,113.38899993896484 0,113.38899993896484 C-64.33999633789062,113.38899993896484 -116.49800109863281,62.62300109863281 -116.49800109863281,0 C-116.49800109863281,-62.62300109863281 -64.33999633789062,-113.38899993896484 0,-113.38899993896484 C64.33999633789062,-113.38899993896484 116.49800109863281,-62.62300109863281 116.49800109863281,0z"></path><path stroke-linecap="butt" stroke-linejoin="miter" fill-opacity="0" stroke-miterlimit="10" stroke="rgb(32,15,81)" stroke-opacity="1" stroke-width="2" d=" M116.49800109863281,0 C116.49800109863281,62.62300109863281 64.33999633789062,113.38899993896484 0,113.38899993896484 C-64.33999633789062,113.38899993896484 -116.49800109863281,62.62300109863281 -116.49800109863281,0 C-116.49800109863281,-62.62300109863281 -64.33999633789062,-113.38899993896484 0,-113.38899993896484 C64.33999633789062,-113.38899993896484 116.49800109863281,-62.62300109863281 116.49800109863281,0z"></path></g><g opacity="1" transform="matrix(1,0,0,1,0,0)"><g opacity="1" transform="matrix(1,0,0,1,510.2879943847656,444.57598876953125)"><path fill="rgb(27,242,203)" fill-opacity="1" d=" M107.89199829101562,0.004999999888241291 C107.89199829101562,24.190000534057617 100.68900299072266,46.6150016784668 88.4000015258789,65.0250015258789 C68.88800048828125,94.26899719238281 36.57400131225586,113.38700103759766 0,113.38700103759766 C-59.5890007019043,113.38700103759766 -107.89199829101562,62.624000549316406 -107.89199829101562,0.004999999888241291 C-107.89199829101562,-28.04800033569336 -98.20999908447266,-53.69900131225586 -82.16100311279297,-73.49700164794922 C-62.374000549316406,-97.90899658203125 -32.90399932861328,-113.38700103759766 0,-113.38700103759766 C59.5890007019043,-113.38700103759766 107.89199829101562,-62.625 107.89199829101562,0.004999999888241291z"></path><path stroke-linecap="butt" stroke-linejoin="miter" fill-opacity="0" stroke-miterlimit="10" stroke="rgb(32,15,81)" stroke-opacity="1" stroke-width="2" d=" M107.89199829101562,0.004999999888241291 C107.89199829101562,24.190000534057617 100.68900299072266,46.6150016784668 88.4000015258789,65.0250015258789 C68.88800048828125,94.26899719238281 36.57400131225586,113.38700103759766 0,113.38700103759766 C-59.5890007019043,113.38700103759766 -107.89199829101562,62.624000549316406 -107.89199829101562,0.004999999888241291 C-107.89199829101562,-28.04800033569336 -98.20999908447266,-53.69900131225586 -82.16100311279297,-73.49700164794922 C-62.374000549316406,-97.90899658203125 -32.90399932861328,-113.38700103759766 0,-113.38700103759766 C59.5890007019043,-113.38700103759766 107.89199829101562,-62.625 107.89199829101562,0.004999999888241291z"></path></g><g opacity="1" transform="matrix(1,0,0,1,0,0)"><g opacity="1" transform="matrix(1,0,0,1,521.7169799804688,433.9070129394531)"><path fill="rgb(27,224,188)" fill-opacity="1" d=" M71.39800262451172,10.673999786376953 C71.39800262451172,36.90299987792969 60.35300064086914,60.43199920654297 42.875,76.38099670410156 C57.00199890136719,60.77000045776367 65.63999938964844,39.66899871826172 65.63999938964844,16.43199920654297 C65.63999938964844,-31.638999938964844 28.54599952697754,-70.62200164794922 -17.20800018310547,-70.62200164794922 C-37.948001861572266,-70.62200164794922 -56.888999938964844,-62.61399841308594 -71.39800262451172,-49.387001037597656 C-56.30400085449219,-66.01100158691406 -35.02399826049805,-76.38099670410156 -11.427000045776367,-76.38099670410156 C34.30500030517578,-76.38099670410156 71.39800262451172,-37.39699935913086 71.39800262451172,10.673999786376953z"></path></g><g opacity="1" transform="matrix(1,0,0,1,0,0)"><g opacity="1" transform="matrix(1,0,0,1,510.2860107421875,344.0690002441406)"><path stroke-linecap="butt" stroke-linejoin="miter" fill-opacity="0" stroke-miterlimit="10" stroke="rgb(42,160,137)" stroke-opacity="1" stroke-width="1.968" d=" M0,-7.458000183105469 C0,-7.458000183105469 0,7.458000183105469 0,7.458000183105469"></path></g><g opacity="1" transform="matrix(1,0,0,1,491.0249938964844,346.1289978027344)"><path stroke-linecap="butt" stroke-linejoin="miter" fill-opacity="0" stroke-miterlimit="10" stroke="rgb(42,160,137)" stroke-opacity="1" stroke-width="1.968" d=" M-1.4290000200271606,-7.304999828338623 C-1.4290000200271606,-7.304999828338623 1.4290000200271606,7.304999828338623 1.4290000200271606,7.304999828338623"></path></g><g opacity="1" transform="matrix(1,0,0,1,472.5530090332031,352.2229919433594)"><path stroke-linecap="butt" stroke-linejoin="miter" fill-opacity="0" stroke-miterlimit="10" stroke="rgb(42,160,137)" stroke-opacity="1" stroke-width="1.968" d=" M-2.799999952316284,-6.853000164031982 C-2.799999952316284,-6.853000164031982 2.799999952316284,6.853000164031982 2.799999952316284,6.853000164031982"></path></g><g opacity="1" transform="matrix(1,0,0,1,455.62701416015625,362.1029968261719)"><path stroke-linecap="butt" stroke-linejoin="miter" fill-opacity="0" stroke-miterlimit="10" stroke="rgb(42,160,137)" stroke-opacity="1" stroke-width="1.968" d=" M-4.056000232696533,-6.11899995803833 C-4.056000232696533,-6.11899995803833 4.056000232696533,6.11899995803833 4.056000232696533,6.11899995803833"></path></g><g opacity="1" transform="matrix(1,0,0,1,440.9419860839844,375.3630065917969)"><path stroke-linecap="butt" stroke-linejoin="miter" fill-opacity="0" stroke-miterlimit="10" stroke="rgb(42,160,137)" stroke-opacity="1" stroke-width="1.968" d=" M-5.144999980926514,-5.136000156402588 C-5.144999980926514,-5.136000156402588 5.144999980926514,5.136000156402588 5.144999980926514,5.136000156402588"></path></g><g opacity="1" transform="matrix(1,0,0,1,429.0989990234375,391.4599914550781)"><path stroke-linecap="butt" stroke-linejoin="miter" fill-opacity="0" stroke-miterlimit="10" stroke="rgb(42,160,137)" stroke-opacity="1" stroke-width="1.968" d=" M-6.02400016784668,-3.940999984741211 C-6.02400016784668,-3.940999984741211 6.02400016784668,3.940999984741211 6.02400016784668,3.940999984741211"></path></g><g opacity="1" transform="matrix(1,0,0,1,420.5830078125,409.7340087890625)"><path stroke-linecap="butt" stroke-linejoin="miter" fill-opacity="0" stroke-miterlimit="10" stroke="rgb(42,160,137)" stroke-opacity="1" stroke-width="1.968" d=" M-6.656000137329102,-2.5850000381469727 C-6.656000137329102,-2.5850000381469727 6.656000137329102,2.5850000381469727 6.656000137329102,2.5850000381469727"></path></g><g opacity="1" transform="matrix(1,0,0,1,415.7439880371094,429.4360046386719)"><path stroke-linecap="butt" stroke-linejoin="miter" fill-opacity="0" stroke-miterlimit="10" stroke="rgb(42,160,137)" stroke-opacity="1" stroke-width="1.968" d=" M-7.014999866485596,-1.1230000257492065 C-7.014999866485596,-1.1230000257492065 7.014999866485596,1.1230000257492065 7.014999866485596,1.1230000257492065"></path></g><g opacity="1" transform="matrix(1,0,0,1,414.7799987792969,449.7590026855469)"><path stroke-linecap="butt" stroke-linejoin="miter" fill-opacity="0" stroke-miterlimit="10" stroke="rgb(42,160,137)" stroke-opacity="1" stroke-width="1.968" d=" M-7.085999965667725,0.38499999046325684 C-7.085999965667725,0.38499999046325684 7.085999965667725,-0.38499999046325684 7.085999965667725,-0.38499999046325684"></path></g><g opacity="1" transform="matrix(1,0,0,1,417.7300109863281,469.8689880371094)"><path stroke-linecap="butt" stroke-linejoin="miter" fill-opacity="0" stroke-miterlimit="10" stroke="rgb(42,160,137)" stroke-opacity="1" stroke-width="1.968" d=" M-6.868000030517578,1.8769999742507935 C-6.868000030517578,1.8769999742507935 6.868000030517578,-1.8769999742507935 6.868000030517578,-1.8769999742507935"></path></g><g opacity="1" transform="matrix(1,0,0,1,424.4739990234375,488.9429931640625)"><path stroke-linecap="butt" stroke-linejoin="miter" fill-opacity="0" stroke-miterlimit="10" stroke="rgb(42,160,137)" stroke-opacity="1" stroke-width="1.968" d=" M-6.367000102996826,3.2920000553131104 C-6.367000102996826,3.2920000553131104 6.367000102996826,-3.2920000553131104 6.367000102996826,-3.2920000553131104"></path></g><g opacity="1" transform="matrix(1,0,0,1,434.7349853515625,506.197998046875)"><path stroke-linecap="butt" stroke-linejoin="miter" fill-opacity="0" stroke-miterlimit="10" stroke="rgb(42,160,137)" stroke-opacity="1" stroke-width="1.968" d=" M-5.605999946594238,4.572000026702881 C-5.605999946594238,4.572000026702881 5.605999946594238,-4.572000026702881 5.605999946594238,-4.572000026702881"></path></g><g opacity="1" transform="matrix(1,0,0,1,448.0920104980469,520.927978515625)"><path stroke-linecap="butt" stroke-linejoin="miter" fill-opacity="0" stroke-miterlimit="10" stroke="rgb(42,160,137)" stroke-opacity="1" stroke-width="1.968" d=" M-4.614999771118164,5.664999961853027 C-4.614999771118164,5.664999961853027 4.614999771118164,-5.664999961853027 4.614999771118164,-5.664999961853027"></path></g><g opacity="1" transform="matrix(1,0,0,1,463.9989929199219,532.5280151367188)"><path stroke-linecap="butt" stroke-linejoin="miter" fill-opacity="0" stroke-miterlimit="10" stroke="rgb(42,160,137)" stroke-opacity="1" stroke-width="1.968" d=" M-3.434000015258789,6.526000022888184 C-3.434000015258789,6.526000022888184 3.434000015258789,-6.526000022888184 3.434000015258789,-6.526000022888184"></path></g><g opacity="1" transform="matrix(1,0,0,1,481.8030090332031,540.5230102539062)"><path stroke-linecap="butt" stroke-linejoin="miter" fill-opacity="0" stroke-miterlimit="10" stroke="rgb(42,160,137)" stroke-opacity="1" stroke-width="1.968" d=" M-2.11299991607666,7.11899995803833 C-2.11299991607666,7.11899995803833 2.11299991607666,-7.11899995803833 2.11299991607666,-7.11899995803833"></path></g><g opacity="1" transform="matrix(1,0,0,1,500.77398681640625,544.5869750976562)"><path stroke-linecap="butt" stroke-linejoin="miter" fill-opacity="0" stroke-miterlimit="10" stroke="rgb(42,160,137)" stroke-opacity="1" stroke-width="1.968" d=" M-0.7059999704360962,7.421000003814697 C-0.7059999704360962,7.421000003814697 0.7059999704360962,-7.421000003814697 0.7059999704360962,-7.421000003814697"></path></g><g opacity="1" transform="matrix(1,0,0,1,520.135009765625,544.551025390625)"><path stroke-linecap="butt" stroke-linejoin="miter" fill-opacity="0" stroke-miterlimit="10" stroke="rgb(42,160,137)" stroke-opacity="1" stroke-width="1.968" d=" M0.7310000061988831,7.418000221252441 C0.7310000061988831,7.418000221252441 -0.7310000061988831,-7.418000221252441 -0.7310000061988831,-7.418000221252441"></path></g><g opacity="1" transform="matrix(1,0,0,1,539.0919799804688,540.4169921875)"><path stroke-linecap="butt" stroke-linejoin="miter" fill-opacity="0" stroke-miterlimit="10" stroke="rgb(42,160,137)" stroke-opacity="1" stroke-width="1.968" d=" M2.13700008392334,7.111000061035156 C2.13700008392334,7.111000061035156 -2.13700008392334,-7.111000061035156 -2.13700008392334,-7.111000061035156"></path></g><g opacity="1" transform="matrix(1,0,0,1,556.8690185546875,532.3560180664062)"><path stroke-linecap="butt" stroke-linejoin="miter" fill-opacity="0" stroke-miterlimit="10" stroke="rgb(42,160,137)" stroke-opacity="1" stroke-width="1.968" d=" M3.4560000896453857,6.513000011444092 C3.4560000896453857,6.513000011444092 -3.4560000896453857,-6.513000011444092 -3.4560000896453857,-6.513000011444092"></path></g><g opacity="1" transform="matrix(1,0,0,1,572.7369995117188,520.6959838867188)"><path stroke-linecap="butt" stroke-linejoin="miter" fill-opacity="0" stroke-miterlimit="10" stroke="rgb(42,160,137)" stroke-opacity="1" stroke-width="1.968" d=" M4.633999824523926,5.6479997634887695 C4.633999824523926,5.6479997634887695 -4.633999824523926,-5.6479997634887695 -4.633999824523926,-5.6479997634887695"></path></g><g opacity="1" transform="matrix(1,0,0,1,586.0440063476562,505.9169921875)"><path stroke-linecap="butt" stroke-linejoin="miter" fill-opacity="0" stroke-miterlimit="10" stroke="rgb(42,160,137)" stroke-opacity="1" stroke-width="1.968" d=" M5.620999813079834,4.551000118255615 C5.620999813079834,4.551000118255615 -5.620999813079834,-4.551000118255615 -5.620999813079834,-4.551000118255615"></path></g><g opacity="1" transform="matrix(1,0,0,1,596.2470092773438,488.6239929199219)"><path stroke-linecap="butt" stroke-linejoin="miter" fill-opacity="0" stroke-miterlimit="10" stroke="rgb(42,160,137)" stroke-opacity="1" stroke-width="1.968" d=" M6.377999782562256,3.2679998874664307 C6.377999782562256,3.2679998874664307 -6.377999782562256,-3.2679998874664307 -6.377999782562256,-3.2679998874664307"></path></g><g opacity="1" transform="matrix(1,0,0,1,602.927001953125,469.5260009765625)"><path stroke-linecap="butt" stroke-linejoin="miter" fill-opacity="0" stroke-miterlimit="10" stroke="rgb(42,160,137)" stroke-opacity="1" stroke-width="1.968" d=" M6.874000072479248,1.8509999513626099 C6.874000072479248,1.8509999513626099 -6.874000072479248,-1.8509999513626099 -6.874000072479248,-1.8509999513626099"></path></g><g opacity="1" transform="matrix(1,0,0,1,605.8099975585938,449.4049987792969)"><path stroke-linecap="butt" stroke-linejoin="miter" fill-opacity="0" stroke-miterlimit="10" stroke="rgb(42,160,137)" stroke-opacity="1" stroke-width="1.968" d=" M7.0879998207092285,0.3580000102519989 C7.0879998207092285,0.3580000102519989 -7.0879998207092285,-0.3580000102519989 -7.0879998207092285,-0.3580000102519989"></path></g><g opacity="1" transform="matrix(1,0,0,1,604.7769775390625,429.08599853515625)"><path stroke-linecap="butt" stroke-linejoin="miter" fill-opacity="0" stroke-miterlimit="10" stroke="rgb(42,160,137)" stroke-opacity="1" stroke-width="1.968" d=" M7.011000156402588,-1.1490000486373901 C7.011000156402588,-1.1490000486373901 -7.011000156402588,1.1490000486373901 -7.011000156402588,1.1490000486373901"></path></g><g opacity="1" transform="matrix(1,0,0,1,599.8720092773438,409.4020080566406)"><path stroke-linecap="butt" stroke-linejoin="miter" fill-opacity="0" stroke-miterlimit="10" stroke="rgb(42,160,137)" stroke-opacity="1" stroke-width="1.968" d=" M6.646999835968018,-2.609999895095825 C6.646999835968018,-2.609999895095825 -6.646999835968018,2.609999895095825 -6.646999835968018,2.609999895095825"></path></g><g opacity="1" transform="matrix(1,0,0,1,591.2949829101562,391.1600036621094)"><path stroke-linecap="butt" stroke-linejoin="miter" fill-opacity="0" stroke-miterlimit="10" stroke="rgb(42,160,137)" stroke-opacity="1" stroke-width="1.968" d=" M6.011000156402588,-3.9639999866485596 C6.011000156402588,-3.9639999866485596 -6.011000156402588,3.9639999866485596 -6.011000156402588,3.9639999866485596"></path></g><g opacity="1" transform="matrix(1,0,0,1,579.3980102539062,375.10699462890625)"><path stroke-linecap="butt" stroke-linejoin="miter" fill-opacity="0" stroke-miterlimit="10" stroke="rgb(42,160,137)" stroke-opacity="1" stroke-width="1.968" d=" M5.127999782562256,-5.15500020980835 C5.127999782562256,-5.15500020980835 -5.127999782562256,5.15500020980835 -5.127999782562256,5.15500020980835"></path></g><g opacity="1" transform="matrix(1,0,0,1,564.6680297851562,361.9010009765625)"><path stroke-linecap="butt" stroke-linejoin="miter" fill-opacity="0" stroke-miterlimit="10" stroke="rgb(42,160,137)" stroke-opacity="1" stroke-width="1.968" d=" M4.034999847412109,-6.133999824523926 C4.034999847412109,-6.133999824523926 -4.034999847412109,6.133999824523926 -4.034999847412109,6.133999824523926"></path></g><g opacity="1" transform="matrix(1,0,0,1,547.7100219726562,352.0840148925781)"><path stroke-linecap="butt" stroke-linejoin="miter" fill-opacity="0" stroke-miterlimit="10" stroke="rgb(42,160,137)" stroke-opacity="1" stroke-width="1.968" d=" M2.7769999504089355,-6.86299991607666 C2.7769999504089355,-6.86299991607666 -2.7769999504089355,6.86299991607666 -2.7769999504089355,6.86299991607666"></path></g><g opacity="1" transform="matrix(1,0,0,1,529.2169799804688,346.0580139160156)"><path stroke-linecap="butt" stroke-linejoin="miter" fill-opacity="0" stroke-miterlimit="10" stroke="rgb(42,160,137)" stroke-opacity="1" stroke-width="1.968" d=" M1.4049999713897705,-7.309999942779541 C1.4049999713897705,-7.309999942779541 -1.4049999713897705,7.309999942779541 -1.4049999713897705,7.309999942779541"></path></g></g></g></g></g></g><g transform="matrix(1,0,0,1,0,-8)" opacity="1" style="display: block;"><g opacity="1" transform="matrix(1,0,0,1,0,0)"><g opacity="1" transform="matrix(1,0,0,1,500.1650085449219,705.2109985351562)"><g opacity="1" transform="matrix(1,0,0,1,0,0)"><path fill="rgb(108,61,187)" fill-opacity="1" d=" M273.3269958496094,-169.10299682617188 C273.3269958496094,-169.10299682617188 273.3269958496094,169.10299682617188 273.3269958496094,169.10299682617188 C273.3269958496094,179.96200561523438 264.5159912109375,188.77200317382812 253.65699768066406,188.77200317382812 C253.65699768066406,188.77200317382812 -253.65699768066406,188.77200317382812 -253.65699768066406,188.77200317382812 C-264.52801513671875,188.77200317382812 -273.3269958496094,179.96200561523438 -273.3269958496094,169.10299682617188 C-273.3269958496094,169.10299682617188 -273.3269958496094,-188.77200317382812 -273.3269958496094,-188.77200317382812 C-273.3269958496094,-188.77200317382812 253.65699768066406,-188.77200317382812 253.65699768066406,-188.77200317382812 C264.5159912109375,-188.77200317382812 273.3269958496094,-179.96299743652344 273.3269958496094,-169.10299682617188z"></path></g></g><g opacity="1" transform="matrix(1,0,0,1,480.8320007324219,706.5059814453125)"><path stroke-linecap="butt" stroke-linejoin="miter" fill-opacity="0" stroke-miterlimit="10" stroke="rgb(32,15,81)" stroke-opacity="1" stroke-width="2" d=" M253.99600219726562,0 C253.99600219726562,0 -253.99600219726562,0 -253.99600219726562,0"></path></g><g opacity="1" transform="matrix(1,0,0,1,531.7880249023438,606.1329956054688)"><path fill="rgb(116,71,187)" fill-opacity="1" d=" M241.7030029296875,-70.0250015258789 C241.7030029296875,-70.0250015258789 241.7030029296875,89.69499969482422 241.7030029296875,89.69499969482422 C189.61700439453125,62.04899978637695 124.86599731445312,14.48900032043457 41.83399963378906,-22.812999725341797 C-24.052000045776367,-52.428001403808594 -116.9469985961914,-82.54000091552734 -241.7030029296875,-89.69499969482422 C-241.7030029296875,-89.69499969482422 222.03399658203125,-89.69499969482422 222.03399658203125,-89.69499969482422 C232.89300537109375,-89.69499969482422 241.7030029296875,-80.88500213623047 241.7030029296875,-70.0250015258789z"></path></g><g opacity="1" transform="matrix(1,0,0,1,500.1650085449219,705.2109985351562)"><path stroke-linecap="butt" stroke-linejoin="miter" fill-opacity="0" stroke-miterlimit="10" stroke="rgb(32,15,81)" stroke-opacity="1" stroke-width="2" d=" M273.3269958496094,-169.10299682617188 C273.3269958496094,-169.10299682617188 273.3269958496094,169.10299682617188 273.3269958496094,169.10299682617188 C273.3269958496094,179.96200561523438 264.5159912109375,188.77200317382812 253.65699768066406,188.77200317382812 C253.65699768066406,188.77200317382812 -253.65699768066406,188.77200317382812 -253.65699768066406,188.77200317382812 C-264.52801513671875,188.77200317382812 -273.3269958496094,179.96200561523438 -273.3269958496094,169.10299682617188 C-273.3269958496094,169.10299682617188 -273.3269958496094,-188.77200317382812 -273.3269958496094,-188.77200317382812 C-273.3269958496094,-188.77200317382812 253.65699768066406,-188.77200317382812 253.65699768066406,-188.77200317382812 C264.5159912109375,-188.77200317382812 273.3269958496094,-179.96299743652344 273.3269958496094,-169.10299682617188z"></path></g></g><g opacity="1" transform="matrix(1,0,0,1,0,0)"><g opacity="1" transform="matrix(1,0,0,1,672.0700073242188,713.1439819335938)" style="mix-blend-mode: multiply;"><path fill="rgb(54,200,237)" fill-opacity="1" d=" M102.76499938964844,47.67300033569336 C102.76499938964844,47.67300033569336 -102.76499938964844,47.67300033569336 -102.76499938964844,47.67300033569336 C-107.88300323486328,47.67300033569336 -112.03299713134766,43.52399826049805 -112.03299713134766,38.40599822998047 C-112.03299713134766,38.40599822998047 -112.03299713134766,-38.40599822998047 -112.03299713134766,-38.40599822998047 C-112.03299713134766,-43.52399826049805 -107.88300323486328,-47.67300033569336 -102.76499938964844,-47.67300033569336 C-102.76499938964844,-47.67300033569336 102.76499938964844,-47.67300033569336 102.76499938964844,-47.67300033569336 C107.88300323486328,-47.67300033569336 112.03299713134766,-43.52399826049805 112.03299713134766,-38.40599822998047 C112.03299713134766,-38.40599822998047 112.03299713134766,38.40599822998047 112.03299713134766,38.40599822998047 C112.03299713134766,43.52399826049805 107.88300323486328,47.67300033569336 102.76499938964844,47.67300033569336z"></path></g><g opacity="1" transform="matrix(1,0,0,1,677.3590087890625,705.2100219726562)"><path fill="url(#__lottie_element_15)" fill-opacity="1" d=" M102.76499938964844,47.67300033569336 C102.76499938964844,47.67300033569336 -102.76499938964844,47.67300033569336 -102.76499938964844,47.67300033569336 C-107.88300323486328,47.67300033569336 -112.03299713134766,43.52399826049805 -112.03299713134766,38.40599822998047 C-112.03299713134766,38.40599822998047 -112.03299713134766,-38.40599822998047 -112.03299713134766,-38.40599822998047 C-112.03299713134766,-43.52399826049805 -107.88300323486328,-47.67300033569336 -102.76499938964844,-47.67300033569336 C-102.76499938964844,-47.67300033569336 102.76499938964844,-47.67300033569336 102.76499938964844,-47.67300033569336 C107.88300323486328,-47.67300033569336 112.03299713134766,-43.52399826049805 112.03299713134766,-38.40599822998047 C112.03299713134766,-38.40599822998047 112.03299713134766,38.40599822998047 112.03299713134766,38.40599822998047 C112.03299713134766,43.52399826049805 107.88300323486328,47.67300033569336 102.76499938964844,47.67300033569336z"></path><path stroke-linecap="butt" stroke-linejoin="miter" fill-opacity="0" stroke-miterlimit="10" stroke="rgb(32,15,81)" stroke-opacity="1" stroke-width="2.315" d=" M102.76499938964844,47.67300033569336 C102.76499938964844,47.67300033569336 -102.76499938964844,47.67300033569336 -102.76499938964844,47.67300033569336 C-107.88300323486328,47.67300033569336 -112.03299713134766,43.52399826049805 -112.03299713134766,38.40599822998047 C-112.03299713134766,38.40599822998047 -112.03299713134766,-38.40599822998047 -112.03299713134766,-38.40599822998047 C-112.03299713134766,-43.52399826049805 -107.88300323486328,-47.67300033569336 -102.76499938964844,-47.67300033569336 C-102.76499938964844,-47.67300033569336 102.76499938964844,-47.67300033569336 102.76499938964844,-47.67300033569336 C107.88300323486328,-47.67300033569336 112.03299713134766,-43.52399826049805 112.03299713134766,-38.40599822998047 C112.03299713134766,-38.40599822998047 112.03299713134766,38.40599822998047 112.03299713134766,38.40599822998047 C112.03299713134766,43.52399826049805 107.88300323486328,47.67300033569336 102.76499938964844,47.67300033569336z"></path></g><g opacity="1" transform="matrix(1,0,0,1,751.9110107421875,706.5059814453125)"><path fill="rgb(30,20,54)" fill-opacity="1" d=" M17.08300018310547,0 C17.08300018310547,9.4350004196167 9.4350004196167,17.08300018310547 0,17.08300018310547 C-9.4350004196167,17.08300018310547 -17.08300018310547,9.4350004196167 -17.08300018310547,0 C-17.08300018310547,-9.4350004196167 -9.4350004196167,-17.08300018310547 0,-17.08300018310547 C9.4350004196167,-17.08300018310547 17.08300018310547,-9.4350004196167 17.08300018310547,0z"></path></g></g></g><g transform="matrix(1,0,0,1,0,151.86697387695312)" opacity="1" style="display: block;"><g opacity="1" transform="matrix(1,0,0,1,310.6600036621094,370.7330017089844)"><path fill="url(#__lottie_element_19)" fill-opacity="1" d=" M0.5436638593673706,-279.0123291015625 C0.5436638593673706,-279.0123291015625 -132.1973419189453,-108.60334014892578 -132.1973419189453,-108.60334014892578 C-132.1973419189453,-108.60334014892578 -73.68333435058594,-108.60334014892578 -73.68333435058594,-108.60334014892578 C-73.68333435058594,-108.60334014892578 -74.22699737548828,180.54800415039062 -74.22699737548828,180.54800415039062 C-74.22699737548828,180.54800415039062 74.22699737548828,180.54800415039062 74.22699737548828,180.54800415039062 C74.22699737548828,180.54800415039062 74.77066040039062,-108.60334014892578 74.77066040039062,-108.60334014892578 C74.77066040039062,-108.60334014892578 133.28466796875,-108.60334014892578 133.28466796875,-108.60334014892578 C133.28466796875,-108.60334014892578 0.5436638593673706,-279.0123291015625 0.5436638593673706,-279.0123291015625z"></path><path stroke-linecap="butt" stroke-linejoin="round" fill-opacity="0" stroke="rgb(32,15,81)" stroke-opacity="1" stroke-width="3.892" d=" M0.5436638593673706,-279.0123291015625 C0.5436638593673706,-279.0123291015625 -132.1973419189453,-108.60334014892578 -132.1973419189453,-108.60334014892578 C-132.1973419189453,-108.60334014892578 -73.68333435058594,-108.60334014892578 -73.68333435058594,-108.60334014892578 C-73.68333435058594,-108.60334014892578 -74.22699737548828,180.54800415039062 -74.22699737548828,180.54800415039062 C-74.22699737548828,180.54800415039062 74.22699737548828,180.54800415039062 74.22699737548828,180.54800415039062 C74.22699737548828,180.54800415039062 74.77066040039062,-108.60334014892578 74.77066040039062,-108.60334014892578 C74.77066040039062,-108.60334014892578 133.28466796875,-108.60334014892578 133.28466796875,-108.60334014892578 C133.28466796875,-108.60334014892578 0.5436638593673706,-279.0123291015625 0.5436638593673706,-279.0123291015625z"></path></g><g opacity="1" transform="matrix(1,0,0,1,225.88699340820312,275.3900146484375)"><path fill="rgb(32,15,81)" fill-opacity="1" d=" M85.31666564941406,-183.6683349609375 C85.31666564941406,-183.6683349609375 -84.22933959960938,-13.260342597961426 -84.22933959960938,-13.260342597961426 C-84.22933959960938,-13.260342597961426 -47.42433547973633,-13.260342597961426 -47.42433547973633,-13.260342597961426 C-47.42433547973633,-13.260342597961426 85.31666564941406,-183.6683349609375 85.31666564941406,-183.6683349609375z"></path><path stroke-linecap="butt" stroke-linejoin="round" fill-opacity="0" stroke="rgb(32,15,81)" stroke-opacity="1" stroke-width="3.892" d=" M85.31666564941406,-183.6683349609375 C85.31666564941406,-183.6683349609375 -84.22933959960938,-13.260342597961426 -84.22933959960938,-13.260342597961426 C-84.22933959960938,-13.260342597961426 -47.42433547973633,-13.260342597961426 -47.42433547973633,-13.260342597961426 C-47.42433547973633,-13.260342597961426 85.31666564941406,-183.6683349609375 85.31666564941406,-183.6683349609375z"></path></g><g opacity="1" transform="matrix(1,0,0,1,221.12899780273438,455.93701171875)"><path fill="rgb(32,15,81)" fill-opacity="1" d=" M-14.761336326599121,-193.80734252929688 C-14.761336326599121,-193.80734252929688 -15.305000305175781,95.34300231933594 -15.305000305175781,95.34300231933594 C-15.305000305175781,95.34300231933594 15.305000305175781,95.34300231933594 15.305000305175781,95.34300231933594 C15.305000305175781,95.34300231933594 15.848664283752441,-193.80734252929688 15.848664283752441,-193.80734252929688 C15.848664283752441,-193.80734252929688 -14.761336326599121,-193.80734252929688 -14.761336326599121,-193.80734252929688z"></path><path stroke-linecap="butt" stroke-linejoin="round" fill-opacity="0" stroke="rgb(32,15,81)" stroke-opacity="1" stroke-width="3.892" d=" M-14.761336326599121,-193.80734252929688 C-14.761336326599121,-193.80734252929688 -15.305000305175781,95.34300231933594 -15.305000305175781,95.34300231933594 C-15.305000305175781,95.34300231933594 15.305000305175781,95.34300231933594 15.305000305175781,95.34300231933594 C15.305000305175781,95.34300231933594 15.848664283752441,-193.80734252929688 15.848664283752441,-193.80734252929688 C15.848664283752441,-193.80734252929688 -14.761336326599121,-193.80734252929688 -14.761336326599121,-193.80734252929688z"></path></g></g><g transform="matrix(1,0,0,1,504.135009765625,133.13099670410156)" opacity="1" style="display: block;"><g opacity="1" transform="matrix(1,0,0,1,0,0)"><path stroke-linecap="round" stroke-linejoin="miter" fill-opacity="0" stroke-miterlimit="10" stroke="rgb(108,61,187)" stroke-opacity="1" stroke-width="20" d=" M-149.79600524902344,0 C-149.79600524902344,0 149.79600524902344,0 149.79600524902344,0"></path></g></g></g></svg>