<svg xmlns="http://www.w3.org/2000/svg" xmlns:xlink="http://www.w3.org/1999/xlink" viewBox="0 0 1000 1000" width="1000" height="1000" preserveAspectRatio="xMidYMid meet" style="width: 100%; height: 100%; transform: translate3d(0px, 0px, 0px); content-visibility: visible;"><defs><clipPath id="__lottie_element_2"><rect width="1000" height="1000" x="0" y="0"></rect></clipPath><mask id="__lottie_element_17"><path fill="#ffffff" clip-rule="nonzero" d="M0,0  h1000 v1000 h-1000 v-1000  M643.5750122070312,417.8890075683594 C643.5750122070312,417.8890075683594 467.57501220703125,570.8889770507812 467.57501220703125,570.8889770507812 C467.57501220703125,570.8889770507812 559.5750122070312,568.8889770507812 559.5750122070312,568.8889770507812 C559.5750122070312,568.8889770507812 689.5750122070312,470.8890075683594 689.5750122070312,470.8890075683594 C689.5750122070312,470.8890075683594 643.5750122070312,417.8890075683594 643.5750122070312,417.8890075683594" fill-opacity="1"></path></mask><linearGradient id="__lottie_element_25" spreadMethod="pad" gradientUnits="userSpaceOnUse" x1="339.5400085449219" y1="-176.5800018310547" x2="-182.35699462890625" y2="162.31399536132812"><stop offset="0%" stop-color="rgb(228,253,145)"></stop><stop offset="30%" stop-color="rgb(228,253,145)"></stop><stop offset="100%" stop-color="rgb(228,253,145)"></stop></linearGradient></defs><g clip-path="url(#__lottie_element_2)"><g transform="matrix(1,0,0,1,-41.500518798828125,40.491668701171875)" opacity="1" style="display: none;"><g opacity="1" transform="matrix(1,0,0,1,212.07000732421875,514.6099853515625)"><path stroke-linecap="butt" stroke-linejoin="miter" fill-opacity="0" stroke-miterlimit="10" stroke="rgb(0,0,0)" stroke-opacity="1" stroke-width="2" d="M0 0"></path></g><g opacity="1" transform="matrix(1,0,0,1,297.73199462890625,660.0360107421875)"><path stroke-linecap="butt" stroke-linejoin="miter" fill-opacity="0" stroke-miterlimit="10" stroke="rgb(0,0,0)" stroke-opacity="1" stroke-width="2" d="M0 0"></path></g><g opacity="1" transform="matrix(1,0,0,1,442.7659912109375,729.9420166015625)"><path stroke-linecap="butt" stroke-linejoin="miter" fill-opacity="0" stroke-miterlimit="10" stroke="rgb(0,0,0)" stroke-opacity="1" stroke-width="2" d="M0 0"></path></g></g><g transform="matrix(1,0,0,1,-47.538238525390625,36.449554443359375)" opacity="1" style="display: none;"><g opacity="1" transform="matrix(1,0,0,1,212.07000732421875,514.6099853515625)"><path stroke-linecap="butt" stroke-linejoin="miter" fill-opacity="0" stroke-miterlimit="10" stroke="rgb(0,0,0)" stroke-opacity="1" stroke-width="2" d="M0 0"></path></g><g opacity="1" transform="matrix(1,0,0,1,297.73199462890625,660.0360107421875)"><path stroke-linecap="butt" stroke-linejoin="miter" fill-opacity="0" stroke-miterlimit="10" stroke="rgb(0,0,0)" stroke-opacity="1" stroke-width="2" d="M0 0"></path></g><g opacity="1" transform="matrix(1,0,0,1,442.7659912109375,729.9420166015625)"><path stroke-linecap="butt" stroke-linejoin="miter" fill-opacity="0" stroke-miterlimit="10" stroke="rgb(0,0,0)" stroke-opacity="1" stroke-width="2" d="M0 0"></path></g></g><g transform="matrix(1,0,0,1,-28.991119384765625,49.8634033203125)" opacity="1" style="display: none;"><g opacity="1" transform="matrix(1,0,0,1,212.07000732421875,514.6099853515625)"><path stroke-linecap="butt" stroke-linejoin="miter" fill-opacity="0" stroke-miterlimit="10" stroke="rgb(0,0,0)" stroke-opacity="1" stroke-width="2" d="M0 0"></path></g><g opacity="1" transform="matrix(1,0,0,1,297.73199462890625,660.0360107421875)"><path stroke-linecap="butt" stroke-linejoin="miter" fill-opacity="0" stroke-miterlimit="10" stroke="rgb(0,0,0)" stroke-opacity="1" stroke-width="2" d="M0 0"></path></g><g opacity="1" transform="matrix(1,0,0,1,442.7659912109375,729.9420166015625)"><path stroke-linecap="butt" stroke-linejoin="miter" fill-opacity="0" stroke-miterlimit="10" stroke="rgb(0,0,0)" stroke-opacity="1" stroke-width="2" d="M0 0"></path></g></g><g transform="matrix(1,0,0,1,-22.7452392578125,62.36712646484375)" opacity="1" style="display: block;"><g opacity="1" transform="matrix(1,0,0,1,212.07000732421875,514.6099853515625)"><path stroke-linecap="butt" stroke-linejoin="miter" fill-opacity="0" stroke-miterlimit="10" stroke="rgb(0,0,0)" stroke-opacity="1" stroke-width="2" d=" M79.94999694824219,-16.878000259399414 C79.94999694824219,-16.878000259399414 78.29399871826172,-16.527999877929688 75.31800079345703,-15.899999618530273"></path></g><g opacity="1" transform="matrix(1,0,0,1,297.73199462890625,660.0360107421875)"><path stroke-linecap="butt" stroke-linejoin="miter" fill-opacity="0" stroke-miterlimit="10" stroke="rgb(0,0,0)" stroke-opacity="1" stroke-width="2" d=" M62.63800048828125,-55.96500015258789 C62.63800048828125,-55.96500015258789 54.025001525878906,-48.27000045776367 41.31700134277344,-36.915000915527344"></path></g><g opacity="1" transform="matrix(1,0,0,1,442.7659912109375,729.9420166015625)"><path stroke-linecap="butt" stroke-linejoin="miter" fill-opacity="0" stroke-miterlimit="10" stroke="rgb(0,0,0)" stroke-opacity="1" stroke-width="2" d=" M37.93600082397461,-78.70600128173828 C37.93600082397461,-78.70600128173828 32.720001220703125,-67.88400268554688 25.023000717163086,-51.915000915527344"></path></g></g><g transform="matrix(1,0,0,1,603.4287719726562,500.00714111328125)" opacity="1" style="display: block;"><g opacity="1" transform="matrix(1,0,0,1,0,0)"><path fill="rgb(228,253,145)" fill-opacity="1" d=" M-210.1572265625,178.55577087402344 C-210.1572265625,178.55577087402344 -241.70599365234375,25.389999389648438 -241.70599365234375,25.389999389648438 C-241.70599365234375,25.389999389648438 241.70599365234375,-179.48800659179688 241.70599365234375,-179.48800659179688 C241.70599365234375,-179.48800659179688 -210.1572265625,178.55577087402344 -210.1572265625,178.55577087402344z"></path><path stroke-linecap="butt" stroke-linejoin="round" fill-opacity="0" stroke="rgb(32,15,81)" stroke-opacity="1" stroke-width="2" d=" M-210.1572265625,178.55577087402344 C-210.1572265625,178.55577087402344 -241.70599365234375,25.389999389648438 -241.70599365234375,25.389999389648438 C-241.70599365234375,25.389999389648438 241.70599365234375,-179.48800659179688 241.70599365234375,-179.48800659179688 C241.70599365234375,-179.48800659179688 -210.1572265625,178.55577087402344 -210.1572265625,178.55577087402344z"></path></g></g><g transform="matrix(1,0,0,1,516.9497680664062,422.9571228027344)" opacity="1" style="display: block;"><g opacity="1" transform="matrix(1,0,0,1,0,0)"><path fill="rgb(228,253,145)" fill-opacity="1" d=" M328.17999267578125,-102.43499755859375 C328.17999267578125,-102.43499755859375 280.19000244140625,-82.09500122070312 280.19000244140625,-82.09500122070312 C280.19000244140625,-82.09500122070312 10.229999542236328,32.314998626708984 10.229999542236328,32.314998626708984 C10.229999542236328,32.314998626708984 -143.9199981689453,97.6449966430664 -143.9199981689453,97.6449966430664 C-143.9199981689453,97.6449966430664 -155.22999572753906,102.43499755859375 -155.22999572753906,102.43499755859375 C-155.22999572753906,102.43499755859375 -296.4841613769531,57.98316192626953 -296.4841613769531,57.98316192626953 C-296.4841613769531,57.98316192626953 282.3800048828125,-94.1050033569336 282.3800048828125,-94.1050033569336 C282.3800048828125,-94.1050033569336 328.17999267578125,-102.43499755859375 328.17999267578125,-102.43499755859375z"></path><path stroke-linecap="butt" stroke-linejoin="round" fill-opacity="0" stroke="rgb(32,15,81)" stroke-opacity="1" stroke-width="2" d=" M328.17999267578125,-102.43499755859375 C328.17999267578125,-102.43499755859375 280.19000244140625,-82.09500122070312 280.19000244140625,-82.09500122070312 C280.19000244140625,-82.09500122070312 10.229999542236328,32.314998626708984 10.229999542236328,32.314998626708984 C10.229999542236328,32.314998626708984 -143.9199981689453,97.6449966430664 -143.9199981689453,97.6449966430664 C-143.9199981689453,97.6449966430664 -155.22999572753906,102.43499755859375 -155.22999572753906,102.43499755859375 C-155.22999572753906,102.43499755859375 -296.4841613769531,57.98316192626953 -296.4841613769531,57.98316192626953 C-296.4841613769531,57.98316192626953 282.3800048828125,-94.1050033569336 282.3800048828125,-94.1050033569336 C282.3800048828125,-94.1050033569336 328.17999267578125,-102.43499755859375 328.17999267578125,-102.43499755859375z"></path></g></g><g mask="url(#__lottie_element_17)" transform="matrix(1,0,0,1,-22.092041015625,62.36712646484375)" opacity="1" style="display: block;"><g opacity="1" transform="matrix(1,0,0,1,470.0299987792969,416.68701171875)"><path fill="rgb(32,15,81)" fill-opacity="1" d=" M79.8949966430664,-23.781999588012695 C79.8949966430664,-23.781999588012695 -74.25499725341797,41.54800033569336 -74.25499725341797,41.54800033569336 C-75.9749984741211,37.97800064086914 -77.34500122070312,34.237998962402344 -78.26499938964844,30.308000564575195 C-79.03500366210938,26.988000869750977 -79.36499786376953,23.558000564575195 -79.8949966430664,20.187999725341797 C-79.8949966430664,20.187999725341797 -79.8949966430664,16.107999801635742 -79.8949966430664,16.107999801635742 C-79.82499694824219,15.597999572753906 -79.7249984741211,15.088000297546387 -79.68499755859375,14.57800006866455 C-78.65499877929688,1.5779999494552612 -72.76499938964844,-9.031999588012695 -63.48500061035156,-17.892000198364258 C-55.51499938964844,-25.511999130249023 -46.025001525878906,-30.66200065612793 -35.744998931884766,-34.4119987487793 C-25.475000381469727,-38.152000427246094 -14.824999809265137,-40.25199890136719 -3.944999933242798,-41.10200119018555 C6.474999904632568,-41.9119987487793 16.875,-41.61199951171875 27.2450008392334,-40.25199890136719 C45.755001068115234,-37.8120002746582 63.35499954223633,-32.512001037597656 79.8949966430664,-23.781999588012695z"></path></g><g opacity="1" transform="matrix(1,0,0,1,503.12701416015625,463.0249938964844)"><path fill="rgb(32,15,81)" fill-opacity="1" d=" M107.625,-17.81999969482422 C107.625,-13.4399995803833 107.3550033569336,-9.130000114440918 106.80500030517578,-4.889999866485596 C100.2750015258789,47.0099983215332 54.82500076293945,87.19999694824219 -0.26499998569488525,87.19999694824219 C-3.984999895095825,87.19999694824219 -7.664999961853027,87.0199966430664 -11.28499984741211,86.66000366210938 C-11.28499984741211,86.66000366210938 -11.295000076293945,86.66000366210938 -11.295000076293945,86.66000366210938 C-62.17499923706055,81.62999725341797 -102.6050033569336,42.18000030517578 -107.625,-7.380000114440918 C-107.625,-7.380000114440918 80.71499633789062,-87.19999694824219 80.71499633789062,-87.19999694824219 C97.4749984741211,-68.69999694824219 107.625,-44.41999816894531 107.625,-17.81999969482422z"></path></g></g><g transform="matrix(1,0,0,1,15.907958984375,68.36712646484375)" opacity="1" style="display: block;"><g opacity="1" transform="matrix(1,0,0,1,517.677978515625,401.63800048828125)"><path fill="rgb(27,242,203)" fill-opacity="1" d=" M100.62699890136719,0 C100.62699890136719,54.09199905395508 55.57500076293945,97.94200134277344 0,97.94200134277344 C-55.57500076293945,97.94200134277344 -100.62699890136719,54.09199905395508 -100.62699890136719,0 C-100.62699890136719,-54.09199905395508 -55.57500076293945,-97.94200134277344 0,-97.94200134277344 C55.57500076293945,-97.94200134277344 100.62699890136719,-54.09199905395508 100.62699890136719,0z"></path><path stroke-linecap="butt" stroke-linejoin="miter" fill-opacity="0" stroke-miterlimit="10" stroke="rgb(32,15,81)" stroke-opacity="1" stroke-width="2" d=" M100.62699890136719,0 C100.62699890136719,54.09199905395508 55.57500076293945,97.94200134277344 0,97.94200134277344 C-55.57500076293945,97.94200134277344 -100.62699890136719,54.09199905395508 -100.62699890136719,0 C-100.62699890136719,-54.09199905395508 -55.57500076293945,-97.94200134277344 0,-97.94200134277344 C55.57500076293945,-97.94200134277344 100.62699890136719,-54.09199905395508 100.62699890136719,0z"></path></g><g opacity="1" transform="matrix(1,0,0,1,0,0)"><g opacity="1" transform="matrix(1,0,0,1,527.7310180664062,401.6369934082031)"><path fill="rgb(27,242,203)" fill-opacity="1" d=" M93.19300079345703,0.004999999888241291 C93.19300079345703,20.895999908447266 86.97200012207031,40.26499938964844 76.35700225830078,56.16699981689453 C59.50299835205078,81.427001953125 31.590999603271484,97.94000244140625 0,97.94000244140625 C-51.47100067138672,97.94000244140625 -93.19300079345703,54.09299850463867 -93.19300079345703,0.004999999888241291 C-93.19300079345703,-24.22599983215332 -84.83000183105469,-46.38399887084961 -70.96800231933594,-63.48400115966797 C-53.875999450683594,-84.56999969482422 -28.42099952697754,-97.94000244140625 0,-97.94000244140625 C51.47100067138672,-97.94000244140625 93.19300079345703,-54.09199905395508 93.19300079345703,0.004999999888241291z"></path><path stroke-linecap="butt" stroke-linejoin="miter" fill-opacity="0" stroke-miterlimit="10" stroke="rgb(32,15,81)" stroke-opacity="1" stroke-width="2" d=" M93.19300079345703,0.004999999888241291 C93.19300079345703,20.895999908447266 86.97200012207031,40.26499938964844 76.35700225830078,56.16699981689453 C59.50299835205078,81.427001953125 31.590999603271484,97.94000244140625 0,97.94000244140625 C-51.47100067138672,97.94000244140625 -93.19300079345703,54.09299850463867 -93.19300079345703,0.004999999888241291 C-93.19300079345703,-24.22599983215332 -84.83000183105469,-46.38399887084961 -70.96800231933594,-63.48400115966797 C-53.875999450683594,-84.56999969482422 -28.42099952697754,-97.94000244140625 0,-97.94000244140625 C51.47100067138672,-97.94000244140625 93.19300079345703,-54.09199905395508 93.19300079345703,0.004999999888241291z"></path></g><g opacity="1" transform="matrix(1,0,0,1,0,0)"><g opacity="1" transform="matrix(1,0,0,1,537.60400390625,392.4209899902344)"><path fill="rgb(27,224,188)" fill-opacity="1" d=" M61.67100143432617,9.220000267028809 C61.67100143432617,31.875999450683594 52.13100051879883,52.19900131225586 37.034000396728516,65.9749984741211 C49.236000061035156,52.4900016784668 56.696998596191406,34.26499938964844 56.696998596191406,14.194000244140625 C56.696998596191406,-27.327999114990234 24.656999588012695,-61.000999450683594 -14.86400032043457,-61.000999450683594 C-32.77899932861328,-61.000999450683594 -49.138999938964844,-54.08399963378906 -61.67100143432617,-42.659000396728516 C-48.632999420166016,-57.018001556396484 -30.25200080871582,-65.9749984741211 -9.869999885559082,-65.9749984741211 C29.631000518798828,-65.9749984741211 61.67100143432617,-32.301998138427734 61.67100143432617,9.220000267028809z"></path></g><g opacity="1" transform="matrix(1,0,0,1,0,0)"><g opacity="1" transform="matrix(1,0,0,1,527.72998046875,314.8219909667969)"><path stroke-linecap="butt" stroke-linejoin="miter" fill-opacity="0" stroke-miterlimit="10" stroke="rgb(42,160,137)" stroke-opacity="1" stroke-width="1.7" d=" M0,-6.441999912261963 C0,-6.441999912261963 0,6.441999912261963 0,6.441999912261963"></path></g><g opacity="1" transform="matrix(1,0,0,1,511.0929870605469,316.60101318359375)"><path stroke-linecap="butt" stroke-linejoin="miter" fill-opacity="0" stroke-miterlimit="10" stroke="rgb(42,160,137)" stroke-opacity="1" stroke-width="1.7" d=" M-1.2339999675750732,-6.309999942779541 C-1.2339999675750732,-6.309999942779541 1.2339999675750732,6.309999942779541 1.2339999675750732,6.309999942779541"></path></g><g opacity="1" transform="matrix(1,0,0,1,495.1369934082031,321.8659973144531)"><path stroke-linecap="butt" stroke-linejoin="miter" fill-opacity="0" stroke-miterlimit="10" stroke="rgb(42,160,137)" stroke-opacity="1" stroke-width="1.7" d=" M-2.4179999828338623,-5.919000148773193 C-2.4179999828338623,-5.919000148773193 2.4179999828338623,5.919000148773193 2.4179999828338623,5.919000148773193"></path></g><g opacity="1" transform="matrix(1,0,0,1,480.5169982910156,330.3999938964844)"><path stroke-linecap="butt" stroke-linejoin="miter" fill-opacity="0" stroke-miterlimit="10" stroke="rgb(42,160,137)" stroke-opacity="1" stroke-width="1.7" d=" M-3.503000020980835,-5.285999774932861 C-3.503000020980835,-5.285999774932861 3.503000020980835,5.285999774932861 3.503000020980835,5.285999774932861"></path></g><g opacity="1" transform="matrix(1,0,0,1,467.8330078125,341.8529968261719)"><path stroke-linecap="butt" stroke-linejoin="miter" fill-opacity="0" stroke-miterlimit="10" stroke="rgb(42,160,137)" stroke-opacity="1" stroke-width="1.7" d=" M-4.443999767303467,-4.435999870300293 C-4.443999767303467,-4.435999870300293 4.443999767303467,4.435999870300293 4.443999767303467,4.435999870300293"></path></g><g opacity="1" transform="matrix(1,0,0,1,457.6029968261719,355.7569885253906)"><path stroke-linecap="butt" stroke-linejoin="miter" fill-opacity="0" stroke-miterlimit="10" stroke="rgb(42,160,137)" stroke-opacity="1" stroke-width="1.7" d=" M-5.203000068664551,-3.4040000438690186 C-5.203000068664551,-3.4040000438690186 5.203000068664551,3.4040000438690186 5.203000068664551,3.4040000438690186"></path></g><g opacity="1" transform="matrix(1,0,0,1,450.24798583984375,371.5419921875)"><path stroke-linecap="butt" stroke-linejoin="miter" fill-opacity="0" stroke-miterlimit="10" stroke="rgb(42,160,137)" stroke-opacity="1" stroke-width="1.7" d=" M-5.749000072479248,-2.2330000400543213 C-5.749000072479248,-2.2330000400543213 5.749000072479248,2.2330000400543213 5.749000072479248,2.2330000400543213"></path></g><g opacity="1" transform="matrix(1,0,0,1,446.0679931640625,388.55999755859375)"><path stroke-linecap="butt" stroke-linejoin="miter" fill-opacity="0" stroke-miterlimit="10" stroke="rgb(42,160,137)" stroke-opacity="1" stroke-width="1.7" d=" M-6.059000015258789,-0.9700000286102295 C-6.059000015258789,-0.9700000286102295 6.059000015258789,0.9700000286102295 6.059000015258789,0.9700000286102295"></path></g><g opacity="1" transform="matrix(1,0,0,1,445.2349853515625,406.114013671875)"><path stroke-linecap="butt" stroke-linejoin="miter" fill-opacity="0" stroke-miterlimit="10" stroke="rgb(42,160,137)" stroke-opacity="1" stroke-width="1.7" d=" M-6.120999813079834,0.3319999873638153 C-6.120999813079834,0.3319999873638153 6.120999813079834,-0.3319999873638153 6.120999813079834,-0.3319999873638153"></path></g><g opacity="1" transform="matrix(1,0,0,1,447.7829895019531,423.4840087890625)"><path stroke-linecap="butt" stroke-linejoin="miter" fill-opacity="0" stroke-miterlimit="10" stroke="rgb(42,160,137)" stroke-opacity="1" stroke-width="1.7" d=" M-5.932000160217285,1.621000051498413 C-5.932000160217285,1.621000051498413 5.932000160217285,-1.621000051498413 5.932000160217285,-1.621000051498413"></path></g><g opacity="1" transform="matrix(1,0,0,1,453.6080017089844,439.9590148925781)"><path stroke-linecap="butt" stroke-linejoin="miter" fill-opacity="0" stroke-miterlimit="10" stroke="rgb(42,160,137)" stroke-opacity="1" stroke-width="1.7" d=" M-5.5,2.8429999351501465 C-5.5,2.8429999351501465 5.5,-2.8429999351501465 5.5,-2.8429999351501465"></path></g><g opacity="1" transform="matrix(1,0,0,1,462.47100830078125,454.864013671875)"><path stroke-linecap="butt" stroke-linejoin="miter" fill-opacity="0" stroke-miterlimit="10" stroke="rgb(42,160,137)" stroke-opacity="1" stroke-width="1.7" d=" M-4.8420000076293945,3.9489998817443848 C-4.8420000076293945,3.9489998817443848 4.8420000076293945,-3.9489998817443848 4.8420000076293945,-3.9489998817443848"></path></g><g opacity="1" transform="matrix(1,0,0,1,474.0090026855469,467.5870056152344)"><path stroke-linecap="butt" stroke-linejoin="miter" fill-opacity="0" stroke-miterlimit="10" stroke="rgb(42,160,137)" stroke-opacity="1" stroke-width="1.7" d=" M-3.9860000610351562,4.89300012588501 C-3.9860000610351562,4.89300012588501 3.9860000610351562,-4.89300012588501 3.9860000610351562,-4.89300012588501"></path></g><g opacity="1" transform="matrix(1,0,0,1,487.7489929199219,477.60699462890625)"><path stroke-linecap="butt" stroke-linejoin="miter" fill-opacity="0" stroke-miterlimit="10" stroke="rgb(42,160,137)" stroke-opacity="1" stroke-width="1.7" d=" M-2.9670000076293945,5.63700008392334 C-2.9670000076293945,5.63700008392334 2.9670000076293945,-5.63700008392334 2.9670000076293945,-5.63700008392334"></path></g><g opacity="1" transform="matrix(1,0,0,1,503.12701416015625,484.51300048828125)"><path stroke-linecap="butt" stroke-linejoin="miter" fill-opacity="0" stroke-miterlimit="10" stroke="rgb(42,160,137)" stroke-opacity="1" stroke-width="1.7" d=" M-1.8259999752044678,6.14900016784668 C-1.8259999752044678,6.14900016784668 1.8259999752044678,-6.14900016784668 1.8259999752044678,-6.14900016784668"></path></g><g opacity="1" transform="matrix(1,0,0,1,519.5139770507812,488.0220031738281)"><path stroke-linecap="butt" stroke-linejoin="miter" fill-opacity="0" stroke-miterlimit="10" stroke="rgb(42,160,137)" stroke-opacity="1" stroke-width="1.7" d=" M-0.6100000143051147,6.409999847412109 C-0.6100000143051147,6.409999847412109 0.6100000143051147,-6.409999847412109 0.6100000143051147,-6.409999847412109"></path></g><g opacity="1" transform="matrix(1,0,0,1,536.2369995117188,487.9909973144531)"><path stroke-linecap="butt" stroke-linejoin="miter" fill-opacity="0" stroke-miterlimit="10" stroke="rgb(42,160,137)" stroke-opacity="1" stroke-width="1.7" d=" M0.6309999823570251,6.4070000648498535 C0.6309999823570251,6.4070000648498535 -0.6309999823570251,-6.4070000648498535 -0.6309999823570251,-6.4070000648498535"></path></g><g opacity="1" transform="matrix(1,0,0,1,552.6119995117188,484.4209899902344)"><path stroke-linecap="butt" stroke-linejoin="miter" fill-opacity="0" stroke-miterlimit="10" stroke="rgb(42,160,137)" stroke-opacity="1" stroke-width="1.7" d=" M1.8459999561309814,6.142000198364258 C1.8459999561309814,6.142000198364258 -1.8459999561309814,-6.142000198364258 -1.8459999561309814,-6.142000198364258"></path></g><g opacity="1" transform="matrix(1,0,0,1,567.9669799804688,477.4580078125)"><path stroke-linecap="butt" stroke-linejoin="miter" fill-opacity="0" stroke-miterlimit="10" stroke="rgb(42,160,137)" stroke-opacity="1" stroke-width="1.7" d=" M2.9860000610351562,5.625999927520752 C2.9860000610351562,5.625999927520752 -2.9860000610351562,-5.625999927520752 -2.9860000610351562,-5.625999927520752"></path></g><g opacity="1" transform="matrix(1,0,0,1,581.6719970703125,467.3869934082031)"><path stroke-linecap="butt" stroke-linejoin="miter" fill-opacity="0" stroke-miterlimit="10" stroke="rgb(42,160,137)" stroke-opacity="1" stroke-width="1.7" d=" M4.001999855041504,4.879000186920166 C4.001999855041504,4.879000186920166 -4.001999855041504,-4.879000186920166 -4.001999855041504,-4.879000186920166"></path></g><g opacity="1" transform="matrix(1,0,0,1,593.1669921875,454.6210021972656)"><path stroke-linecap="butt" stroke-linejoin="miter" fill-opacity="0" stroke-miterlimit="10" stroke="rgb(42,160,137)" stroke-opacity="1" stroke-width="1.7" d=" M4.855000019073486,3.930999994277954 C4.855000019073486,3.930999994277954 -4.855000019073486,-3.930999994277954 -4.855000019073486,-3.930999994277954"></path></g><g opacity="1" transform="matrix(1,0,0,1,601.97998046875,439.6839904785156)"><path stroke-linecap="butt" stroke-linejoin="miter" fill-opacity="0" stroke-miterlimit="10" stroke="rgb(42,160,137)" stroke-opacity="1" stroke-width="1.7" d=" M5.508999824523926,2.822999954223633 C5.508999824523926,2.822999954223633 -5.508999824523926,-2.822999954223633 -5.508999824523926,-2.822999954223633"></path></g><g opacity="1" transform="matrix(1,0,0,1,607.75,423.18798828125)"><path stroke-linecap="butt" stroke-linejoin="miter" fill-opacity="0" stroke-miterlimit="10" stroke="rgb(42,160,137)" stroke-opacity="1" stroke-width="1.7" d=" M5.936999797821045,1.5989999771118164 C5.936999797821045,1.5989999771118164 -5.936999797821045,-1.5989999771118164 -5.936999797821045,-1.5989999771118164"></path></g><g opacity="1" transform="matrix(1,0,0,1,610.239990234375,405.8080139160156)"><path stroke-linecap="butt" stroke-linejoin="miter" fill-opacity="0" stroke-miterlimit="10" stroke="rgb(42,160,137)" stroke-opacity="1" stroke-width="1.7" d=" M6.122000217437744,0.3089999854564667 C6.122000217437744,0.3089999854564667 -6.122000217437744,-0.3089999854564667 -6.122000217437744,-0.3089999854564667"></path></g><g opacity="1" transform="matrix(1,0,0,1,609.3480224609375,388.2569885253906)"><path stroke-linecap="butt" stroke-linejoin="miter" fill-opacity="0" stroke-miterlimit="10" stroke="rgb(42,160,137)" stroke-opacity="1" stroke-width="1.7" d=" M6.056000232696533,-0.9929999709129333 C6.056000232696533,-0.9929999709129333 -6.056000232696533,0.9929999709129333 -6.056000232696533,0.9929999709129333"></path></g><g opacity="1" transform="matrix(1,0,0,1,605.1110229492188,371.2550048828125)"><path stroke-linecap="butt" stroke-linejoin="miter" fill-opacity="0" stroke-miterlimit="10" stroke="rgb(42,160,137)" stroke-opacity="1" stroke-width="1.7" d=" M5.742000102996826,-2.253999948501587 C5.742000102996826,-2.253999948501587 -5.742000102996826,2.253999948501587 -5.742000102996826,2.253999948501587"></path></g><g opacity="1" transform="matrix(1,0,0,1,597.7030029296875,355.49798583984375)"><path stroke-linecap="butt" stroke-linejoin="miter" fill-opacity="0" stroke-miterlimit="10" stroke="rgb(42,160,137)" stroke-opacity="1" stroke-width="1.7" d=" M5.191999912261963,-3.4240000247955322 C5.191999912261963,-3.4240000247955322 -5.191999912261963,3.4240000247955322 -5.191999912261963,3.4240000247955322"></path></g><g opacity="1" transform="matrix(1,0,0,1,587.427001953125,341.6319885253906)"><path stroke-linecap="butt" stroke-linejoin="miter" fill-opacity="0" stroke-miterlimit="10" stroke="rgb(42,160,137)" stroke-opacity="1" stroke-width="1.7" d=" M4.428999900817871,-4.452000141143799 C4.428999900817871,-4.452000141143799 -4.428999900817871,4.452000141143799 -4.428999900817871,4.452000141143799"></path></g><g opacity="1" transform="matrix(1,0,0,1,574.7030029296875,330.2250061035156)"><path stroke-linecap="butt" stroke-linejoin="miter" fill-opacity="0" stroke-miterlimit="10" stroke="rgb(42,160,137)" stroke-opacity="1" stroke-width="1.7" d=" M3.484999895095825,-5.298999786376953 C3.484999895095825,-5.298999786376953 -3.484999895095825,5.298999786376953 -3.484999895095825,5.298999786376953"></path></g><g opacity="1" transform="matrix(1,0,0,1,560.0549926757812,321.7449951171875)"><path stroke-linecap="butt" stroke-linejoin="miter" fill-opacity="0" stroke-miterlimit="10" stroke="rgb(42,160,137)" stroke-opacity="1" stroke-width="1.7" d=" M2.3980000019073486,-5.927999973297119 C2.3980000019073486,-5.927999973297119 -2.3980000019073486,5.927999973297119 -2.3980000019073486,5.927999973297119"></path></g><g opacity="1" transform="matrix(1,0,0,1,544.0819702148438,316.5400085449219)"><path stroke-linecap="butt" stroke-linejoin="miter" fill-opacity="0" stroke-miterlimit="10" stroke="rgb(42,160,137)" stroke-opacity="1" stroke-width="1.7" d=" M1.2130000591278076,-6.314000129699707 C1.2130000591278076,-6.314000129699707 -1.2130000591278076,6.314000129699707 -1.2130000591278076,6.314000129699707"></path></g></g></g></g></g><g transform="matrix(1,0,0,1,611.2207641601562,501.8921203613281)" opacity="1" style="display: block;"><g opacity="1" transform="matrix(1,0,0,1,0,0)"><path fill="rgb(196,220,90)" fill-opacity="1" d=" M-217.0179901123047,176.6707763671875 C-217.0179901123047,176.6707763671875 -183.13299560546875,55.68199920654297 -183.13299560546875,55.68199920654297 C-183.13299560546875,55.68199920654297 229.13699340820312,-177.60299682617188 229.13699340820312,-177.60299682617188 C229.13699340820312,-177.60299682617188 -217.0179901123047,176.6707763671875 -217.0179901123047,176.6707763671875z"></path><path stroke-linecap="round" stroke-linejoin="round" fill-opacity="0" stroke="rgb(32,15,81)" stroke-opacity="1" stroke-width="2" d=" M-217.0179901123047,176.6707763671875 C-217.0179901123047,176.6707763671875 -183.13299560546875,55.68199920654297 -183.13299560546875,55.68199920654297 C-183.13299560546875,55.68199920654297 229.13699340820312,-177.60299682617188 229.13699340820312,-177.60299682617188 C229.13699340820312,-177.60299682617188 -217.0179901123047,176.6707763671875 -217.0179901123047,176.6707763671875z"></path></g></g><g transform="matrix(1,0,0,1,636.6097412109375,508.93212890625)" opacity="1" style="display: block;"><g opacity="1" transform="matrix(1,0,0,1,0,0)"><path fill="url(#__lottie_element_25)" fill-opacity="1" d=" M207.55999755859375,-186.85000610351562 C207.55999755859375,-186.85000610351562 -20.80884552001953,131.2394561767578 -20.80884552001953,131.2394561767578 C-20.80884552001953,131.2394561767578 -209.47999572753906,50.20000076293945 -209.47999572753906,50.20000076293945 C-209.47999572753906,50.20000076293945 157.9499969482422,-158.64999389648438 157.9499969482422,-158.64999389648438 C157.9499969482422,-158.64999389648438 207.55999755859375,-186.85000610351562 207.55999755859375,-186.85000610351562z"></path><path stroke-linecap="butt" stroke-linejoin="round" fill-opacity="0" stroke="rgb(32,15,81)" stroke-opacity="1" stroke-width="2" d=" M207.55999755859375,-186.85000610351562 C207.55999755859375,-186.85000610351562 -20.80884552001953,131.2394561767578 -20.80884552001953,131.2394561767578 C-20.80884552001953,131.2394561767578 -209.47999572753906,50.20000076293945 -209.47999572753906,50.20000076293945 C-209.47999572753906,50.20000076293945 157.9499969482422,-158.64999389648438 157.9499969482422,-158.64999389648438 C157.9499969482422,-158.64999389648438 207.55999755859375,-186.85000610351562 207.55999755859375,-186.85000610351562z"></path></g></g></g></svg>