<svg xmlns="http://www.w3.org/2000/svg" xmlns:xlink="http://www.w3.org/1999/xlink" viewBox="0 0 1000 1000" width="1000" height="1000" preserveAspectRatio="xMidYMid meet" style="width: 100%; height: 100%; transform: translate3d(0px, 0px, 0px); content-visibility: visible;"><defs><clipPath id="__lottie_element_2"><rect width="1000" height="1000" x="0" y="0"></rect></clipPath></defs><g clip-path="url(#__lottie_element_2)"><g transform="matrix(1,0,0,1,0,-28)" opacity="1" style="display: block;"><g opacity="1" transform="matrix(1,0,0,1,500,544.3930053710938)"><path stroke-linecap="butt" stroke-linejoin="miter" fill-opacity="0" stroke-miterlimit="10" stroke="rgb(32,15,81)" stroke-opacity="1" stroke-width="20" d=" M0,252.3300018310547 C0,252.3300018310547 0,-252.3300018310547 0,-252.3300018310547"></path></g><g opacity="1" transform="matrix(1,0,0,1,445.4309997558594,552.9860229492188)"><path stroke-linecap="butt" stroke-linejoin="miter" fill-opacity="0" stroke-miterlimit="10" stroke="rgb(32,15,81)" stroke-opacity="1" stroke-width="20" d=" M57.7400016784668,43.369998931884766 C57.7400016784668,43.369998931884766 -57.7400016784668,-43.369998931884766 -57.7400016784668,-43.369998931884766"></path></g><g opacity="1" transform="matrix(1,0,0,1,561.4819946289062,513.14599609375)"><path stroke-linecap="butt" stroke-linejoin="miter" fill-opacity="0" stroke-miterlimit="10" stroke="rgb(32,15,81)" stroke-opacity="1" stroke-width="20" d=" M-60.42499923706055,37.909000396728516 C-60.42499923706055,37.909000396728516 60.42499923706055,-37.909000396728516 60.42499923706055,-37.909000396728516"></path></g><g opacity="1" transform="matrix(1,0,0,1,461.4639892578125,432.4419860839844)"><path stroke-linecap="butt" stroke-linejoin="miter" fill-opacity="0" stroke-miterlimit="10" stroke="rgb(32,15,81)" stroke-opacity="1" stroke-width="20" d=" M41.52799987792969,30.937999725341797 C41.52799987792969,30.937999725341797 -41.52799987792969,-30.937999725341797 -41.52799987792969,-30.937999725341797"></path></g><g opacity="1" transform="matrix(1,0,0,1,536.1610107421875,398.4179992675781)"><path stroke-linecap="butt" stroke-linejoin="miter" fill-opacity="0" stroke-miterlimit="10" stroke="rgb(32,15,81)" stroke-opacity="1" stroke-width="20" d=" M-31.040000915527344,18.097000122070312 C-31.040000915527344,18.097000122070312 -5.675000190734863,3.309000015258789 12.628000259399414,-7.361999988555908"></path></g></g><g transform="matrix(1.0215520858764648,0,0,1.0215520858764648,-8.695159912109375,-39.60101318359375)" opacity="1" style="display: block;"><g opacity="1" transform="matrix(1,0,0,1,369.739990234375,501.22698974609375)"><path fill="rgb(27,242,203)" fill-opacity="1" d=" M50.39699935913086,0 C50.39699935913086,27.090999603271484 27.833999633789062,49.051998138427734 0,49.051998138427734 C-27.833999633789062,49.051998138427734 -50.39699935913086,27.090999603271484 -50.39699935913086,0 C-50.39699935913086,-27.090999603271484 -27.833999633789062,-49.051998138427734 0,-49.051998138427734 C27.833999633789062,-49.051998138427734 50.39699935913086,-27.090999603271484 50.39699935913086,0z"></path><path stroke-linecap="butt" stroke-linejoin="miter" fill-opacity="0" stroke-miterlimit="10" stroke="rgb(32,15,81)" stroke-opacity="1" stroke-width="2" d=" M50.39699935913086,0 C50.39699935913086,27.090999603271484 27.833999633789062,49.051998138427734 0,49.051998138427734 C-27.833999633789062,49.051998138427734 -50.39699935913086,27.090999603271484 -50.39699935913086,0 C-50.39699935913086,-27.090999603271484 -27.833999633789062,-49.051998138427734 0,-49.051998138427734 C27.833999633789062,-49.051998138427734 50.39699935913086,-27.090999603271484 50.39699935913086,0z"></path></g><g opacity="1" transform="matrix(1,0,0,1,0,0)"><g opacity="1" transform="matrix(1,0,0,1,374.7749938964844,501.22698974609375)"><path fill="rgb(27,242,203)" fill-opacity="1" d=" M46.67399978637695,0.0020000000949949026 C46.67399978637695,10.46500015258789 43.55799865722656,20.166000366210938 38.242000579833984,28.1299991607666 C29.801000595092773,40.78099822998047 15.821999549865723,49.05099868774414 0,49.05099868774414 C-25.777999877929688,49.05099868774414 -46.67399978637695,27.090999603271484 -46.67399978637695,0.0020000000949949026 C-46.67399978637695,-12.133999824523926 -42.486000061035156,-23.231000900268555 -35.542999267578125,-31.795000076293945 C-26.982999801635742,-42.35599899291992 -14.234000205993652,-49.05099868774414 0,-49.05099868774414 C25.777999877929688,-49.05099868774414 46.67399978637695,-27.091999053955078 46.67399978637695,0.0020000000949949026z"></path><path stroke-linecap="butt" stroke-linejoin="miter" fill-opacity="0" stroke-miterlimit="10" stroke="rgb(32,15,81)" stroke-opacity="1" stroke-width="2" d=" M46.67399978637695,0.0020000000949949026 C46.67399978637695,10.46500015258789 43.55799865722656,20.166000366210938 38.242000579833984,28.1299991607666 C29.801000595092773,40.78099822998047 15.821999549865723,49.05099868774414 0,49.05099868774414 C-25.777999877929688,49.05099868774414 -46.67399978637695,27.090999603271484 -46.67399978637695,0.0020000000949949026 C-46.67399978637695,-12.133999824523926 -42.486000061035156,-23.231000900268555 -35.542999267578125,-31.795000076293945 C-26.982999801635742,-42.35599899291992 -14.234000205993652,-49.05099868774414 0,-49.05099868774414 C25.777999877929688,-49.05099868774414 46.67399978637695,-27.091999053955078 46.67399978637695,0.0020000000949949026z"></path></g><g opacity="1" transform="matrix(1,0,0,1,0,0)"><g opacity="1" transform="matrix(1,0,0,1,379.7200012207031,496.6109924316406)"><path fill="rgb(27,224,188)" fill-opacity="1" d=" M30.886999130249023,4.617000102996826 C30.886999130249023,15.96399974822998 26.108999252319336,26.14299964904785 18.54800033569336,33.04199981689453 C24.659000396728516,26.288999557495117 28.395999908447266,17.160999298095703 28.395999908447266,7.109000205993652 C28.395999908447266,-13.687000274658203 12.348999977111816,-30.551000595092773 -7.443999767303467,-30.551000595092773 C-16.416000366210938,-30.551000595092773 -24.610000610351562,-27.086999893188477 -30.886999130249023,-21.364999771118164 C-24.35700035095215,-28.555999755859375 -15.151000022888184,-33.04199981689453 -4.942999839782715,-33.04199981689453 C14.840999603271484,-33.04199981689453 30.886999130249023,-16.179000854492188 30.886999130249023,4.617000102996826z"></path></g><g opacity="1" transform="matrix(1,0,0,1,0,0)"><g opacity="1" transform="matrix(1,0,0,1,374.7749938964844,457.74700927734375)"><path stroke-linecap="butt" stroke-linejoin="miter" fill-opacity="0" stroke-miterlimit="10" stroke="rgb(42,160,137)" stroke-opacity="1" stroke-width="0.851" d=" M0,-3.2260000705718994 C0,-3.2260000705718994 0,3.2260000705718994 0,3.2260000705718994"></path></g><g opacity="1" transform="matrix(1,0,0,1,366.4419860839844,458.63800048828125)"><path stroke-linecap="butt" stroke-linejoin="miter" fill-opacity="0" stroke-miterlimit="10" stroke="rgb(42,160,137)" stroke-opacity="1" stroke-width="0.851" d=" M-0.6179999709129333,-3.1600000858306885 C-0.6179999709129333,-3.1600000858306885 0.6179999709129333,3.1600000858306885 0.6179999709129333,3.1600000858306885"></path></g><g opacity="1" transform="matrix(1,0,0,1,358.45098876953125,461.2749938964844)"><path stroke-linecap="butt" stroke-linejoin="miter" fill-opacity="0" stroke-miterlimit="10" stroke="rgb(42,160,137)" stroke-opacity="1" stroke-width="0.851" d=" M-1.2109999656677246,-2.9639999866485596 C-1.2109999656677246,-2.9639999866485596 1.2109999656677246,2.9639999866485596 1.2109999656677246,2.9639999866485596"></path></g><g opacity="1" transform="matrix(1,0,0,1,351.1289978027344,465.54901123046875)"><path stroke-linecap="butt" stroke-linejoin="miter" fill-opacity="0" stroke-miterlimit="10" stroke="rgb(42,160,137)" stroke-opacity="1" stroke-width="0.851" d=" M-1.753999948501587,-2.6470000743865967 C-1.753999948501587,-2.6470000743865967 1.753999948501587,2.6470000743865967 1.753999948501587,2.6470000743865967"></path></g><g opacity="1" transform="matrix(1,0,0,1,344.7760009765625,471.2850036621094)"><path stroke-linecap="butt" stroke-linejoin="miter" fill-opacity="0" stroke-miterlimit="10" stroke="rgb(42,160,137)" stroke-opacity="1" stroke-width="0.851" d=" M-2.2260000705718994,-2.2219998836517334 C-2.2260000705718994,-2.2219998836517334 2.2260000705718994,2.2219998836517334 2.2260000705718994,2.2219998836517334"></path></g><g opacity="1" transform="matrix(1,0,0,1,339.65301513671875,478.2489929199219)"><path stroke-linecap="butt" stroke-linejoin="miter" fill-opacity="0" stroke-miterlimit="10" stroke="rgb(42,160,137)" stroke-opacity="1" stroke-width="0.851" d=" M-2.6059999465942383,-1.7050000429153442 C-2.6059999465942383,-1.7050000429153442 2.6059999465942383,1.7050000429153442 2.6059999465942383,1.7050000429153442"></path></g><g opacity="1" transform="matrix(1,0,0,1,335.968994140625,486.15399169921875)"><path stroke-linecap="butt" stroke-linejoin="miter" fill-opacity="0" stroke-miterlimit="10" stroke="rgb(42,160,137)" stroke-opacity="1" stroke-width="0.851" d=" M-2.878999948501587,-1.1180000305175781 C-2.878999948501587,-1.1180000305175781 2.878999948501587,1.1180000305175781 2.878999948501587,1.1180000305175781"></path></g><g opacity="1" transform="matrix(1,0,0,1,333.8760070800781,494.677001953125)"><path stroke-linecap="butt" stroke-linejoin="miter" fill-opacity="0" stroke-miterlimit="10" stroke="rgb(42,160,137)" stroke-opacity="1" stroke-width="0.851" d=" M-3.0350000858306885,-0.4860000014305115 C-3.0350000858306885,-0.4860000014305115 3.0350000858306885,0.4860000014305115 3.0350000858306885,0.4860000014305115"></path></g><g opacity="1" transform="matrix(1,0,0,1,333.4580078125,503.468994140625)"><path stroke-linecap="butt" stroke-linejoin="miter" fill-opacity="0" stroke-miterlimit="10" stroke="rgb(42,160,137)" stroke-opacity="1" stroke-width="0.851" d=" M-3.065999984741211,0.16599999368190765 C-3.065999984741211,0.16599999368190765 3.065999984741211,-0.16599999368190765 3.065999984741211,-0.16599999368190765"></path></g><g opacity="1" transform="matrix(1,0,0,1,334.7349853515625,512.1680297851562)"><path stroke-linecap="butt" stroke-linejoin="miter" fill-opacity="0" stroke-miterlimit="10" stroke="rgb(42,160,137)" stroke-opacity="1" stroke-width="0.851" d=" M-2.9709999561309814,0.8119999766349792 C-2.9709999561309814,0.8119999766349792 2.9709999561309814,-0.8119999766349792 2.9709999561309814,-0.8119999766349792"></path></g><g opacity="1" transform="matrix(1,0,0,1,337.6520080566406,520.4199829101562)"><path stroke-linecap="butt" stroke-linejoin="miter" fill-opacity="0" stroke-miterlimit="10" stroke="rgb(42,160,137)" stroke-opacity="1" stroke-width="0.851" d=" M-2.753999948501587,1.4240000247955322 C-2.753999948501587,1.4240000247955322 2.753999948501587,-1.4240000247955322 2.753999948501587,-1.4240000247955322"></path></g><g opacity="1" transform="matrix(1,0,0,1,342.09100341796875,527.8839721679688)"><path stroke-linecap="butt" stroke-linejoin="miter" fill-opacity="0" stroke-miterlimit="10" stroke="rgb(42,160,137)" stroke-opacity="1" stroke-width="0.851" d=" M-2.424999952316284,1.9780000448226929 C-2.424999952316284,1.9780000448226929 2.424999952316284,-1.9780000448226929 2.424999952316284,-1.9780000448226929"></path></g><g opacity="1" transform="matrix(1,0,0,1,347.8699951171875,534.2559814453125)"><path stroke-linecap="butt" stroke-linejoin="miter" fill-opacity="0" stroke-miterlimit="10" stroke="rgb(42,160,137)" stroke-opacity="1" stroke-width="0.851" d=" M-1.996000051498413,2.4509999752044678 C-1.996000051498413,2.4509999752044678 1.996000051498413,-2.4509999752044678 1.996000051498413,-2.4509999752044678"></path></g><g opacity="1" transform="matrix(1,0,0,1,354.7510070800781,539.2750244140625)"><path stroke-linecap="butt" stroke-linejoin="miter" fill-opacity="0" stroke-miterlimit="10" stroke="rgb(42,160,137)" stroke-opacity="1" stroke-width="0.851" d=" M-1.4859999418258667,2.822999954223633 C-1.4859999418258667,2.822999954223633 1.4859999418258667,-2.822999954223633 1.4859999418258667,-2.822999954223633"></path></g><g opacity="1" transform="matrix(1,0,0,1,362.4530029296875,542.7340087890625)"><path stroke-linecap="butt" stroke-linejoin="miter" fill-opacity="0" stroke-miterlimit="10" stroke="rgb(42,160,137)" stroke-opacity="1" stroke-width="0.851" d=" M-0.9139999747276306,3.0799999237060547 C-0.9139999747276306,3.0799999237060547 0.9139999747276306,-3.0799999237060547 0.9139999747276306,-3.0799999237060547"></path></g><g opacity="1" transform="matrix(1,0,0,1,370.6600036621094,544.4910278320312)"><path stroke-linecap="butt" stroke-linejoin="miter" fill-opacity="0" stroke-miterlimit="10" stroke="rgb(42,160,137)" stroke-opacity="1" stroke-width="0.851" d=" M-0.3050000071525574,3.2100000381469727 C-0.3050000071525574,3.2100000381469727 0.3050000071525574,-3.2100000381469727 0.3050000071525574,-3.2100000381469727"></path></g><g opacity="1" transform="matrix(1,0,0,1,379.0350036621094,544.4760131835938)"><path stroke-linecap="butt" stroke-linejoin="miter" fill-opacity="0" stroke-miterlimit="10" stroke="rgb(42,160,137)" stroke-opacity="1" stroke-width="0.851" d=" M0.3160000145435333,3.2090001106262207 C0.3160000145435333,3.2090001106262207 -0.3160000145435333,-3.2090001106262207 -0.3160000145435333,-3.2090001106262207"></path></g><g opacity="1" transform="matrix(1,0,0,1,387.2359924316406,542.68798828125)"><path stroke-linecap="butt" stroke-linejoin="miter" fill-opacity="0" stroke-miterlimit="10" stroke="rgb(42,160,137)" stroke-opacity="1" stroke-width="0.851" d=" M0.925000011920929,3.0759999752044678 C0.925000011920929,3.0759999752044678 -0.925000011920929,-3.0759999752044678 -0.925000011920929,-3.0759999752044678"></path></g><g opacity="1" transform="matrix(1,0,0,1,394.9259948730469,539.2000122070312)"><path stroke-linecap="butt" stroke-linejoin="miter" fill-opacity="0" stroke-miterlimit="10" stroke="rgb(42,160,137)" stroke-opacity="1" stroke-width="0.851" d=" M1.4950000047683716,2.818000078201294 C1.4950000047683716,2.818000078201294 -1.4950000047683716,-2.818000078201294 -1.4950000047683716,-2.818000078201294"></path></g><g opacity="1" transform="matrix(1,0,0,1,401.7909851074219,534.156005859375)"><path stroke-linecap="butt" stroke-linejoin="miter" fill-opacity="0" stroke-miterlimit="10" stroke="rgb(42,160,137)" stroke-opacity="1" stroke-width="0.851" d=" M2.005000114440918,2.443000078201294 C2.005000114440918,2.443000078201294 -2.005000114440918,-2.443000078201294 -2.005000114440918,-2.443000078201294"></path></g><g opacity="1" transform="matrix(1,0,0,1,407.5480041503906,527.7630004882812)"><path stroke-linecap="butt" stroke-linejoin="miter" fill-opacity="0" stroke-miterlimit="10" stroke="rgb(42,160,137)" stroke-opacity="1" stroke-width="0.851" d=" M2.431999921798706,1.968999981880188 C2.431999921798706,1.968999981880188 -2.431999921798706,-1.968999981880188 -2.431999921798706,-1.968999981880188"></path></g><g opacity="1" transform="matrix(1,0,0,1,411.9620056152344,520.281982421875)"><path stroke-linecap="butt" stroke-linejoin="miter" fill-opacity="0" stroke-miterlimit="10" stroke="rgb(42,160,137)" stroke-opacity="1" stroke-width="0.851" d=" M2.759000062942505,1.4140000343322754 C2.759000062942505,1.4140000343322754 -2.759000062942505,-1.4140000343322754 -2.759000062942505,-1.4140000343322754"></path></g><g opacity="1" transform="matrix(1,0,0,1,414.85101318359375,512.02001953125)"><path stroke-linecap="butt" stroke-linejoin="miter" fill-opacity="0" stroke-miterlimit="10" stroke="rgb(42,160,137)" stroke-opacity="1" stroke-width="0.851" d=" M2.9739999771118164,0.8009999990463257 C2.9739999771118164,0.8009999990463257 -2.9739999771118164,-0.8009999990463257 -2.9739999771118164,-0.8009999990463257"></path></g><g opacity="1" transform="matrix(1,0,0,1,416.0979919433594,503.31500244140625)"><path stroke-linecap="butt" stroke-linejoin="miter" fill-opacity="0" stroke-miterlimit="10" stroke="rgb(42,160,137)" stroke-opacity="1" stroke-width="0.851" d=" M3.065999984741211,0.1550000011920929 C3.065999984741211,0.1550000011920929 -3.065999984741211,-0.1550000011920929 -3.065999984741211,-0.1550000011920929"></path></g><g opacity="1" transform="matrix(1,0,0,1,415.6520080566406,494.5260009765625)"><path stroke-linecap="butt" stroke-linejoin="miter" fill-opacity="0" stroke-miterlimit="10" stroke="rgb(42,160,137)" stroke-opacity="1" stroke-width="0.851" d=" M3.0329999923706055,-0.4970000088214874 C3.0329999923706055,-0.4970000088214874 -3.0329999923706055,0.4970000088214874 -3.0329999923706055,0.4970000088214874"></path></g><g opacity="1" transform="matrix(1,0,0,1,413.5299987792969,486.010009765625)"><path stroke-linecap="butt" stroke-linejoin="miter" fill-opacity="0" stroke-miterlimit="10" stroke="rgb(42,160,137)" stroke-opacity="1" stroke-width="0.851" d=" M2.875999927520752,-1.128999948501587 C2.875999927520752,-1.128999948501587 -2.875999927520752,1.128999948501587 -2.875999927520752,1.128999948501587"></path></g><g opacity="1" transform="matrix(1,0,0,1,409.8190002441406,478.1189880371094)"><path stroke-linecap="butt" stroke-linejoin="miter" fill-opacity="0" stroke-miterlimit="10" stroke="rgb(42,160,137)" stroke-opacity="1" stroke-width="0.851" d=" M2.5999999046325684,-1.715000033378601 C2.5999999046325684,-1.715000033378601 -2.5999999046325684,1.715000033378601 -2.5999999046325684,1.715000033378601"></path></g><g opacity="1" transform="matrix(1,0,0,1,404.6730041503906,471.17401123046875)"><path stroke-linecap="butt" stroke-linejoin="miter" fill-opacity="0" stroke-miterlimit="10" stroke="rgb(42,160,137)" stroke-opacity="1" stroke-width="0.851" d=" M2.2179999351501465,-2.2300000190734863 C2.2179999351501465,-2.2300000190734863 -2.2179999351501465,2.2300000190734863 -2.2179999351501465,2.2300000190734863"></path></g><g opacity="1" transform="matrix(1,0,0,1,398.29998779296875,465.46099853515625)"><path stroke-linecap="butt" stroke-linejoin="miter" fill-opacity="0" stroke-miterlimit="10" stroke="rgb(42,160,137)" stroke-opacity="1" stroke-width="0.851" d=" M1.746000051498413,-2.6540000438690186 C1.746000051498413,-2.6540000438690186 -1.746000051498413,2.6540000438690186 -1.746000051498413,2.6540000438690186"></path></g><g opacity="1" transform="matrix(1,0,0,1,390.9639892578125,461.2139892578125)"><path stroke-linecap="butt" stroke-linejoin="miter" fill-opacity="0" stroke-miterlimit="10" stroke="rgb(42,160,137)" stroke-opacity="1" stroke-width="0.851" d=" M1.2009999752044678,-2.9690001010894775 C1.2009999752044678,-2.9690001010894775 -1.2009999752044678,2.9690001010894775 -1.2009999752044678,2.9690001010894775"></path></g><g opacity="1" transform="matrix(1,0,0,1,382.9639892578125,458.60699462890625)"><path stroke-linecap="butt" stroke-linejoin="miter" fill-opacity="0" stroke-miterlimit="10" stroke="rgb(42,160,137)" stroke-opacity="1" stroke-width="0.851" d=" M0.6079999804496765,-3.1619999408721924 C0.6079999804496765,-3.1619999408721924 -0.6079999804496765,3.1619999408721924 -0.6079999804496765,3.1619999408721924"></path></g></g></g></g></g><g transform="matrix(1.0695534944534302,0,0,1.0695534944534302,-40.5679931640625,-64.8321533203125)" opacity="1" style="display: block;"><g opacity="1" transform="matrix(1,0,0,1,625.6599731445312,478.7449951171875)"><path fill="rgb(27,242,203)" fill-opacity="1" d=" M50.39699935913086,0 C50.39699935913086,27.090999603271484 27.833999633789062,49.051998138427734 0,49.051998138427734 C-27.833999633789062,49.051998138427734 -50.39699935913086,27.090999603271484 -50.39699935913086,0 C-50.39699935913086,-27.090999603271484 -27.833999633789062,-49.051998138427734 0,-49.051998138427734 C27.833999633789062,-49.051998138427734 50.39699935913086,-27.090999603271484 50.39699935913086,0z"></path><path stroke-linecap="butt" stroke-linejoin="miter" fill-opacity="0" stroke-miterlimit="10" stroke="rgb(32,15,81)" stroke-opacity="1" stroke-width="2" d=" M50.39699935913086,0 C50.39699935913086,27.090999603271484 27.833999633789062,49.051998138427734 0,49.051998138427734 C-27.833999633789062,49.051998138427734 -50.39699935913086,27.090999603271484 -50.39699935913086,0 C-50.39699935913086,-27.090999603271484 -27.833999633789062,-49.051998138427734 0,-49.051998138427734 C27.833999633789062,-49.051998138427734 50.39699935913086,-27.090999603271484 50.39699935913086,0z"></path></g><g opacity="1" transform="matrix(1,0,0,1,0,0)"><g opacity="1" transform="matrix(1,0,0,1,630.6950073242188,478.7449951171875)"><path fill="rgb(27,242,203)" fill-opacity="1" d=" M46.67399978637695,0.0020000000949949026 C46.67399978637695,10.46500015258789 43.55799865722656,20.166000366210938 38.242000579833984,28.1299991607666 C29.801000595092773,40.78099822998047 15.821999549865723,49.05099868774414 0,49.05099868774414 C-25.777999877929688,49.05099868774414 -46.67399978637695,27.090999603271484 -46.67399978637695,0.0020000000949949026 C-46.67399978637695,-12.133999824523926 -42.486000061035156,-23.231000900268555 -35.542999267578125,-31.795000076293945 C-26.982999801635742,-42.35599899291992 -14.234000205993652,-49.05099868774414 0,-49.05099868774414 C25.777999877929688,-49.05099868774414 46.67399978637695,-27.091999053955078 46.67399978637695,0.0020000000949949026z"></path><path stroke-linecap="butt" stroke-linejoin="miter" fill-opacity="0" stroke-miterlimit="10" stroke="rgb(32,15,81)" stroke-opacity="1" stroke-width="2" d=" M46.67399978637695,0.0020000000949949026 C46.67399978637695,10.46500015258789 43.55799865722656,20.166000366210938 38.242000579833984,28.1299991607666 C29.801000595092773,40.78099822998047 15.821999549865723,49.05099868774414 0,49.05099868774414 C-25.777999877929688,49.05099868774414 -46.67399978637695,27.090999603271484 -46.67399978637695,0.0020000000949949026 C-46.67399978637695,-12.133999824523926 -42.486000061035156,-23.231000900268555 -35.542999267578125,-31.795000076293945 C-26.982999801635742,-42.35599899291992 -14.234000205993652,-49.05099868774414 0,-49.05099868774414 C25.777999877929688,-49.05099868774414 46.67399978637695,-27.091999053955078 46.67399978637695,0.0020000000949949026z"></path></g><g opacity="1" transform="matrix(1,0,0,1,0,0)"><g opacity="1" transform="matrix(1,0,0,1,635.6400146484375,474.1289978027344)"><path fill="rgb(27,224,188)" fill-opacity="1" d=" M30.886999130249023,4.617000102996826 C30.886999130249023,15.96399974822998 26.108999252319336,26.14299964904785 18.54800033569336,33.04199981689453 C24.659000396728516,26.288999557495117 28.395999908447266,17.160999298095703 28.395999908447266,7.109000205993652 C28.395999908447266,-13.687000274658203 12.348999977111816,-30.551000595092773 -7.443999767303467,-30.551000595092773 C-16.416000366210938,-30.551000595092773 -24.610000610351562,-27.086999893188477 -30.886999130249023,-21.364999771118164 C-24.35700035095215,-28.555999755859375 -15.151000022888184,-33.04199981689453 -4.942999839782715,-33.04199981689453 C14.840999603271484,-33.04199981689453 30.886999130249023,-16.179000854492188 30.886999130249023,4.617000102996826z"></path></g><g opacity="1" transform="matrix(1,0,0,1,0,0)"><g opacity="1" transform="matrix(1,0,0,1,630.6950073242188,435.2650146484375)"><path stroke-linecap="butt" stroke-linejoin="miter" fill-opacity="0" stroke-miterlimit="10" stroke="rgb(42,160,137)" stroke-opacity="1" stroke-width="0.851" d=" M0,-3.2260000705718994 C0,-3.2260000705718994 0,3.2260000705718994 0,3.2260000705718994"></path></g><g opacity="1" transform="matrix(1,0,0,1,622.3619995117188,436.156005859375)"><path stroke-linecap="butt" stroke-linejoin="miter" fill-opacity="0" stroke-miterlimit="10" stroke="rgb(42,160,137)" stroke-opacity="1" stroke-width="0.851" d=" M-0.6179999709129333,-3.1600000858306885 C-0.6179999709129333,-3.1600000858306885 0.6179999709129333,3.1600000858306885 0.6179999709129333,3.1600000858306885"></path></g><g opacity="1" transform="matrix(1,0,0,1,614.3709716796875,438.7929992675781)"><path stroke-linecap="butt" stroke-linejoin="miter" fill-opacity="0" stroke-miterlimit="10" stroke="rgb(42,160,137)" stroke-opacity="1" stroke-width="0.851" d=" M-1.2109999656677246,-2.9639999866485596 C-1.2109999656677246,-2.9639999866485596 1.2109999656677246,2.9639999866485596 1.2109999656677246,2.9639999866485596"></path></g><g opacity="1" transform="matrix(1,0,0,1,607.0490112304688,443.0669860839844)"><path stroke-linecap="butt" stroke-linejoin="miter" fill-opacity="0" stroke-miterlimit="10" stroke="rgb(42,160,137)" stroke-opacity="1" stroke-width="0.851" d=" M-1.753999948501587,-2.6470000743865967 C-1.753999948501587,-2.6470000743865967 1.753999948501587,2.6470000743865967 1.753999948501587,2.6470000743865967"></path></g><g opacity="1" transform="matrix(1,0,0,1,600.6959838867188,448.8030090332031)"><path stroke-linecap="butt" stroke-linejoin="miter" fill-opacity="0" stroke-miterlimit="10" stroke="rgb(42,160,137)" stroke-opacity="1" stroke-width="0.851" d=" M-2.2260000705718994,-2.2219998836517334 C-2.2260000705718994,-2.2219998836517334 2.2260000705718994,2.2219998836517334 2.2260000705718994,2.2219998836517334"></path></g><g opacity="1" transform="matrix(1,0,0,1,595.572998046875,455.7669982910156)"><path stroke-linecap="butt" stroke-linejoin="miter" fill-opacity="0" stroke-miterlimit="10" stroke="rgb(42,160,137)" stroke-opacity="1" stroke-width="0.851" d=" M-2.6059999465942383,-1.7050000429153442 C-2.6059999465942383,-1.7050000429153442 2.6059999465942383,1.7050000429153442 2.6059999465942383,1.7050000429153442"></path></g><g opacity="1" transform="matrix(1,0,0,1,591.8889770507812,463.6719970703125)"><path stroke-linecap="butt" stroke-linejoin="miter" fill-opacity="0" stroke-miterlimit="10" stroke="rgb(42,160,137)" stroke-opacity="1" stroke-width="0.851" d=" M-2.878999948501587,-1.1180000305175781 C-2.878999948501587,-1.1180000305175781 2.878999948501587,1.1180000305175781 2.878999948501587,1.1180000305175781"></path></g><g opacity="1" transform="matrix(1,0,0,1,589.7949829101562,472.19500732421875)"><path stroke-linecap="butt" stroke-linejoin="miter" fill-opacity="0" stroke-miterlimit="10" stroke="rgb(42,160,137)" stroke-opacity="1" stroke-width="0.851" d=" M-3.0350000858306885,-0.4860000014305115 C-3.0350000858306885,-0.4860000014305115 3.0350000858306885,0.4860000014305115 3.0350000858306885,0.4860000014305115"></path></g><g opacity="1" transform="matrix(1,0,0,1,589.3779907226562,480.98699951171875)"><path stroke-linecap="butt" stroke-linejoin="miter" fill-opacity="0" stroke-miterlimit="10" stroke="rgb(42,160,137)" stroke-opacity="1" stroke-width="0.851" d=" M-3.065999984741211,0.16599999368190765 C-3.065999984741211,0.16599999368190765 3.065999984741211,-0.16599999368190765 3.065999984741211,-0.16599999368190765"></path></g><g opacity="1" transform="matrix(1,0,0,1,590.655029296875,489.68701171875)"><path stroke-linecap="butt" stroke-linejoin="miter" fill-opacity="0" stroke-miterlimit="10" stroke="rgb(42,160,137)" stroke-opacity="1" stroke-width="0.851" d=" M-2.9709999561309814,0.8119999766349792 C-2.9709999561309814,0.8119999766349792 2.9709999561309814,-0.8119999766349792 2.9709999561309814,-0.8119999766349792"></path></g><g opacity="1" transform="matrix(1,0,0,1,593.572021484375,497.93798828125)"><path stroke-linecap="butt" stroke-linejoin="miter" fill-opacity="0" stroke-miterlimit="10" stroke="rgb(42,160,137)" stroke-opacity="1" stroke-width="0.851" d=" M-2.753999948501587,1.4240000247955322 C-2.753999948501587,1.4240000247955322 2.753999948501587,-1.4240000247955322 2.753999948501587,-1.4240000247955322"></path></g><g opacity="1" transform="matrix(1,0,0,1,598.010986328125,505.4020080566406)"><path stroke-linecap="butt" stroke-linejoin="miter" fill-opacity="0" stroke-miterlimit="10" stroke="rgb(42,160,137)" stroke-opacity="1" stroke-width="0.851" d=" M-2.424999952316284,1.9780000448226929 C-2.424999952316284,1.9780000448226929 2.424999952316284,-1.9780000448226929 2.424999952316284,-1.9780000448226929"></path></g><g opacity="1" transform="matrix(1,0,0,1,603.7890014648438,511.77398681640625)"><path stroke-linecap="butt" stroke-linejoin="miter" fill-opacity="0" stroke-miterlimit="10" stroke="rgb(42,160,137)" stroke-opacity="1" stroke-width="0.851" d=" M-1.996000051498413,2.4509999752044678 C-1.996000051498413,2.4509999752044678 1.996000051498413,-2.4509999752044678 1.996000051498413,-2.4509999752044678"></path></g><g opacity="1" transform="matrix(1,0,0,1,610.6710205078125,516.7930297851562)"><path stroke-linecap="butt" stroke-linejoin="miter" fill-opacity="0" stroke-miterlimit="10" stroke="rgb(42,160,137)" stroke-opacity="1" stroke-width="0.851" d=" M-1.4859999418258667,2.822999954223633 C-1.4859999418258667,2.822999954223633 1.4859999418258667,-2.822999954223633 1.4859999418258667,-2.822999954223633"></path></g><g opacity="1" transform="matrix(1,0,0,1,618.3729858398438,520.2520141601562)"><path stroke-linecap="butt" stroke-linejoin="miter" fill-opacity="0" stroke-miterlimit="10" stroke="rgb(42,160,137)" stroke-opacity="1" stroke-width="0.851" d=" M-0.9139999747276306,3.0799999237060547 C-0.9139999747276306,3.0799999237060547 0.9139999747276306,-3.0799999237060547 0.9139999747276306,-3.0799999237060547"></path></g><g opacity="1" transform="matrix(1,0,0,1,626.5789794921875,522.0089721679688)"><path stroke-linecap="butt" stroke-linejoin="miter" fill-opacity="0" stroke-miterlimit="10" stroke="rgb(42,160,137)" stroke-opacity="1" stroke-width="0.851" d=" M-0.3050000071525574,3.2100000381469727 C-0.3050000071525574,3.2100000381469727 0.3050000071525574,-3.2100000381469727 0.3050000071525574,-3.2100000381469727"></path></g><g opacity="1" transform="matrix(1,0,0,1,634.9550170898438,521.9940185546875)"><path stroke-linecap="butt" stroke-linejoin="miter" fill-opacity="0" stroke-miterlimit="10" stroke="rgb(42,160,137)" stroke-opacity="1" stroke-width="0.851" d=" M0.3160000145435333,3.2090001106262207 C0.3160000145435333,3.2090001106262207 -0.3160000145435333,-3.2090001106262207 -0.3160000145435333,-3.2090001106262207"></path></g><g opacity="1" transform="matrix(1,0,0,1,643.156005859375,520.2059936523438)"><path stroke-linecap="butt" stroke-linejoin="miter" fill-opacity="0" stroke-miterlimit="10" stroke="rgb(42,160,137)" stroke-opacity="1" stroke-width="0.851" d=" M0.925000011920929,3.0759999752044678 C0.925000011920929,3.0759999752044678 -0.925000011920929,-3.0759999752044678 -0.925000011920929,-3.0759999752044678"></path></g><g opacity="1" transform="matrix(1,0,0,1,650.8460083007812,516.718017578125)"><path stroke-linecap="butt" stroke-linejoin="miter" fill-opacity="0" stroke-miterlimit="10" stroke="rgb(42,160,137)" stroke-opacity="1" stroke-width="0.851" d=" M1.4950000047683716,2.818000078201294 C1.4950000047683716,2.818000078201294 -1.4950000047683716,-2.818000078201294 -1.4950000047683716,-2.818000078201294"></path></g><g opacity="1" transform="matrix(1,0,0,1,657.7109985351562,511.67401123046875)"><path stroke-linecap="butt" stroke-linejoin="miter" fill-opacity="0" stroke-miterlimit="10" stroke="rgb(42,160,137)" stroke-opacity="1" stroke-width="0.851" d=" M2.005000114440918,2.443000078201294 C2.005000114440918,2.443000078201294 -2.005000114440918,-2.443000078201294 -2.005000114440918,-2.443000078201294"></path></g><g opacity="1" transform="matrix(1,0,0,1,663.468017578125,505.281005859375)"><path stroke-linecap="butt" stroke-linejoin="miter" fill-opacity="0" stroke-miterlimit="10" stroke="rgb(42,160,137)" stroke-opacity="1" stroke-width="0.851" d=" M2.431999921798706,1.968999981880188 C2.431999921798706,1.968999981880188 -2.431999921798706,-1.968999981880188 -2.431999921798706,-1.968999981880188"></path></g><g opacity="1" transform="matrix(1,0,0,1,667.8809814453125,497.79998779296875)"><path stroke-linecap="butt" stroke-linejoin="miter" fill-opacity="0" stroke-miterlimit="10" stroke="rgb(42,160,137)" stroke-opacity="1" stroke-width="0.851" d=" M2.759000062942505,1.4140000343322754 C2.759000062942505,1.4140000343322754 -2.759000062942505,-1.4140000343322754 -2.759000062942505,-1.4140000343322754"></path></g><g opacity="1" transform="matrix(1,0,0,1,670.77099609375,489.5379943847656)"><path stroke-linecap="butt" stroke-linejoin="miter" fill-opacity="0" stroke-miterlimit="10" stroke="rgb(42,160,137)" stroke-opacity="1" stroke-width="0.851" d=" M2.9739999771118164,0.8009999990463257 C2.9739999771118164,0.8009999990463257 -2.9739999771118164,-0.8009999990463257 -2.9739999771118164,-0.8009999990463257"></path></g><g opacity="1" transform="matrix(1,0,0,1,672.0180053710938,480.8340148925781)"><path stroke-linecap="butt" stroke-linejoin="miter" fill-opacity="0" stroke-miterlimit="10" stroke="rgb(42,160,137)" stroke-opacity="1" stroke-width="0.851" d=" M3.065999984741211,0.1550000011920929 C3.065999984741211,0.1550000011920929 -3.065999984741211,-0.1550000011920929 -3.065999984741211,-0.1550000011920929"></path></g><g opacity="1" transform="matrix(1,0,0,1,671.572021484375,472.04400634765625)"><path stroke-linecap="butt" stroke-linejoin="miter" fill-opacity="0" stroke-miterlimit="10" stroke="rgb(42,160,137)" stroke-opacity="1" stroke-width="0.851" d=" M3.0329999923706055,-0.4970000088214874 C3.0329999923706055,-0.4970000088214874 -3.0329999923706055,0.4970000088214874 -3.0329999923706055,0.4970000088214874"></path></g><g opacity="1" transform="matrix(1,0,0,1,669.4500122070312,463.52801513671875)"><path stroke-linecap="butt" stroke-linejoin="miter" fill-opacity="0" stroke-miterlimit="10" stroke="rgb(42,160,137)" stroke-opacity="1" stroke-width="0.851" d=" M2.875999927520752,-1.128999948501587 C2.875999927520752,-1.128999948501587 -2.875999927520752,1.128999948501587 -2.875999927520752,1.128999948501587"></path></g><g opacity="1" transform="matrix(1,0,0,1,665.739013671875,455.6369934082031)"><path stroke-linecap="butt" stroke-linejoin="miter" fill-opacity="0" stroke-miterlimit="10" stroke="rgb(42,160,137)" stroke-opacity="1" stroke-width="0.851" d=" M2.5999999046325684,-1.715000033378601 C2.5999999046325684,-1.715000033378601 -2.5999999046325684,1.715000033378601 -2.5999999046325684,1.715000033378601"></path></g><g opacity="1" transform="matrix(1,0,0,1,660.5919799804688,448.6919860839844)"><path stroke-linecap="butt" stroke-linejoin="miter" fill-opacity="0" stroke-miterlimit="10" stroke="rgb(42,160,137)" stroke-opacity="1" stroke-width="0.851" d=" M2.2179999351501465,-2.2300000190734863 C2.2179999351501465,-2.2300000190734863 -2.2179999351501465,2.2300000190734863 -2.2179999351501465,2.2300000190734863"></path></g><g opacity="1" transform="matrix(1,0,0,1,654.219970703125,442.97900390625)"><path stroke-linecap="butt" stroke-linejoin="miter" fill-opacity="0" stroke-miterlimit="10" stroke="rgb(42,160,137)" stroke-opacity="1" stroke-width="0.851" d=" M1.746000051498413,-2.6540000438690186 C1.746000051498413,-2.6540000438690186 -1.746000051498413,2.6540000438690186 -1.746000051498413,2.6540000438690186"></path></g><g opacity="1" transform="matrix(1,0,0,1,646.8839721679688,438.73199462890625)"><path stroke-linecap="butt" stroke-linejoin="miter" fill-opacity="0" stroke-miterlimit="10" stroke="rgb(42,160,137)" stroke-opacity="1" stroke-width="0.851" d=" M1.2009999752044678,-2.9690001010894775 C1.2009999752044678,-2.9690001010894775 -1.2009999752044678,2.9690001010894775 -1.2009999752044678,2.9690001010894775"></path></g><g opacity="1" transform="matrix(1,0,0,1,638.8839721679688,436.1260070800781)"><path stroke-linecap="butt" stroke-linejoin="miter" fill-opacity="0" stroke-miterlimit="10" stroke="rgb(42,160,137)" stroke-opacity="1" stroke-width="0.851" d=" M0.6079999804496765,-3.1619999408721924 C0.6079999804496765,-3.1619999408721924 -0.6079999804496765,3.1619999408721924 -0.6079999804496765,3.1619999408721924"></path></g></g></g></g></g><g transform="matrix(1.0139459371566772,0,0,1.0139459371566772,-6.10980224609375,-33.805206298828125)" opacity="1" style="display: block;"><g opacity="1" transform="matrix(1,0,0,1,400.39599609375,383.2139892578125)"><path fill="rgb(27,242,203)" fill-opacity="1" d=" M50.39699935913086,0 C50.39699935913086,27.090999603271484 27.833999633789062,49.051998138427734 0,49.051998138427734 C-27.833999633789062,49.051998138427734 -50.39699935913086,27.090999603271484 -50.39699935913086,0 C-50.39699935913086,-27.090999603271484 -27.833999633789062,-49.051998138427734 0,-49.051998138427734 C27.833999633789062,-49.051998138427734 50.39699935913086,-27.090999603271484 50.39699935913086,0z"></path><path stroke-linecap="butt" stroke-linejoin="miter" fill-opacity="0" stroke-miterlimit="10" stroke="rgb(32,15,81)" stroke-opacity="1" stroke-width="2" d=" M50.39699935913086,0 C50.39699935913086,27.090999603271484 27.833999633789062,49.051998138427734 0,49.051998138427734 C-27.833999633789062,49.051998138427734 -50.39699935913086,27.090999603271484 -50.39699935913086,0 C-50.39699935913086,-27.090999603271484 -27.833999633789062,-49.051998138427734 0,-49.051998138427734 C27.833999633789062,-49.051998138427734 50.39699935913086,-27.090999603271484 50.39699935913086,0z"></path></g><g opacity="1" transform="matrix(1,0,0,1,0,0)"><g opacity="1" transform="matrix(1,0,0,1,405.4309997558594,383.2139892578125)"><path fill="rgb(27,242,203)" fill-opacity="1" d=" M46.67399978637695,0.0020000000949949026 C46.67399978637695,10.46500015258789 43.55799865722656,20.166000366210938 38.242000579833984,28.1299991607666 C29.801000595092773,40.78099822998047 15.821999549865723,49.05099868774414 0,49.05099868774414 C-25.777999877929688,49.05099868774414 -46.67399978637695,27.090999603271484 -46.67399978637695,0.0020000000949949026 C-46.67399978637695,-12.133999824523926 -42.486000061035156,-23.231000900268555 -35.542999267578125,-31.795000076293945 C-26.982999801635742,-42.35599899291992 -14.234000205993652,-49.05099868774414 0,-49.05099868774414 C25.777999877929688,-49.05099868774414 46.67399978637695,-27.091999053955078 46.67399978637695,0.0020000000949949026z"></path><path stroke-linecap="butt" stroke-linejoin="miter" fill-opacity="0" stroke-miterlimit="10" stroke="rgb(32,15,81)" stroke-opacity="1" stroke-width="2" d=" M46.67399978637695,0.0020000000949949026 C46.67399978637695,10.46500015258789 43.55799865722656,20.166000366210938 38.242000579833984,28.1299991607666 C29.801000595092773,40.78099822998047 15.821999549865723,49.05099868774414 0,49.05099868774414 C-25.777999877929688,49.05099868774414 -46.67399978637695,27.090999603271484 -46.67399978637695,0.0020000000949949026 C-46.67399978637695,-12.133999824523926 -42.486000061035156,-23.231000900268555 -35.542999267578125,-31.795000076293945 C-26.982999801635742,-42.35599899291992 -14.234000205993652,-49.05099868774414 0,-49.05099868774414 C25.777999877929688,-49.05099868774414 46.67399978637695,-27.091999053955078 46.67399978637695,0.0020000000949949026z"></path></g><g opacity="1" transform="matrix(1,0,0,1,0,0)"><g opacity="1" transform="matrix(1,0,0,1,410.3760070800781,378.5979919433594)"><path fill="rgb(27,224,188)" fill-opacity="1" d=" M30.886999130249023,4.617000102996826 C30.886999130249023,15.96399974822998 26.108999252319336,26.14299964904785 18.54800033569336,33.04199981689453 C24.659000396728516,26.288999557495117 28.395999908447266,17.160999298095703 28.395999908447266,7.109000205993652 C28.395999908447266,-13.687000274658203 12.348999977111816,-30.551000595092773 -7.443999767303467,-30.551000595092773 C-16.416000366210938,-30.551000595092773 -24.610000610351562,-27.086999893188477 -30.886999130249023,-21.364999771118164 C-24.35700035095215,-28.555999755859375 -15.151000022888184,-33.04199981689453 -4.942999839782715,-33.04199981689453 C14.840999603271484,-33.04199981689453 30.886999130249023,-16.179000854492188 30.886999130249023,4.617000102996826z"></path></g><g opacity="1" transform="matrix(1,0,0,1,0,0)"><g opacity="1" transform="matrix(1,0,0,1,405.4309997558594,339.7340087890625)"><path stroke-linecap="butt" stroke-linejoin="miter" fill-opacity="0" stroke-miterlimit="10" stroke="rgb(42,160,137)" stroke-opacity="1" stroke-width="0.851" d=" M0,-3.2260000705718994 C0,-3.2260000705718994 0,3.2260000705718994 0,3.2260000705718994"></path></g><g opacity="1" transform="matrix(1,0,0,1,397.0979919433594,340.625)"><path stroke-linecap="butt" stroke-linejoin="miter" fill-opacity="0" stroke-miterlimit="10" stroke="rgb(42,160,137)" stroke-opacity="1" stroke-width="0.851" d=" M-0.6179999709129333,-3.1600000858306885 C-0.6179999709129333,-3.1600000858306885 0.6179999709129333,3.1600000858306885 0.6179999709129333,3.1600000858306885"></path></g><g opacity="1" transform="matrix(1,0,0,1,389.10699462890625,343.2619934082031)"><path stroke-linecap="butt" stroke-linejoin="miter" fill-opacity="0" stroke-miterlimit="10" stroke="rgb(42,160,137)" stroke-opacity="1" stroke-width="0.851" d=" M-1.2109999656677246,-2.9639999866485596 C-1.2109999656677246,-2.9639999866485596 1.2109999656677246,2.9639999866485596 1.2109999656677246,2.9639999866485596"></path></g><g opacity="1" transform="matrix(1,0,0,1,381.7850036621094,347.5360107421875)"><path stroke-linecap="butt" stroke-linejoin="miter" fill-opacity="0" stroke-miterlimit="10" stroke="rgb(42,160,137)" stroke-opacity="1" stroke-width="0.851" d=" M-1.753999948501587,-2.6470000743865967 C-1.753999948501587,-2.6470000743865967 1.753999948501587,2.6470000743865967 1.753999948501587,2.6470000743865967"></path></g><g opacity="1" transform="matrix(1,0,0,1,375.4320068359375,353.2720031738281)"><path stroke-linecap="butt" stroke-linejoin="miter" fill-opacity="0" stroke-miterlimit="10" stroke="rgb(42,160,137)" stroke-opacity="1" stroke-width="0.851" d=" M-2.2260000705718994,-2.2219998836517334 C-2.2260000705718994,-2.2219998836517334 2.2260000705718994,2.2219998836517334 2.2260000705718994,2.2219998836517334"></path></g><g opacity="1" transform="matrix(1,0,0,1,370.3089904785156,360.2359924316406)"><path stroke-linecap="butt" stroke-linejoin="miter" fill-opacity="0" stroke-miterlimit="10" stroke="rgb(42,160,137)" stroke-opacity="1" stroke-width="0.851" d=" M-2.6059999465942383,-1.7050000429153442 C-2.6059999465942383,-1.7050000429153442 2.6059999465942383,1.7050000429153442 2.6059999465942383,1.7050000429153442"></path></g><g opacity="1" transform="matrix(1,0,0,1,366.625,368.1409912109375)"><path stroke-linecap="butt" stroke-linejoin="miter" fill-opacity="0" stroke-miterlimit="10" stroke="rgb(42,160,137)" stroke-opacity="1" stroke-width="0.851" d=" M-2.878999948501587,-1.1180000305175781 C-2.878999948501587,-1.1180000305175781 2.878999948501587,1.1180000305175781 2.878999948501587,1.1180000305175781"></path></g><g opacity="1" transform="matrix(1,0,0,1,364.5320129394531,376.66400146484375)"><path stroke-linecap="butt" stroke-linejoin="miter" fill-opacity="0" stroke-miterlimit="10" stroke="rgb(42,160,137)" stroke-opacity="1" stroke-width="0.851" d=" M-3.0350000858306885,-0.4860000014305115 C-3.0350000858306885,-0.4860000014305115 3.0350000858306885,0.4860000014305115 3.0350000858306885,0.4860000014305115"></path></g><g opacity="1" transform="matrix(1,0,0,1,364.114990234375,385.45599365234375)"><path stroke-linecap="butt" stroke-linejoin="miter" fill-opacity="0" stroke-miterlimit="10" stroke="rgb(42,160,137)" stroke-opacity="1" stroke-width="0.851" d=" M-3.065999984741211,0.16599999368190765 C-3.065999984741211,0.16599999368190765 3.065999984741211,-0.16599999368190765 3.065999984741211,-0.16599999368190765"></path></g><g opacity="1" transform="matrix(1,0,0,1,365.3909912109375,394.1549987792969)"><path stroke-linecap="butt" stroke-linejoin="miter" fill-opacity="0" stroke-miterlimit="10" stroke="rgb(42,160,137)" stroke-opacity="1" stroke-width="0.851" d=" M-2.9709999561309814,0.8119999766349792 C-2.9709999561309814,0.8119999766349792 2.9709999561309814,-0.8119999766349792 2.9709999561309814,-0.8119999766349792"></path></g><g opacity="1" transform="matrix(1,0,0,1,368.3080139160156,402.4070129394531)"><path stroke-linecap="butt" stroke-linejoin="miter" fill-opacity="0" stroke-miterlimit="10" stroke="rgb(42,160,137)" stroke-opacity="1" stroke-width="0.851" d=" M-2.753999948501587,1.4240000247955322 C-2.753999948501587,1.4240000247955322 2.753999948501587,-1.4240000247955322 2.753999948501587,-1.4240000247955322"></path></g><g opacity="1" transform="matrix(1,0,0,1,372.74700927734375,409.8710021972656)"><path stroke-linecap="butt" stroke-linejoin="miter" fill-opacity="0" stroke-miterlimit="10" stroke="rgb(42,160,137)" stroke-opacity="1" stroke-width="0.851" d=" M-2.424999952316284,1.9780000448226929 C-2.424999952316284,1.9780000448226929 2.424999952316284,-1.9780000448226929 2.424999952316284,-1.9780000448226929"></path></g><g opacity="1" transform="matrix(1,0,0,1,378.5260009765625,416.2430114746094)"><path stroke-linecap="butt" stroke-linejoin="miter" fill-opacity="0" stroke-miterlimit="10" stroke="rgb(42,160,137)" stroke-opacity="1" stroke-width="0.851" d=" M-1.996000051498413,2.4509999752044678 C-1.996000051498413,2.4509999752044678 1.996000051498413,-2.4509999752044678 1.996000051498413,-2.4509999752044678"></path></g><g opacity="1" transform="matrix(1,0,0,1,385.4070129394531,421.2619934082031)"><path stroke-linecap="butt" stroke-linejoin="miter" fill-opacity="0" stroke-miterlimit="10" stroke="rgb(42,160,137)" stroke-opacity="1" stroke-width="0.851" d=" M-1.4859999418258667,2.822999954223633 C-1.4859999418258667,2.822999954223633 1.4859999418258667,-2.822999954223633 1.4859999418258667,-2.822999954223633"></path></g><g opacity="1" transform="matrix(1,0,0,1,393.1090087890625,424.72100830078125)"><path stroke-linecap="butt" stroke-linejoin="miter" fill-opacity="0" stroke-miterlimit="10" stroke="rgb(42,160,137)" stroke-opacity="1" stroke-width="0.851" d=" M-0.9139999747276306,3.0799999237060547 C-0.9139999747276306,3.0799999237060547 0.9139999747276306,-3.0799999237060547 0.9139999747276306,-3.0799999237060547"></path></g><g opacity="1" transform="matrix(1,0,0,1,401.3160095214844,426.4779968261719)"><path stroke-linecap="butt" stroke-linejoin="miter" fill-opacity="0" stroke-miterlimit="10" stroke="rgb(42,160,137)" stroke-opacity="1" stroke-width="0.851" d=" M-0.3050000071525574,3.2100000381469727 C-0.3050000071525574,3.2100000381469727 0.3050000071525574,-3.2100000381469727 0.3050000071525574,-3.2100000381469727"></path></g><g opacity="1" transform="matrix(1,0,0,1,409.6910095214844,426.4630126953125)"><path stroke-linecap="butt" stroke-linejoin="miter" fill-opacity="0" stroke-miterlimit="10" stroke="rgb(42,160,137)" stroke-opacity="1" stroke-width="0.851" d=" M0.3160000145435333,3.2090001106262207 C0.3160000145435333,3.2090001106262207 -0.3160000145435333,-3.2090001106262207 -0.3160000145435333,-3.2090001106262207"></path></g><g opacity="1" transform="matrix(1,0,0,1,417.8919982910156,424.67498779296875)"><path stroke-linecap="butt" stroke-linejoin="miter" fill-opacity="0" stroke-miterlimit="10" stroke="rgb(42,160,137)" stroke-opacity="1" stroke-width="0.851" d=" M0.925000011920929,3.0759999752044678 C0.925000011920929,3.0759999752044678 -0.925000011920929,-3.0759999752044678 -0.925000011920929,-3.0759999752044678"></path></g><g opacity="1" transform="matrix(1,0,0,1,425.5830078125,421.18701171875)"><path stroke-linecap="butt" stroke-linejoin="miter" fill-opacity="0" stroke-miterlimit="10" stroke="rgb(42,160,137)" stroke-opacity="1" stroke-width="0.851" d=" M1.4950000047683716,2.818000078201294 C1.4950000047683716,2.818000078201294 -1.4950000047683716,-2.818000078201294 -1.4950000047683716,-2.818000078201294"></path></g><g opacity="1" transform="matrix(1,0,0,1,432.4469909667969,416.14300537109375)"><path stroke-linecap="butt" stroke-linejoin="miter" fill-opacity="0" stroke-miterlimit="10" stroke="rgb(42,160,137)" stroke-opacity="1" stroke-width="0.851" d=" M2.005000114440918,2.443000078201294 C2.005000114440918,2.443000078201294 -2.005000114440918,-2.443000078201294 -2.005000114440918,-2.443000078201294"></path></g><g opacity="1" transform="matrix(1,0,0,1,438.2040100097656,409.75)"><path stroke-linecap="butt" stroke-linejoin="miter" fill-opacity="0" stroke-miterlimit="10" stroke="rgb(42,160,137)" stroke-opacity="1" stroke-width="0.851" d=" M2.431999921798706,1.968999981880188 C2.431999921798706,1.968999981880188 -2.431999921798706,-1.968999981880188 -2.431999921798706,-1.968999981880188"></path></g><g opacity="1" transform="matrix(1,0,0,1,442.6180114746094,402.2690124511719)"><path stroke-linecap="butt" stroke-linejoin="miter" fill-opacity="0" stroke-miterlimit="10" stroke="rgb(42,160,137)" stroke-opacity="1" stroke-width="0.851" d=" M2.759000062942505,1.4140000343322754 C2.759000062942505,1.4140000343322754 -2.759000062942505,-1.4140000343322754 -2.759000062942505,-1.4140000343322754"></path></g><g opacity="1" transform="matrix(1,0,0,1,445.5069885253906,394.0069885253906)"><path stroke-linecap="butt" stroke-linejoin="miter" fill-opacity="0" stroke-miterlimit="10" stroke="rgb(42,160,137)" stroke-opacity="1" stroke-width="0.851" d=" M2.9739999771118164,0.8009999990463257 C2.9739999771118164,0.8009999990463257 -2.9739999771118164,-0.8009999990463257 -2.9739999771118164,-0.8009999990463257"></path></g><g opacity="1" transform="matrix(1,0,0,1,446.7539978027344,385.302001953125)"><path stroke-linecap="butt" stroke-linejoin="miter" fill-opacity="0" stroke-miterlimit="10" stroke="rgb(42,160,137)" stroke-opacity="1" stroke-width="0.851" d=" M3.065999984741211,0.1550000011920929 C3.065999984741211,0.1550000011920929 -3.065999984741211,-0.1550000011920929 -3.065999984741211,-0.1550000011920929"></path></g><g opacity="1" transform="matrix(1,0,0,1,446.3080139160156,376.5119934082031)"><path stroke-linecap="butt" stroke-linejoin="miter" fill-opacity="0" stroke-miterlimit="10" stroke="rgb(42,160,137)" stroke-opacity="1" stroke-width="0.851" d=" M3.0329999923706055,-0.4970000088214874 C3.0329999923706055,-0.4970000088214874 -3.0329999923706055,0.4970000088214874 -3.0329999923706055,0.4970000088214874"></path></g><g opacity="1" transform="matrix(1,0,0,1,444.1860046386719,367.99700927734375)"><path stroke-linecap="butt" stroke-linejoin="miter" fill-opacity="0" stroke-miterlimit="10" stroke="rgb(42,160,137)" stroke-opacity="1" stroke-width="0.851" d=" M2.875999927520752,-1.128999948501587 C2.875999927520752,-1.128999948501587 -2.875999927520752,1.128999948501587 -2.875999927520752,1.128999948501587"></path></g><g opacity="1" transform="matrix(1,0,0,1,440.4750061035156,360.1059875488281)"><path stroke-linecap="butt" stroke-linejoin="miter" fill-opacity="0" stroke-miterlimit="10" stroke="rgb(42,160,137)" stroke-opacity="1" stroke-width="0.851" d=" M2.5999999046325684,-1.715000033378601 C2.5999999046325684,-1.715000033378601 -2.5999999046325684,1.715000033378601 -2.5999999046325684,1.715000033378601"></path></g><g opacity="1" transform="matrix(1,0,0,1,435.3290100097656,353.1610107421875)"><path stroke-linecap="butt" stroke-linejoin="miter" fill-opacity="0" stroke-miterlimit="10" stroke="rgb(42,160,137)" stroke-opacity="1" stroke-width="0.851" d=" M2.2179999351501465,-2.2300000190734863 C2.2179999351501465,-2.2300000190734863 -2.2179999351501465,2.2300000190734863 -2.2179999351501465,2.2300000190734863"></path></g><g opacity="1" transform="matrix(1,0,0,1,428.9570007324219,347.447998046875)"><path stroke-linecap="butt" stroke-linejoin="miter" fill-opacity="0" stroke-miterlimit="10" stroke="rgb(42,160,137)" stroke-opacity="1" stroke-width="0.851" d=" M1.746000051498413,-2.6540000438690186 C1.746000051498413,-2.6540000438690186 -1.746000051498413,2.6540000438690186 -1.746000051498413,2.6540000438690186"></path></g><g opacity="1" transform="matrix(1,0,0,1,421.6199951171875,343.20098876953125)"><path stroke-linecap="butt" stroke-linejoin="miter" fill-opacity="0" stroke-miterlimit="10" stroke="rgb(42,160,137)" stroke-opacity="1" stroke-width="0.851" d=" M1.2009999752044678,-2.9690001010894775 C1.2009999752044678,-2.9690001010894775 -1.2009999752044678,2.9690001010894775 -1.2009999752044678,2.9690001010894775"></path></g><g opacity="1" transform="matrix(1,0,0,1,413.6199951171875,340.593994140625)"><path stroke-linecap="butt" stroke-linejoin="miter" fill-opacity="0" stroke-miterlimit="10" stroke="rgb(42,160,137)" stroke-opacity="1" stroke-width="0.851" d=" M0.6079999804496765,-3.1619999408721924 C0.6079999804496765,-3.1619999408721924 -0.6079999804496765,3.1619999408721924 -0.6079999804496765,3.1619999408721924"></path></g></g></g></g></g><g transform="matrix(0.7893856167793274,0,0,0.7893856167793274,103.48049926757812,63.97003173828125)" opacity="1" style="display: block;"><g opacity="1" transform="matrix(1,0,0,1,594.9219970703125,363.77801513671875)"><path fill="rgb(27,242,203)" fill-opacity="1" d=" M50.39699935913086,0 C50.39699935913086,27.090999603271484 27.833999633789062,49.051998138427734 0,49.051998138427734 C-27.833999633789062,49.051998138427734 -50.39699935913086,27.090999603271484 -50.39699935913086,0 C-50.39699935913086,-27.090999603271484 -27.833999633789062,-49.051998138427734 0,-49.051998138427734 C27.833999633789062,-49.051998138427734 50.39699935913086,-27.090999603271484 50.39699935913086,0z"></path><path stroke-linecap="butt" stroke-linejoin="miter" fill-opacity="0" stroke-miterlimit="10" stroke="rgb(32,15,81)" stroke-opacity="1" stroke-width="2" d=" M50.39699935913086,0 C50.39699935913086,27.090999603271484 27.833999633789062,49.051998138427734 0,49.051998138427734 C-27.833999633789062,49.051998138427734 -50.39699935913086,27.090999603271484 -50.39699935913086,0 C-50.39699935913086,-27.090999603271484 -27.833999633789062,-49.051998138427734 0,-49.051998138427734 C27.833999633789062,-49.051998138427734 50.39699935913086,-27.090999603271484 50.39699935913086,0z"></path></g><g opacity="1" transform="matrix(1,0,0,1,0,0)"><g opacity="1" transform="matrix(1,0,0,1,599.9569702148438,363.77801513671875)"><path fill="rgb(27,242,203)" fill-opacity="1" d=" M46.67399978637695,0.0020000000949949026 C46.67399978637695,10.46500015258789 43.55799865722656,20.166000366210938 38.242000579833984,28.1299991607666 C29.801000595092773,40.78099822998047 15.821999549865723,49.05099868774414 0,49.05099868774414 C-25.777999877929688,49.05099868774414 -46.67399978637695,27.090999603271484 -46.67399978637695,0.0020000000949949026 C-46.67399978637695,-12.133999824523926 -42.486000061035156,-23.231000900268555 -35.542999267578125,-31.795000076293945 C-26.982999801635742,-42.35599899291992 -14.234000205993652,-49.05099868774414 0,-49.05099868774414 C25.777999877929688,-49.05099868774414 46.67399978637695,-27.091999053955078 46.67399978637695,0.0020000000949949026z"></path><path stroke-linecap="butt" stroke-linejoin="miter" fill-opacity="0" stroke-miterlimit="10" stroke="rgb(32,15,81)" stroke-opacity="1" stroke-width="2" d=" M46.67399978637695,0.0020000000949949026 C46.67399978637695,10.46500015258789 43.55799865722656,20.166000366210938 38.242000579833984,28.1299991607666 C29.801000595092773,40.78099822998047 15.821999549865723,49.05099868774414 0,49.05099868774414 C-25.777999877929688,49.05099868774414 -46.67399978637695,27.090999603271484 -46.67399978637695,0.0020000000949949026 C-46.67399978637695,-12.133999824523926 -42.486000061035156,-23.231000900268555 -35.542999267578125,-31.795000076293945 C-26.982999801635742,-42.35599899291992 -14.234000205993652,-49.05099868774414 0,-49.05099868774414 C25.777999877929688,-49.05099868774414 46.67399978637695,-27.091999053955078 46.67399978637695,0.0020000000949949026z"></path></g><g opacity="1" transform="matrix(1,0,0,1,0,0)"><g opacity="1" transform="matrix(1,0,0,1,604.9010009765625,359.1619873046875)"><path fill="rgb(27,224,188)" fill-opacity="1" d=" M30.886999130249023,4.617000102996826 C30.886999130249023,15.96399974822998 26.108999252319336,26.14299964904785 18.54800033569336,33.04199981689453 C24.659000396728516,26.288999557495117 28.395999908447266,17.160999298095703 28.395999908447266,7.109000205993652 C28.395999908447266,-13.687000274658203 12.348999977111816,-30.551000595092773 -7.443999767303467,-30.551000595092773 C-16.416000366210938,-30.551000595092773 -24.610000610351562,-27.086999893188477 -30.886999130249023,-21.364999771118164 C-24.35700035095215,-28.555999755859375 -15.151000022888184,-33.04199981689453 -4.942999839782715,-33.04199981689453 C14.840999603271484,-33.04199981689453 30.886999130249023,-16.179000854492188 30.886999130249023,4.617000102996826z"></path></g><g opacity="1" transform="matrix(1,0,0,1,0,0)"><g opacity="1" transform="matrix(1,0,0,1,599.9559936523438,320.2980041503906)"><path stroke-linecap="butt" stroke-linejoin="miter" fill-opacity="0" stroke-miterlimit="10" stroke="rgb(42,160,137)" stroke-opacity="1" stroke-width="0.851" d=" M0,-3.2260000705718994 C0,-3.2260000705718994 0,3.2260000705718994 0,3.2260000705718994"></path></g><g opacity="1" transform="matrix(1,0,0,1,591.6229858398438,321.1889953613281)"><path stroke-linecap="butt" stroke-linejoin="miter" fill-opacity="0" stroke-miterlimit="10" stroke="rgb(42,160,137)" stroke-opacity="1" stroke-width="0.851" d=" M-0.6179999709129333,-3.1600000858306885 C-0.6179999709129333,-3.1600000858306885 0.6179999709129333,3.1600000858306885 0.6179999709129333,3.1600000858306885"></path></g><g opacity="1" transform="matrix(1,0,0,1,583.6320190429688,323.82501220703125)"><path stroke-linecap="butt" stroke-linejoin="miter" fill-opacity="0" stroke-miterlimit="10" stroke="rgb(42,160,137)" stroke-opacity="1" stroke-width="0.851" d=" M-1.2109999656677246,-2.9639999866485596 C-1.2109999656677246,-2.9639999866485596 1.2109999656677246,2.9639999866485596 1.2109999656677246,2.9639999866485596"></path></g><g opacity="1" transform="matrix(1,0,0,1,576.3099975585938,328.1000061035156)"><path stroke-linecap="butt" stroke-linejoin="miter" fill-opacity="0" stroke-miterlimit="10" stroke="rgb(42,160,137)" stroke-opacity="1" stroke-width="0.851" d=" M-1.753999948501587,-2.6470000743865967 C-1.753999948501587,-2.6470000743865967 1.753999948501587,2.6470000743865967 1.753999948501587,2.6470000743865967"></path></g><g opacity="1" transform="matrix(1,0,0,1,569.9580078125,333.83599853515625)"><path stroke-linecap="butt" stroke-linejoin="miter" fill-opacity="0" stroke-miterlimit="10" stroke="rgb(42,160,137)" stroke-opacity="1" stroke-width="0.851" d=" M-2.2260000705718994,-2.2219998836517334 C-2.2260000705718994,-2.2219998836517334 2.2260000705718994,2.2219998836517334 2.2260000705718994,2.2219998836517334"></path></g><g opacity="1" transform="matrix(1,0,0,1,564.833984375,340.79901123046875)"><path stroke-linecap="butt" stroke-linejoin="miter" fill-opacity="0" stroke-miterlimit="10" stroke="rgb(42,160,137)" stroke-opacity="1" stroke-width="0.851" d=" M-2.6059999465942383,-1.7050000429153442 C-2.6059999465942383,-1.7050000429153442 2.6059999465942383,1.7050000429153442 2.6059999465942383,1.7050000429153442"></path></g><g opacity="1" transform="matrix(1,0,0,1,561.1500244140625,348.7049865722656)"><path stroke-linecap="butt" stroke-linejoin="miter" fill-opacity="0" stroke-miterlimit="10" stroke="rgb(42,160,137)" stroke-opacity="1" stroke-width="0.851" d=" M-2.878999948501587,-1.1180000305175781 C-2.878999948501587,-1.1180000305175781 2.878999948501587,1.1180000305175781 2.878999948501587,1.1180000305175781"></path></g><g opacity="1" transform="matrix(1,0,0,1,559.0570068359375,357.2279968261719)"><path stroke-linecap="butt" stroke-linejoin="miter" fill-opacity="0" stroke-miterlimit="10" stroke="rgb(42,160,137)" stroke-opacity="1" stroke-width="0.851" d=" M-3.0350000858306885,-0.4860000014305115 C-3.0350000858306885,-0.4860000014305115 3.0350000858306885,0.4860000014305115 3.0350000858306885,0.4860000014305115"></path></g><g opacity="1" transform="matrix(1,0,0,1,558.6400146484375,366.0199890136719)"><path stroke-linecap="butt" stroke-linejoin="miter" fill-opacity="0" stroke-miterlimit="10" stroke="rgb(42,160,137)" stroke-opacity="1" stroke-width="0.851" d=" M-3.065999984741211,0.16599999368190765 C-3.065999984741211,0.16599999368190765 3.065999984741211,-0.16599999368190765 3.065999984741211,-0.16599999368190765"></path></g><g opacity="1" transform="matrix(1,0,0,1,559.916015625,374.718994140625)"><path stroke-linecap="butt" stroke-linejoin="miter" fill-opacity="0" stroke-miterlimit="10" stroke="rgb(42,160,137)" stroke-opacity="1" stroke-width="0.851" d=" M-2.9709999561309814,0.8119999766349792 C-2.9709999561309814,0.8119999766349792 2.9709999561309814,-0.8119999766349792 2.9709999561309814,-0.8119999766349792"></path></g><g opacity="1" transform="matrix(1,0,0,1,562.8330078125,382.9700012207031)"><path stroke-linecap="butt" stroke-linejoin="miter" fill-opacity="0" stroke-miterlimit="10" stroke="rgb(42,160,137)" stroke-opacity="1" stroke-width="0.851" d=" M-2.753999948501587,1.4240000247955322 C-2.753999948501587,1.4240000247955322 2.753999948501587,-1.4240000247955322 2.753999948501587,-1.4240000247955322"></path></g><g opacity="1" transform="matrix(1,0,0,1,567.27197265625,390.43499755859375)"><path stroke-linecap="butt" stroke-linejoin="miter" fill-opacity="0" stroke-miterlimit="10" stroke="rgb(42,160,137)" stroke-opacity="1" stroke-width="0.851" d=" M-2.424999952316284,1.9780000448226929 C-2.424999952316284,1.9780000448226929 2.424999952316284,-1.9780000448226929 2.424999952316284,-1.9780000448226929"></path></g><g opacity="1" transform="matrix(1,0,0,1,573.051025390625,396.8070068359375)"><path stroke-linecap="butt" stroke-linejoin="miter" fill-opacity="0" stroke-miterlimit="10" stroke="rgb(42,160,137)" stroke-opacity="1" stroke-width="0.851" d=" M-1.996000051498413,2.4509999752044678 C-1.996000051498413,2.4509999752044678 1.996000051498413,-2.4509999752044678 1.996000051498413,-2.4509999752044678"></path></g><g opacity="1" transform="matrix(1,0,0,1,579.9320068359375,401.82501220703125)"><path stroke-linecap="butt" stroke-linejoin="miter" fill-opacity="0" stroke-miterlimit="10" stroke="rgb(42,160,137)" stroke-opacity="1" stroke-width="0.851" d=" M-1.4859999418258667,2.822999954223633 C-1.4859999418258667,2.822999954223633 1.4859999418258667,-2.822999954223633 1.4859999418258667,-2.822999954223633"></path></g><g opacity="1" transform="matrix(1,0,0,1,587.6339721679688,405.28399658203125)"><path stroke-linecap="butt" stroke-linejoin="miter" fill-opacity="0" stroke-miterlimit="10" stroke="rgb(42,160,137)" stroke-opacity="1" stroke-width="0.851" d=" M-0.9139999747276306,3.0799999237060547 C-0.9139999747276306,3.0799999237060547 0.9139999747276306,-3.0799999237060547 0.9139999747276306,-3.0799999237060547"></path></g><g opacity="1" transform="matrix(1,0,0,1,595.8410034179688,407.0419921875)"><path stroke-linecap="butt" stroke-linejoin="miter" fill-opacity="0" stroke-miterlimit="10" stroke="rgb(42,160,137)" stroke-opacity="1" stroke-width="0.851" d=" M-0.3050000071525574,3.2100000381469727 C-0.3050000071525574,3.2100000381469727 0.3050000071525574,-3.2100000381469727 0.3050000071525574,-3.2100000381469727"></path></g><g opacity="1" transform="matrix(1,0,0,1,604.2169799804688,407.0270080566406)"><path stroke-linecap="butt" stroke-linejoin="miter" fill-opacity="0" stroke-miterlimit="10" stroke="rgb(42,160,137)" stroke-opacity="1" stroke-width="0.851" d=" M0.3160000145435333,3.2090001106262207 C0.3160000145435333,3.2090001106262207 -0.3160000145435333,-3.2090001106262207 -0.3160000145435333,-3.2090001106262207"></path></g><g opacity="1" transform="matrix(1,0,0,1,612.4169921875,405.2380065917969)"><path stroke-linecap="butt" stroke-linejoin="miter" fill-opacity="0" stroke-miterlimit="10" stroke="rgb(42,160,137)" stroke-opacity="1" stroke-width="0.851" d=" M0.925000011920929,3.0759999752044678 C0.925000011920929,3.0759999752044678 -0.925000011920929,-3.0759999752044678 -0.925000011920929,-3.0759999752044678"></path></g><g opacity="1" transform="matrix(1,0,0,1,620.1079711914062,401.7510070800781)"><path stroke-linecap="butt" stroke-linejoin="miter" fill-opacity="0" stroke-miterlimit="10" stroke="rgb(42,160,137)" stroke-opacity="1" stroke-width="0.851" d=" M1.4950000047683716,2.818000078201294 C1.4950000047683716,2.818000078201294 -1.4950000047683716,-2.818000078201294 -1.4950000047683716,-2.818000078201294"></path></g><g opacity="1" transform="matrix(1,0,0,1,626.9719848632812,396.7070007324219)"><path stroke-linecap="butt" stroke-linejoin="miter" fill-opacity="0" stroke-miterlimit="10" stroke="rgb(42,160,137)" stroke-opacity="1" stroke-width="0.851" d=" M2.005000114440918,2.443000078201294 C2.005000114440918,2.443000078201294 -2.005000114440918,-2.443000078201294 -2.005000114440918,-2.443000078201294"></path></g><g opacity="1" transform="matrix(1,0,0,1,632.72900390625,390.3139953613281)"><path stroke-linecap="butt" stroke-linejoin="miter" fill-opacity="0" stroke-miterlimit="10" stroke="rgb(42,160,137)" stroke-opacity="1" stroke-width="0.851" d=" M2.431999921798706,1.968999981880188 C2.431999921798706,1.968999981880188 -2.431999921798706,-1.968999981880188 -2.431999921798706,-1.968999981880188"></path></g><g opacity="1" transform="matrix(1,0,0,1,637.1430053710938,382.8330078125)"><path stroke-linecap="butt" stroke-linejoin="miter" fill-opacity="0" stroke-miterlimit="10" stroke="rgb(42,160,137)" stroke-opacity="1" stroke-width="0.851" d=" M2.759000062942505,1.4140000343322754 C2.759000062942505,1.4140000343322754 -2.759000062942505,-1.4140000343322754 -2.759000062942505,-1.4140000343322754"></path></g><g opacity="1" transform="matrix(1,0,0,1,640.0330200195312,374.5710144042969)"><path stroke-linecap="butt" stroke-linejoin="miter" fill-opacity="0" stroke-miterlimit="10" stroke="rgb(42,160,137)" stroke-opacity="1" stroke-width="0.851" d=" M2.9739999771118164,0.8009999990463257 C2.9739999771118164,0.8009999990463257 -2.9739999771118164,-0.8009999990463257 -2.9739999771118164,-0.8009999990463257"></path></g><g opacity="1" transform="matrix(1,0,0,1,641.280029296875,365.8659973144531)"><path stroke-linecap="butt" stroke-linejoin="miter" fill-opacity="0" stroke-miterlimit="10" stroke="rgb(42,160,137)" stroke-opacity="1" stroke-width="0.851" d=" M3.065999984741211,0.1550000011920929 C3.065999984741211,0.1550000011920929 -3.065999984741211,-0.1550000011920929 -3.065999984741211,-0.1550000011920929"></path></g><g opacity="1" transform="matrix(1,0,0,1,640.8330078125,357.07598876953125)"><path stroke-linecap="butt" stroke-linejoin="miter" fill-opacity="0" stroke-miterlimit="10" stroke="rgb(42,160,137)" stroke-opacity="1" stroke-width="0.851" d=" M3.0329999923706055,-0.4970000088214874 C3.0329999923706055,-0.4970000088214874 -3.0329999923706055,0.4970000088214874 -3.0329999923706055,0.4970000088214874"></path></g><g opacity="1" transform="matrix(1,0,0,1,638.7109985351562,348.5610046386719)"><path stroke-linecap="butt" stroke-linejoin="miter" fill-opacity="0" stroke-miterlimit="10" stroke="rgb(42,160,137)" stroke-opacity="1" stroke-width="0.851" d=" M2.875999927520752,-1.128999948501587 C2.875999927520752,-1.128999948501587 -2.875999927520752,1.128999948501587 -2.875999927520752,1.128999948501587"></path></g><g opacity="1" transform="matrix(1,0,0,1,635.0009765625,340.66900634765625)"><path stroke-linecap="butt" stroke-linejoin="miter" fill-opacity="0" stroke-miterlimit="10" stroke="rgb(42,160,137)" stroke-opacity="1" stroke-width="0.851" d=" M2.5999999046325684,-1.715000033378601 C2.5999999046325684,-1.715000033378601 -2.5999999046325684,1.715000033378601 -2.5999999046325684,1.715000033378601"></path></g><g opacity="1" transform="matrix(1,0,0,1,629.85400390625,333.7250061035156)"><path stroke-linecap="butt" stroke-linejoin="miter" fill-opacity="0" stroke-miterlimit="10" stroke="rgb(42,160,137)" stroke-opacity="1" stroke-width="0.851" d=" M2.2179999351501465,-2.2300000190734863 C2.2179999351501465,-2.2300000190734863 -2.2179999351501465,2.2300000190734863 -2.2179999351501465,2.2300000190734863"></path></g><g opacity="1" transform="matrix(1,0,0,1,623.4819946289062,328.0119934082031)"><path stroke-linecap="butt" stroke-linejoin="miter" fill-opacity="0" stroke-miterlimit="10" stroke="rgb(42,160,137)" stroke-opacity="1" stroke-width="0.851" d=" M1.746000051498413,-2.6540000438690186 C1.746000051498413,-2.6540000438690186 -1.746000051498413,2.6540000438690186 -1.746000051498413,2.6540000438690186"></path></g><g opacity="1" transform="matrix(1,0,0,1,616.14501953125,323.7650146484375)"><path stroke-linecap="butt" stroke-linejoin="miter" fill-opacity="0" stroke-miterlimit="10" stroke="rgb(42,160,137)" stroke-opacity="1" stroke-width="0.851" d=" M1.2009999752044678,-2.9690001010894775 C1.2009999752044678,-2.9690001010894775 -1.2009999752044678,2.9690001010894775 -1.2009999752044678,2.9690001010894775"></path></g><g opacity="1" transform="matrix(1,0,0,1,608.14599609375,321.1579895019531)"><path stroke-linecap="butt" stroke-linejoin="miter" fill-opacity="0" stroke-miterlimit="10" stroke="rgb(42,160,137)" stroke-opacity="1" stroke-width="0.851" d=" M0.6079999804496765,-3.1619999408721924 C0.6079999804496765,-3.1619999408721924 -0.6079999804496765,3.1619999408721924 -0.6079999804496765,3.1619999408721924"></path></g></g></g></g></g><g transform="matrix(1.029064416885376,0,0,1.029064416885376,-14.4605712890625,-37.405975341796875)" opacity="1" style="display: block;"><g opacity="1" transform="matrix(1,0,0,1,496.3970031738281,238.5679931640625)"><path fill="rgb(27,242,203)" fill-opacity="1" d=" M87.38899993896484,0 C87.38899993896484,46.97600173950195 48.263999938964844,85.05699920654297 0,85.05699920654297 C-48.263999938964844,85.05699920654297 -87.38899993896484,46.97600173950195 -87.38899993896484,0 C-87.38899993896484,-46.97600173950195 -48.263999938964844,-85.05699920654297 0,-85.05699920654297 C48.263999938964844,-85.05699920654297 87.38899993896484,-46.97600173950195 87.38899993896484,0z"></path><path stroke-linecap="butt" stroke-linejoin="miter" fill-opacity="0" stroke-miterlimit="10" stroke="rgb(32,15,81)" stroke-opacity="1" stroke-width="1.737" d=" M87.38899993896484,0 C87.38899993896484,46.97600173950195 48.263999938964844,85.05699920654297 0,85.05699920654297 C-48.263999938964844,85.05699920654297 -87.38899993896484,46.97600173950195 -87.38899993896484,0 C-87.38899993896484,-46.97600173950195 -48.263999938964844,-85.05699920654297 0,-85.05699920654297 C48.263999938964844,-85.05699920654297 87.38899993896484,-46.97600173950195 87.38899993896484,0z"></path></g><g opacity="1" transform="matrix(1,0,0,1,0,0)"><g opacity="1" transform="matrix(1,0,0,1,505.12799072265625,238.5679931640625)"><path fill="rgb(27,242,203)" fill-opacity="1" d=" M80.93299865722656,0.004000000189989805 C80.93299865722656,18.145999908447266 75.53099822998047,34.96799850463867 66.31199645996094,48.77799987792969 C51.67499923706055,70.71499633789062 27.434999465942383,85.05599975585938 0,85.05599975585938 C-44.70000076293945,85.05599975585938 -80.93299865722656,46.97700119018555 -80.93299865722656,0.004000000189989805 C-80.93299865722656,-21.040000915527344 -73.6709976196289,-40.28200149536133 -61.63199996948242,-55.132999420166016 C-46.78900146484375,-73.44499969482422 -24.68199920654297,-85.05599975585938 0,-85.05599975585938 C44.70000076293945,-85.05599975585938 80.93299865722656,-46.97700119018555 80.93299865722656,0.004000000189989805z"></path><path stroke-linecap="butt" stroke-linejoin="miter" fill-opacity="0" stroke-miterlimit="10" stroke="rgb(32,15,81)" stroke-opacity="1" stroke-width="1.737" d=" M80.93299865722656,0.004000000189989805 C80.93299865722656,18.145999908447266 75.53099822998047,34.96799850463867 66.31199645996094,48.77799987792969 C51.67499923706055,70.71499633789062 27.434999465942383,85.05599975585938 0,85.05599975585938 C-44.70000076293945,85.05599975585938 -80.93299865722656,46.97700119018555 -80.93299865722656,0.004000000189989805 C-80.93299865722656,-21.040000915527344 -73.6709976196289,-40.28200149536133 -61.63199996948242,-55.132999420166016 C-46.78900146484375,-73.44499969482422 -24.68199920654297,-85.05599975585938 0,-85.05599975585938 C44.70000076293945,-85.05599975585938 80.93299865722656,-46.97700119018555 80.93299865722656,0.004000000189989805z"></path></g><g opacity="1" transform="matrix(1,0,0,1,0,0)"><g opacity="1" transform="matrix(1,0,0,1,513.7020263671875,230.56399536132812)"><path fill="rgb(27,224,188)" fill-opacity="1" d=" M53.55799865722656,8.006999969482422 C53.55799865722656,27.68199920654297 45.27299880981445,45.332000732421875 32.1619987487793,57.29600143432617 C42.75899887084961,45.584999084472656 49.23899841308594,29.756999969482422 49.23899841308594,12.326000213623047 C49.23899841308594,-23.733999252319336 21.413000106811523,-52.97600173950195 -12.909000396728516,-52.97600173950195 C-28.466999053955078,-52.97600173950195 -42.67399978637695,-46.96900177001953 -53.55799865722656,-37.047000885009766 C-42.23500061035156,-49.516998291015625 -26.273000717163086,-57.29600143432617 -8.571999549865723,-57.29600143432617 C25.732999801635742,-57.29600143432617 53.55799865722656,-28.05299949645996 53.55799865722656,8.006999969482422z"></path></g><g opacity="1" transform="matrix(1,0,0,1,0,0)"><g opacity="1" transform="matrix(1,0,0,1,505.12701416015625,163.17300415039062)"><path stroke-linecap="butt" stroke-linejoin="miter" fill-opacity="0" stroke-miterlimit="10" stroke="rgb(42,160,137)" stroke-opacity="1" stroke-width="1.476" d=" M0,-5.593999862670898 C0,-5.593999862670898 0,5.593999862670898 0,5.593999862670898"></path></g><g opacity="1" transform="matrix(1,0,0,1,490.6780090332031,164.718994140625)"><path stroke-linecap="butt" stroke-linejoin="miter" fill-opacity="0" stroke-miterlimit="10" stroke="rgb(42,160,137)" stroke-opacity="1" stroke-width="1.476" d=" M-1.0720000267028809,-5.480000019073486 C-1.0720000267028809,-5.480000019073486 1.0720000267028809,5.480000019073486 1.0720000267028809,5.480000019073486"></path></g><g opacity="1" transform="matrix(1,0,0,1,476.8219909667969,169.2899932861328)"><path stroke-linecap="butt" stroke-linejoin="miter" fill-opacity="0" stroke-miterlimit="10" stroke="rgb(42,160,137)" stroke-opacity="1" stroke-width="1.476" d=" M-2.0999999046325684,-5.139999866485596 C-2.0999999046325684,-5.139999866485596 2.0999999046325684,5.139999866485596 2.0999999046325684,5.139999866485596"></path></g><g opacity="1" transform="matrix(1,0,0,1,464.125,176.70199584960938)"><path stroke-linecap="butt" stroke-linejoin="miter" fill-opacity="0" stroke-miterlimit="10" stroke="rgb(42,160,137)" stroke-opacity="1" stroke-width="1.476" d=" M-3.0420000553131104,-4.590000152587891 C-3.0420000553131104,-4.590000152587891 3.0420000553131104,4.590000152587891 3.0420000553131104,4.590000152587891"></path></g><g opacity="1" transform="matrix(1,0,0,1,453.1090087890625,186.6490020751953)"><path stroke-linecap="butt" stroke-linejoin="miter" fill-opacity="0" stroke-miterlimit="10" stroke="rgb(42,160,137)" stroke-opacity="1" stroke-width="1.476" d=" M-3.859999895095825,-3.8519999980926514 C-3.859999895095825,-3.8519999980926514 3.859999895095825,3.8519999980926514 3.859999895095825,3.8519999980926514"></path></g><g opacity="1" transform="matrix(1,0,0,1,444.2250061035156,198.72300720214844)"><path stroke-linecap="butt" stroke-linejoin="miter" fill-opacity="0" stroke-miterlimit="10" stroke="rgb(42,160,137)" stroke-opacity="1" stroke-width="1.476" d=" M-4.519000053405762,-2.9560000896453857 C-4.519000053405762,-2.9560000896453857 4.519000053405762,2.9560000896453857 4.519000053405762,2.9560000896453857"></path></g><g opacity="1" transform="matrix(1,0,0,1,437.8370056152344,212.43099975585938)"><path stroke-linecap="butt" stroke-linejoin="miter" fill-opacity="0" stroke-miterlimit="10" stroke="rgb(42,160,137)" stroke-opacity="1" stroke-width="1.476" d=" M-4.993000030517578,-1.9390000104904175 C-4.993000030517578,-1.9390000104904175 4.993000030517578,1.9390000104904175 4.993000030517578,1.9390000104904175"></path></g><g opacity="1" transform="matrix(1,0,0,1,434.2070007324219,227.21099853515625)"><path stroke-linecap="butt" stroke-linejoin="miter" fill-opacity="0" stroke-miterlimit="10" stroke="rgb(42,160,137)" stroke-opacity="1" stroke-width="1.476" d=" M-5.26200008392334,-0.8429999947547913 C-5.26200008392334,-0.8429999947547913 5.26200008392334,0.8429999947547913 5.26200008392334,0.8429999947547913"></path></g><g opacity="1" transform="matrix(1,0,0,1,433.4840087890625,242.4550018310547)"><path stroke-linecap="butt" stroke-linejoin="miter" fill-opacity="0" stroke-miterlimit="10" stroke="rgb(42,160,137)" stroke-opacity="1" stroke-width="1.476" d=" M-5.315999984741211,0.2879999876022339 C-5.315999984741211,0.2879999876022339 5.315999984741211,-0.2879999876022339 5.315999984741211,-0.2879999876022339"></path></g><g opacity="1" transform="matrix(1,0,0,1,435.6969909667969,257.5409851074219)"><path stroke-linecap="butt" stroke-linejoin="miter" fill-opacity="0" stroke-miterlimit="10" stroke="rgb(42,160,137)" stroke-opacity="1" stroke-width="1.476" d=" M-5.1519999504089355,1.4079999923706055 C-5.1519999504089355,1.4079999923706055 5.1519999504089355,-1.4079999923706055 5.1519999504089355,-1.4079999923706055"></path></g><g opacity="1" transform="matrix(1,0,0,1,440.7560119628906,271.8479919433594)"><path stroke-linecap="butt" stroke-linejoin="miter" fill-opacity="0" stroke-miterlimit="10" stroke="rgb(42,160,137)" stroke-opacity="1" stroke-width="1.476" d=" M-4.776000022888184,2.4690001010894775 C-4.776000022888184,2.4690001010894775 4.776000022888184,-2.4690001010894775 4.776000022888184,-2.4690001010894775"></path></g><g opacity="1" transform="matrix(1,0,0,1,448.4530029296875,284.7919921875)"><path stroke-linecap="butt" stroke-linejoin="miter" fill-opacity="0" stroke-miterlimit="10" stroke="rgb(42,160,137)" stroke-opacity="1" stroke-width="1.476" d=" M-4.204999923706055,3.430000066757202 C-4.204999923706055,3.430000066757202 4.204999923706055,-3.430000066757202 4.204999923706055,-3.430000066757202"></path></g><g opacity="1" transform="matrix(1,0,0,1,458.4729919433594,295.84100341796875)"><path stroke-linecap="butt" stroke-linejoin="miter" fill-opacity="0" stroke-miterlimit="10" stroke="rgb(42,160,137)" stroke-opacity="1" stroke-width="1.476" d=" M-3.4619998931884766,4.25 C-3.4619998931884766,4.25 3.4619998931884766,-4.25 3.4619998931884766,-4.25"></path></g><g opacity="1" transform="matrix(1,0,0,1,470.4049987792969,304.5429992675781)"><path stroke-linecap="butt" stroke-linejoin="miter" fill-opacity="0" stroke-miterlimit="10" stroke="rgb(42,160,137)" stroke-opacity="1" stroke-width="1.476" d=" M-2.5759999752044678,4.894999980926514 C-2.5759999752044678,4.894999980926514 2.5759999752044678,-4.894999980926514 2.5759999752044678,-4.894999980926514"></path></g><g opacity="1" transform="matrix(1,0,0,1,483.760009765625,310.5409851074219)"><path stroke-linecap="butt" stroke-linejoin="miter" fill-opacity="0" stroke-miterlimit="10" stroke="rgb(42,160,137)" stroke-opacity="1" stroke-width="1.476" d=" M-1.5850000381469727,5.340000152587891 C-1.5850000381469727,5.340000152587891 1.5850000381469727,-5.340000152587891 1.5850000381469727,-5.340000152587891"></path></g><g opacity="1" transform="matrix(1,0,0,1,497.9909973144531,313.5889892578125)"><path stroke-linecap="butt" stroke-linejoin="miter" fill-opacity="0" stroke-miterlimit="10" stroke="rgb(42,160,137)" stroke-opacity="1" stroke-width="1.476" d=" M-0.5289999842643738,5.565999984741211 C-0.5289999842643738,5.565999984741211 0.5289999842643738,-5.565999984741211 0.5289999842643738,-5.565999984741211"></path></g><g opacity="1" transform="matrix(1,0,0,1,512.5150146484375,313.56201171875)"><path stroke-linecap="butt" stroke-linejoin="miter" fill-opacity="0" stroke-miterlimit="10" stroke="rgb(42,160,137)" stroke-opacity="1" stroke-width="1.476" d=" M0.5479999780654907,5.564000129699707 C0.5479999780654907,5.564000129699707 -0.5479999780654907,-5.564000129699707 -0.5479999780654907,-5.564000129699707"></path></g><g opacity="1" transform="matrix(1,0,0,1,526.7349853515625,310.46099853515625)"><path stroke-linecap="butt" stroke-linejoin="miter" fill-opacity="0" stroke-miterlimit="10" stroke="rgb(42,160,137)" stroke-opacity="1" stroke-width="1.476" d=" M1.6030000448226929,5.334000110626221 C1.6030000448226929,5.334000110626221 -1.6030000448226929,-5.334000110626221 -1.6030000448226929,-5.334000110626221"></path></g><g opacity="1" transform="matrix(1,0,0,1,540.0700073242188,304.41400146484375)"><path stroke-linecap="butt" stroke-linejoin="miter" fill-opacity="0" stroke-miterlimit="10" stroke="rgb(42,160,137)" stroke-opacity="1" stroke-width="1.476" d=" M2.5929999351501465,4.886000156402588 C2.5929999351501465,4.886000156402588 -2.5929999351501465,-4.886000156402588 -2.5929999351501465,-4.886000156402588"></path></g><g opacity="1" transform="matrix(1,0,0,1,551.9730224609375,295.6679992675781)"><path stroke-linecap="butt" stroke-linejoin="miter" fill-opacity="0" stroke-miterlimit="10" stroke="rgb(42,160,137)" stroke-opacity="1" stroke-width="1.476" d=" M3.4760000705718994,4.236999988555908 C3.4760000705718994,4.236999988555908 -3.4760000705718994,-4.236999988555908 -3.4760000705718994,-4.236999988555908"></path></g><g opacity="1" transform="matrix(1,0,0,1,561.9559936523438,284.5820007324219)"><path stroke-linecap="butt" stroke-linejoin="miter" fill-opacity="0" stroke-miterlimit="10" stroke="rgb(42,160,137)" stroke-opacity="1" stroke-width="1.476" d=" M4.2170000076293945,3.4140000343322754 C4.2170000076293945,3.4140000343322754 -4.2170000076293945,-3.4140000343322754 -4.2170000076293945,-3.4140000343322754"></path></g><g opacity="1" transform="matrix(1,0,0,1,569.6090087890625,271.6090087890625)"><path stroke-linecap="butt" stroke-linejoin="miter" fill-opacity="0" stroke-miterlimit="10" stroke="rgb(42,160,137)" stroke-opacity="1" stroke-width="1.476" d=" M4.784999847412109,2.4519999027252197 C4.784999847412109,2.4519999027252197 -4.784999847412109,-2.4519999027252197 -4.784999847412109,-2.4519999027252197"></path></g><g opacity="1" transform="matrix(1,0,0,1,574.6199951171875,257.2829895019531)"><path stroke-linecap="butt" stroke-linejoin="miter" fill-opacity="0" stroke-miterlimit="10" stroke="rgb(42,160,137)" stroke-opacity="1" stroke-width="1.476" d=" M5.156000137329102,1.3890000581741333 C5.156000137329102,1.3890000581741333 -5.156000137329102,-1.3890000581741333 -5.156000137329102,-1.3890000581741333"></path></g><g opacity="1" transform="matrix(1,0,0,1,576.781982421875,242.19000244140625)"><path stroke-linecap="butt" stroke-linejoin="miter" fill-opacity="0" stroke-miterlimit="10" stroke="rgb(42,160,137)" stroke-opacity="1" stroke-width="1.476" d=" M5.316999912261963,0.26899999380111694 C5.316999912261963,0.26899999380111694 -5.316999912261963,-0.26899999380111694 -5.316999912261963,-0.26899999380111694"></path></g><g opacity="1" transform="matrix(1,0,0,1,576.0079956054688,226.947998046875)"><path stroke-linecap="butt" stroke-linejoin="miter" fill-opacity="0" stroke-miterlimit="10" stroke="rgb(42,160,137)" stroke-opacity="1" stroke-width="1.476" d=" M5.258999824523926,-0.8619999885559082 C5.258999824523926,-0.8619999885559082 -5.258999824523926,0.8619999885559082 -5.258999824523926,0.8619999885559082"></path></g><g opacity="1" transform="matrix(1,0,0,1,572.3280029296875,212.1820068359375)"><path stroke-linecap="butt" stroke-linejoin="miter" fill-opacity="0" stroke-miterlimit="10" stroke="rgb(42,160,137)" stroke-opacity="1" stroke-width="1.476" d=" M4.986000061035156,-1.9579999446868896 C4.986000061035156,-1.9579999446868896 -4.986000061035156,1.9579999446868896 -4.986000061035156,1.9579999446868896"></path></g><g opacity="1" transform="matrix(1,0,0,1,565.89501953125,198.4980010986328)"><path stroke-linecap="butt" stroke-linejoin="miter" fill-opacity="0" stroke-miterlimit="10" stroke="rgb(42,160,137)" stroke-opacity="1" stroke-width="1.476" d=" M4.508999824523926,-2.9730000495910645 C4.508999824523926,-2.9730000495910645 -4.508999824523926,2.9730000495910645 -4.508999824523926,2.9730000495910645"></path></g><g opacity="1" transform="matrix(1,0,0,1,556.969970703125,186.45599365234375)"><path stroke-linecap="butt" stroke-linejoin="miter" fill-opacity="0" stroke-miterlimit="10" stroke="rgb(42,160,137)" stroke-opacity="1" stroke-width="1.476" d=" M3.8469998836517334,-3.867000102996826 C3.8469998836517334,-3.867000102996826 -3.8469998836517334,3.867000102996826 -3.8469998836517334,3.867000102996826"></path></g><g opacity="1" transform="matrix(1,0,0,1,545.9210205078125,176.5500030517578)"><path stroke-linecap="butt" stroke-linejoin="miter" fill-opacity="0" stroke-miterlimit="10" stroke="rgb(42,160,137)" stroke-opacity="1" stroke-width="1.476" d=" M3.0269999504089355,-4.6020002365112305 C3.0269999504089355,-4.6020002365112305 -3.0269999504089355,4.6020002365112305 -3.0269999504089355,4.6020002365112305"></path></g><g opacity="1" transform="matrix(1,0,0,1,533.2000122070312,169.18600463867188)"><path stroke-linecap="butt" stroke-linejoin="miter" fill-opacity="0" stroke-miterlimit="10" stroke="rgb(42,160,137)" stroke-opacity="1" stroke-width="1.476" d=" M2.0829999446868896,-5.1479997634887695 C2.0829999446868896,-5.1479997634887695 -2.0829999446868896,5.1479997634887695 -2.0829999446868896,5.1479997634887695"></path></g><g opacity="1" transform="matrix(1,0,0,1,519.3280029296875,164.6649932861328)"><path stroke-linecap="butt" stroke-linejoin="miter" fill-opacity="0" stroke-miterlimit="10" stroke="rgb(42,160,137)" stroke-opacity="1" stroke-width="1.476" d=" M1.0540000200271606,-5.484000205993652 C1.0540000200271606,-5.484000205993652 -1.0540000200271606,5.484000205993652 -1.0540000200271606,5.484000205993652"></path></g></g></g></g></g><g transform="matrix(1,0,0,1,0,-28)" opacity="1" style="display: block;"><g opacity="1" transform="matrix(1,0,0,1,484,796.7230224609375)"><path fill="rgb(108,61,187)" fill-opacity="1" d=" M134.52999877929688,107.09400177001953 C134.52999877929688,107.09400177001953 -134.52999877929688,107.09400177001953 -134.52999877929688,107.09400177001953 C-134.52999877929688,107.09400177001953 -194.52999877929688,-107.09400177001953 -194.52999877929688,-107.09400177001953 C-194.52999877929688,-107.09400177001953 194.52999877929688,-107.09400177001953 194.52999877929688,-107.09400177001953 C194.52999877929688,-107.09400177001953 134.52999877929688,107.09400177001953 134.52999877929688,107.09400177001953z"></path><path stroke-linecap="butt" stroke-linejoin="miter" fill-opacity="0" stroke-miterlimit="10" stroke="rgb(32,15,81)" stroke-opacity="1" stroke-width="2" d=" M134.52999877929688,107.09400177001953 C134.52999877929688,107.09400177001953 -134.52999877929688,107.09400177001953 -134.52999877929688,107.09400177001953 C-134.52999877929688,107.09400177001953 -194.52999877929688,-107.09400177001953 -194.52999877929688,-107.09400177001953 C-194.52999877929688,-107.09400177001953 194.52999877929688,-107.09400177001953 194.52999877929688,-107.09400177001953 C194.52999877929688,-107.09400177001953 134.52999877929688,107.09400177001953 134.52999877929688,107.09400177001953z"></path></g><g opacity="1" transform="matrix(1,0,0,1,512,796.7230224609375)"><path fill="rgb(108,61,187)" fill-opacity="1" d=" M134.52999877929688,107.09400177001953 C134.52999877929688,107.09400177001953 -134.52999877929688,107.09400177001953 -134.52999877929688,107.09400177001953 C-134.52999877929688,107.09400177001953 -194.52999877929688,-107.09400177001953 -194.52999877929688,-107.09400177001953 C-194.52999877929688,-107.09400177001953 194.52999877929688,-107.09400177001953 194.52999877929688,-107.09400177001953 C194.52999877929688,-107.09400177001953 134.52999877929688,107.09400177001953 134.52999877929688,107.09400177001953z"></path></g><g opacity="1" transform="matrix(1,0,0,1,484,661.7470092773438)"><path fill="rgb(108,61,187)" fill-opacity="1" d=" M215.64300537109375,-27.881999969482422 C215.64300537109375,-27.881999969482422 -215.64300537109375,-27.881999969482422 -215.64300537109375,-27.881999969482422 C-215.64300537109375,-27.881999969482422 -215.64300537109375,27.881999969482422 -215.64300537109375,27.881999969482422 C-215.64300537109375,27.881999969482422 215.64300537109375,27.881999969482422 215.64300537109375,27.881999969482422 C215.64300537109375,27.881999969482422 215.64300537109375,-27.881999969482422 215.64300537109375,-27.881999969482422z"></path><path stroke-linecap="butt" stroke-linejoin="miter" fill-opacity="0" stroke-miterlimit="10" stroke="rgb(32,15,81)" stroke-opacity="1" stroke-width="2" d=" M215.64300537109375,-27.881999969482422 C215.64300537109375,-27.881999969482422 -215.64300537109375,-27.881999969482422 -215.64300537109375,-27.881999969482422 C-215.64300537109375,-27.881999969482422 -215.64300537109375,27.881999969482422 -215.64300537109375,27.881999969482422 C-215.64300537109375,27.881999969482422 215.64300537109375,27.881999969482422 215.64300537109375,27.881999969482422 C215.64300537109375,27.881999969482422 215.64300537109375,-27.881999969482422 215.64300537109375,-27.881999969482422z"></path></g><g opacity="1" transform="matrix(1,0,0,1,512,661.7470092773438)"><path fill="rgb(108,61,187)" fill-opacity="1" d=" M215.64300537109375,-27.881999969482422 C215.64300537109375,-27.881999969482422 -215.64300537109375,-27.881999969482422 -215.64300537109375,-27.881999969482422 C-215.64300537109375,-27.881999969482422 -215.64300537109375,27.881999969482422 -215.64300537109375,27.881999969482422 C-215.64300537109375,27.881999969482422 215.64300537109375,27.881999969482422 215.64300537109375,27.881999969482422 C215.64300537109375,27.881999969482422 215.64300537109375,-27.881999969482422 215.64300537109375,-27.881999969482422z"></path></g><g opacity="1" transform="matrix(1,0,0,1,533.81298828125,685)"><path fill="rgb(116,71,187)" fill-opacity="1" d=" M193.8249969482422,-51.1349983215332 C193.8249969482422,-51.1349983215332 193.8249969482422,4.625 193.8249969482422,4.625 C193.8249969482422,4.625 172.71499633789062,4.625 172.71499633789062,4.625 C172.71499633789062,4.625 159.68499755859375,51.1349983215332 159.68499755859375,51.1349983215332 C106.63500213623047,26.315000534057617 43.125,1.3949999809265137 -30.104999542236328,-18.614999771118164 C-89.15499877929688,-34.744998931884766 -144.30499267578125,-44.8849983215332 -193.8249969482422,-51.1349983215332 C-193.8249969482422,-51.1349983215332 193.8249969482422,-51.1349983215332 193.8249969482422,-51.1349983215332z"></path></g><g opacity="1" transform="matrix(1,0,0,1,512,796.7230224609375)"><path stroke-linecap="butt" stroke-linejoin="miter" fill-opacity="0" stroke-miterlimit="10" stroke="rgb(32,15,81)" stroke-opacity="1" stroke-width="2" d=" M134.52999877929688,107.09400177001953 C134.52999877929688,107.09400177001953 -134.52999877929688,107.09400177001953 -134.52999877929688,107.09400177001953 C-134.52999877929688,107.09400177001953 -194.52999877929688,-107.09400177001953 -194.52999877929688,-107.09400177001953 C-194.52999877929688,-107.09400177001953 194.52999877929688,-107.09400177001953 194.52999877929688,-107.09400177001953 C194.52999877929688,-107.09400177001953 134.52999877929688,107.09400177001953 134.52999877929688,107.09400177001953z"></path></g><g opacity="1" transform="matrix(1,0,0,1,512,661.7470092773438)"><path stroke-linecap="butt" stroke-linejoin="miter" fill-opacity="0" stroke-miterlimit="10" stroke="rgb(32,15,81)" stroke-opacity="1" stroke-width="2" d=" M215.64300537109375,-27.881999969482422 C215.64300537109375,-27.881999969482422 -215.64300537109375,-27.881999969482422 -215.64300537109375,-27.881999969482422 C-215.64300537109375,-27.881999969482422 -215.64300537109375,27.881999969482422 -215.64300537109375,27.881999969482422 C-215.64300537109375,27.881999969482422 215.64300537109375,27.881999969482422 215.64300537109375,27.881999969482422 C215.64300537109375,27.881999969482422 215.64300537109375,-27.881999969482422 215.64300537109375,-27.881999969482422z"></path></g></g></g></svg>